  0
SECTION
  2
HEADER
  9
$ANGBASE
  50
0.0
  9
$ANGDIR
  70
1
  9
$MEASUREMENT
  70
1
  0
ENDSEC
  0
SECTION
  2
TABLES
  0
TABLE
  2
LTYPE
  70
4
  0
LTYPE
  5
40F
  2
CONTINUOUS
  70
0
  3
Solid line
  72
65
  73
0
  40
0.0
  0
LTYPE
  5
410
  2
DASHDOT
 70
0
  3
Dash Dot ____ _ ____ _
 72
65
 73
4
 40
2.0
 49
1.25
 49
-0.25
 49
0.25
 49
-0.25
  0
LTYPE
  5
411
  2
DASHED
 70
0
  3
Dashed __ __ __ __ __
 72
65
 73
2
 40
0.75
 49
0.5
 49
-0.25
  0
LTYPE
  5
43B
  2
DOTTED
 70
0
  3
Dotted .  .  .  .
 72
65
 73
2
 40
0.2
 49
0.0
 49
-0.2
  0
ENDTAB
  0
TABLE
  2
STYLE
  70
4
  0
STYLE
  2
KICAD
  70
0
  40
0
  41
1
  42
1
  50
0
  71
0
  3
isocp.shx
  0
STYLE
  2
KICADB
  70
0
  40
0
  41
1
  42
1
  50
0
  71
0
  3
isocp.shx
  0
STYLE
  2
KICADI
  70
0
  40
0
  41
1
  42
1
  50
15
  71
0
  3
isocp.shx
  0
STYLE
  2
KICADBI
  70
0
  40
0
  41
1
  42
1
  50
15
  71
0
  3
isocp.shx
  0
ENDTAB
  0
TABLE
  2
LAYER
  70
1
  0
LAYER
  2
BLACK
  70
0
  62
7
  6
CONTINUOUS
  0
ENDTAB
  0
ENDSEC
  0
SECTION
  2
ENTITIES
0
LINE
8
BLACK
6
CONTINUOUS
10
58.8476
20
-22.3048
11
58.7048
21
-22.3524
0
LINE
8
BLACK
6
CONTINUOUS
10
58.7048
20
-22.3524
11
58.4667
21
-22.3524
0
LINE
8
BLACK
6
CONTINUOUS
10
58.4667
20
-22.3524
11
58.3714
21
-22.3048
0
LINE
8
BLACK
6
CONTINUOUS
10
58.3714
20
-22.3048
11
58.3238
21
-22.2571
0
LINE
8
BLACK
6
CONTINUOUS
10
58.3238
20
-22.2571
11
58.2762
21
-22.1619
0
LINE
8
BLACK
6
CONTINUOUS
10
58.2762
20
-22.1619
11
58.2762
21
-22.0667
0
LINE
8
BLACK
6
CONTINUOUS
10
58.2762
20
-22.0667
11
58.3238
21
-21.9714
0
LINE
8
BLACK
6
CONTINUOUS
10
58.3238
20
-21.9714
11
58.3714
21
-21.9238
0
LINE
8
BLACK
6
CONTINUOUS
10
58.3714
20
-21.9238
11
58.4667
21
-21.8762
0
LINE
8
BLACK
6
CONTINUOUS
10
58.4667
20
-21.8762
11
58.6571
21
-21.8286
0
LINE
8
BLACK
6
CONTINUOUS
10
58.6571
20
-21.8286
11
58.7524
21
-21.781
0
LINE
8
BLACK
6
CONTINUOUS
10
58.7524
20
-21.781
11
58.8
21
-21.7333
0
LINE
8
BLACK
6
CONTINUOUS
10
58.8
20
-21.7333
11
58.8476
21
-21.6381
0
LINE
8
BLACK
6
CONTINUOUS
10
58.8476
20
-21.6381
11
58.8476
21
-21.5429
0
LINE
8
BLACK
6
CONTINUOUS
10
58.8476
20
-21.5429
11
58.8
21
-21.4476
0
LINE
8
BLACK
6
CONTINUOUS
10
58.8
20
-21.4476
11
58.7524
21
-21.4
0
LINE
8
BLACK
6
CONTINUOUS
10
58.7524
20
-21.4
11
58.6571
21
-21.3524
0
LINE
8
BLACK
6
CONTINUOUS
10
58.6571
20
-21.3524
11
58.419
21
-21.3524
0
LINE
8
BLACK
6
CONTINUOUS
10
58.419
20
-21.3524
11
58.2762
21
-21.4
0
LINE
8
BLACK
6
CONTINUOUS
10
57.9429
20
-21.3524
11
57.7048
21
-22.3524
0
LINE
8
BLACK
6
CONTINUOUS
10
57.7048
20
-22.3524
11
57.5143
21
-21.6381
0
LINE
8
BLACK
6
CONTINUOUS
10
57.5143
20
-21.6381
11
57.3238
21
-22.3524
0
LINE
8
BLACK
6
CONTINUOUS
10
57.3238
20
-22.3524
11
57.0857
21
-21.3524
0
LINE
8
BLACK
6
CONTINUOUS
10
56.9429
20
-22.4476
11
56.181
21
-22.4476
0
LINE
8
BLACK
6
CONTINUOUS
10
55.9429
20
-22.3524
11
55.9429
21
-21.3524
0
LINE
8
BLACK
6
CONTINUOUS
10
55.9429
20
-21.3524
11
55.5619
21
-21.3524
0
LINE
8
BLACK
6
CONTINUOUS
10
55.5619
20
-21.3524
11
55.4667
21
-21.4
0
LINE
8
BLACK
6
CONTINUOUS
10
55.4667
20
-21.4
11
55.419
21
-21.4476
0
LINE
8
BLACK
6
CONTINUOUS
10
55.419
20
-21.4476
11
55.3714
21
-21.5429
0
LINE
8
BLACK
6
CONTINUOUS
10
55.3714
20
-21.5429
11
55.3714
21
-21.6857
0
LINE
8
BLACK
6
CONTINUOUS
10
55.3714
20
-21.6857
11
55.419
21
-21.781
0
LINE
8
BLACK
6
CONTINUOUS
10
55.419
20
-21.781
11
55.4667
21
-21.8286
0
LINE
8
BLACK
6
CONTINUOUS
10
55.4667
20
-21.8286
11
55.5619
21
-21.8762
0
LINE
8
BLACK
6
CONTINUOUS
10
55.5619
20
-21.8762
11
55.9429
21
-21.8762
0
LINE
8
BLACK
6
CONTINUOUS
10
54.5143
20
-21.6857
11
54.5143
21
-22.3524
0
LINE
8
BLACK
6
CONTINUOUS
10
54.9429
20
-21.6857
11
54.9429
21
-22.2095
0
LINE
8
BLACK
6
CONTINUOUS
10
54.9429
20
-22.2095
11
54.8952
21
-22.3048
0
LINE
8
BLACK
6
CONTINUOUS
10
54.8952
20
-22.3048
11
54.8
21
-22.3524
0
LINE
8
BLACK
6
CONTINUOUS
10
54.8
20
-22.3524
11
54.6571
21
-22.3524
0
LINE
8
BLACK
6
CONTINUOUS
10
54.6571
20
-22.3524
11
54.5619
21
-22.3048
0
LINE
8
BLACK
6
CONTINUOUS
10
54.5619
20
-22.3048
11
54.5143
21
-22.2571
0
LINE
8
BLACK
6
CONTINUOUS
10
54.0857
20
-22.3048
11
53.9905
21
-22.3524
0
LINE
8
BLACK
6
CONTINUOUS
10
53.9905
20
-22.3524
11
53.8
21
-22.3524
0
LINE
8
BLACK
6
CONTINUOUS
10
53.8
20
-22.3524
11
53.7048
21
-22.3048
0
LINE
8
BLACK
6
CONTINUOUS
10
53.7048
20
-22.3048
11
53.6571
21
-22.2095
0
LINE
8
BLACK
6
CONTINUOUS
10
53.6571
20
-22.2095
11
53.6571
21
-22.1619
0
LINE
8
BLACK
6
CONTINUOUS
10
53.6571
20
-22.1619
11
53.7048
21
-22.0667
0
LINE
8
BLACK
6
CONTINUOUS
10
53.7048
20
-22.0667
11
53.8
21
-22.019
0
LINE
8
BLACK
6
CONTINUOUS
10
53.8
20
-22.019
11
53.9429
21
-22.019
0
LINE
8
BLACK
6
CONTINUOUS
10
53.9429
20
-22.019
11
54.0381
21
-21.9714
0
LINE
8
BLACK
6
CONTINUOUS
10
54.0381
20
-21.9714
11
54.0857
21
-21.8762
0
LINE
8
BLACK
6
CONTINUOUS
10
54.0857
20
-21.8762
11
54.0857
21
-21.8286
0
LINE
8
BLACK
6
CONTINUOUS
10
54.0857
20
-21.8286
11
54.0381
21
-21.7333
0
LINE
8
BLACK
6
CONTINUOUS
10
54.0381
20
-21.7333
11
53.9429
21
-21.6857
0
LINE
8
BLACK
6
CONTINUOUS
10
53.9429
20
-21.6857
11
53.8
21
-21.6857
0
LINE
8
BLACK
6
CONTINUOUS
10
53.8
20
-21.6857
11
53.7048
21
-21.7333
0
LINE
8
BLACK
6
CONTINUOUS
10
53.2286
20
-22.3524
11
53.2286
21
-21.3524
0
LINE
8
BLACK
6
CONTINUOUS
10
52.8
20
-22.3524
11
52.8
21
-21.8286
0
LINE
8
BLACK
6
CONTINUOUS
10
52.8
20
-21.8286
11
52.8476
21
-21.7333
0
LINE
8
BLACK
6
CONTINUOUS
10
52.8476
20
-21.7333
11
52.9429
21
-21.6857
0
LINE
8
BLACK
6
CONTINUOUS
10
52.9429
20
-21.6857
11
53.0857
21
-21.6857
0
LINE
8
BLACK
6
CONTINUOUS
10
53.0857
20
-21.6857
11
53.181
21
-21.7333
0
LINE
8
BLACK
6
CONTINUOUS
10
53.181
20
-21.7333
11
53.2286
21
-21.781
  0
ENDSEC
  0
EOF
