  0
SECTION
  2
HEADER
  9
$ANGBASE
  50
0.0
  9
$ANGDIR
  70
1
  9
$MEASUREMENT
  70
1
  0
ENDSEC
  0
SECTION
  2
TABLES
  0
TABLE
  2
LTYPE
  70
4
  0
LTYPE
  5
40F
  2
CONTINUOUS
  70
0
  3
Solid line
  72
65
  73
0
  40
0.0
  0
LTYPE
  5
410
  2
DASHDOT
 70
0
  3
Dash Dot ____ _ ____ _
 72
65
 73
4
 40
2.0
 49
1.25
 49
-0.25
 49
0.25
 49
-0.25
  0
LTYPE
  5
411
  2
DASHED
 70
0
  3
Dashed __ __ __ __ __
 72
65
 73
2
 40
0.75
 49
0.5
 49
-0.25
  0
LTYPE
  5
43B
  2
DOTTED
 70
0
  3
Dotted .  .  .  .
 72
65
 73
2
 40
0.2
 49
0.0
 49
-0.2
  0
ENDTAB
  0
TABLE
  2
STYLE
  70
4
  0
STYLE
  2
KICAD
  70
0
  40
0
  41
1
  42
1
  50
0
  71
0
  3
isocp.shx
  0
STYLE
  2
KICADB
  70
0
  40
0
  41
1
  42
1
  50
0
  71
0
  3
isocp.shx
  0
STYLE
  2
KICADI
  70
0
  40
0
  41
1
  42
1
  50
15
  71
0
  3
isocp.shx
  0
STYLE
  2
KICADBI
  70
0
  40
0
  41
1
  42
1
  50
15
  71
0
  3
isocp.shx
  0
ENDTAB
  0
TABLE
  2
LAYER
  70
1
  0
LAYER
  2
BLACK
  70
0
  62
7
  6
CONTINUOUS
  0
ENDTAB
  0
ENDSEC
  0
SECTION
  2
ENTITIES
0
LINE
8
BLACK
6
CONTINUOUS
10
238.8
20
-107.575
11
237.8
21
-107.575
0
LINE
8
BLACK
6
CONTINUOUS
10
237.8
20
-107.575
11
237.8
21
-106.175
0
LINE
8
BLACK
6
CONTINUOUS
10
237.8
20
-106.175
11
238.8
21
-106.175
0
LINE
8
BLACK
6
CONTINUOUS
10
238.8
20
-106.175
11
238.8
21
-107.575
0
LINE
8
BLACK
6
CONTINUOUS
10
45.65
20
-106.45
11
44.05
21
-106.45
0
LINE
8
BLACK
6
CONTINUOUS
10
44.05
20
-106.45
11
44.05
21
-104.25
0
LINE
8
BLACK
6
CONTINUOUS
10
44.05
20
-104.25
11
45.65
21
-104.25
0
LINE
8
BLACK
6
CONTINUOUS
10
45.65
20
-104.25
11
45.65
21
-106.45
0
LINE
8
BLACK
6
CONTINUOUS
10
64.7
20
-106.45
11
63.1
21
-106.45
0
LINE
8
BLACK
6
CONTINUOUS
10
63.1
20
-106.45
11
63.1
21
-104.25
0
LINE
8
BLACK
6
CONTINUOUS
10
63.1
20
-104.25
11
64.7
21
-104.25
0
LINE
8
BLACK
6
CONTINUOUS
10
64.7
20
-104.25
11
64.7
21
-106.45
0
LINE
8
BLACK
6
CONTINUOUS
10
83.75
20
-106.45
11
82.15
21
-106.45
0
LINE
8
BLACK
6
CONTINUOUS
10
82.15
20
-106.45
11
82.15
21
-104.25
0
LINE
8
BLACK
6
CONTINUOUS
10
82.15
20
-104.25
11
83.75
21
-104.25
0
LINE
8
BLACK
6
CONTINUOUS
10
83.75
20
-104.25
11
83.75
21
-106.45
0
LINE
8
BLACK
6
CONTINUOUS
10
236.15
20
-106.45
11
234.55
21
-106.45
0
LINE
8
BLACK
6
CONTINUOUS
10
234.55
20
-106.45
11
234.55
21
-104.25
0
LINE
8
BLACK
6
CONTINUOUS
10
234.55
20
-104.25
11
236.15
21
-104.25
0
LINE
8
BLACK
6
CONTINUOUS
10
236.15
20
-104.25
11
236.15
21
-106.45
0
LINE
8
BLACK
6
CONTINUOUS
10
102.8
20
-106.45
11
101.2
21
-106.45
0
LINE
8
BLACK
6
CONTINUOUS
10
101.2
20
-106.45
11
101.2
21
-104.25
0
LINE
8
BLACK
6
CONTINUOUS
10
101.2
20
-104.25
11
102.8
21
-104.25
0
LINE
8
BLACK
6
CONTINUOUS
10
102.8
20
-104.25
11
102.8
21
-106.45
0
LINE
8
BLACK
6
CONTINUOUS
10
121.85
20
-106.45
11
120.25
21
-106.45
0
LINE
8
BLACK
6
CONTINUOUS
10
120.25
20
-106.45
11
120.25
21
-104.25
0
LINE
8
BLACK
6
CONTINUOUS
10
120.25
20
-104.25
11
121.85
21
-104.25
0
LINE
8
BLACK
6
CONTINUOUS
10
121.85
20
-104.25
11
121.85
21
-106.45
0
LINE
8
BLACK
6
CONTINUOUS
10
217.1
20
-106.45
11
215.5
21
-106.45
0
LINE
8
BLACK
6
CONTINUOUS
10
215.5
20
-106.45
11
215.5
21
-104.25
0
LINE
8
BLACK
6
CONTINUOUS
10
215.5
20
-104.25
11
217.1
21
-104.25
0
LINE
8
BLACK
6
CONTINUOUS
10
217.1
20
-104.25
11
217.1
21
-106.45
0
LINE
8
BLACK
6
CONTINUOUS
10
140.9
20
-106.45
11
139.3
21
-106.45
0
LINE
8
BLACK
6
CONTINUOUS
10
139.3
20
-106.45
11
139.3
21
-104.25
0
LINE
8
BLACK
6
CONTINUOUS
10
139.3
20
-104.25
11
140.9
21
-104.25
0
LINE
8
BLACK
6
CONTINUOUS
10
140.9
20
-104.25
11
140.9
21
-106.45
0
LINE
8
BLACK
6
CONTINUOUS
10
198.05
20
-106.45
11
196.45
21
-106.45
0
LINE
8
BLACK
6
CONTINUOUS
10
196.45
20
-106.45
11
196.45
21
-104.25
0
LINE
8
BLACK
6
CONTINUOUS
10
196.45
20
-104.25
11
198.05
21
-104.25
0
LINE
8
BLACK
6
CONTINUOUS
10
198.05
20
-104.25
11
198.05
21
-106.45
0
LINE
8
BLACK
6
CONTINUOUS
10
159.95
20
-106.45
11
158.35
21
-106.45
0
LINE
8
BLACK
6
CONTINUOUS
10
158.35
20
-106.45
11
158.35
21
-104.25
0
LINE
8
BLACK
6
CONTINUOUS
10
158.35
20
-104.25
11
159.95
21
-104.25
0
LINE
8
BLACK
6
CONTINUOUS
10
159.95
20
-104.25
11
159.95
21
-106.45
0
LINE
8
BLACK
6
CONTINUOUS
10
179
20
-106.45
11
177.4
21
-106.45
0
LINE
8
BLACK
6
CONTINUOUS
10
177.4
20
-106.45
11
177.4
21
-104.25
0
LINE
8
BLACK
6
CONTINUOUS
10
177.4
20
-104.25
11
179
21
-104.25
0
LINE
8
BLACK
6
CONTINUOUS
10
179
20
-104.25
11
179
21
-106.45
0
LINE
8
BLACK
6
CONTINUOUS
10
164.981
20
-105.8
11
163.981
21
-105.8
0
LINE
8
BLACK
6
CONTINUOUS
10
163.981
20
-105.8
11
163.981
21
-104.4
0
LINE
8
BLACK
6
CONTINUOUS
10
163.981
20
-104.4
11
164.981
21
-104.4
0
LINE
8
BLACK
6
CONTINUOUS
10
164.981
20
-104.4
11
164.981
21
-105.8
0
LINE
8
BLACK
6
CONTINUOUS
10
184.031
20
-105.194
11
183.031
21
-105.194
0
LINE
8
BLACK
6
CONTINUOUS
10
183.031
20
-105.194
11
183.031
21
-103.794
0
LINE
8
BLACK
6
CONTINUOUS
10
183.031
20
-103.794
11
184.031
21
-103.794
0
LINE
8
BLACK
6
CONTINUOUS
10
184.031
20
-103.794
11
184.031
21
-105.194
0
LINE
8
BLACK
6
CONTINUOUS
10
203.081
20
-105.194
11
202.081
21
-105.194
0
LINE
8
BLACK
6
CONTINUOUS
10
202.081
20
-105.194
11
202.081
21
-103.794
0
LINE
8
BLACK
6
CONTINUOUS
10
202.081
20
-103.794
11
203.081
21
-103.794
0
LINE
8
BLACK
6
CONTINUOUS
10
203.081
20
-103.794
11
203.081
21
-105.194
0
LINE
8
BLACK
6
CONTINUOUS
10
222.131
20
-105.194
11
221.131
21
-105.194
0
LINE
8
BLACK
6
CONTINUOUS
10
221.131
20
-105.194
11
221.131
21
-103.794
0
LINE
8
BLACK
6
CONTINUOUS
10
221.131
20
-103.794
11
222.131
21
-103.794
0
LINE
8
BLACK
6
CONTINUOUS
10
222.131
20
-103.794
11
222.131
21
-105.194
0
LINE
8
BLACK
6
CONTINUOUS
10
50.6812
20
-105.194
11
49.6812
21
-105.194
0
LINE
8
BLACK
6
CONTINUOUS
10
49.6812
20
-105.194
11
49.6812
21
-103.794
0
LINE
8
BLACK
6
CONTINUOUS
10
49.6812
20
-103.794
11
50.6812
21
-103.794
0
LINE
8
BLACK
6
CONTINUOUS
10
50.6812
20
-103.794
11
50.6812
21
-105.194
0
LINE
8
BLACK
6
CONTINUOUS
10
145.931
20
-105.194
11
144.931
21
-105.194
0
LINE
8
BLACK
6
CONTINUOUS
10
144.931
20
-105.194
11
144.931
21
-103.794
0
LINE
8
BLACK
6
CONTINUOUS
10
144.931
20
-103.794
11
145.931
21
-103.794
0
LINE
8
BLACK
6
CONTINUOUS
10
145.931
20
-103.794
11
145.931
21
-105.194
0
LINE
8
BLACK
6
CONTINUOUS
10
126.881
20
-105.194
11
125.881
21
-105.194
0
LINE
8
BLACK
6
CONTINUOUS
10
125.881
20
-105.194
11
125.881
21
-103.794
0
LINE
8
BLACK
6
CONTINUOUS
10
125.881
20
-103.794
11
126.881
21
-103.794
0
LINE
8
BLACK
6
CONTINUOUS
10
126.881
20
-103.794
11
126.881
21
-105.194
0
LINE
8
BLACK
6
CONTINUOUS
10
107.831
20
-105.194
11
106.831
21
-105.194
0
LINE
8
BLACK
6
CONTINUOUS
10
106.831
20
-105.194
11
106.831
21
-103.794
0
LINE
8
BLACK
6
CONTINUOUS
10
106.831
20
-103.794
11
107.831
21
-103.794
0
LINE
8
BLACK
6
CONTINUOUS
10
107.831
20
-103.794
11
107.831
21
-105.194
0
LINE
8
BLACK
6
CONTINUOUS
10
88.7812
20
-105.194
11
87.7812
21
-105.194
0
LINE
8
BLACK
6
CONTINUOUS
10
87.7812
20
-105.194
11
87.7812
21
-103.794
0
LINE
8
BLACK
6
CONTINUOUS
10
87.7812
20
-103.794
11
88.7812
21
-103.794
0
LINE
8
BLACK
6
CONTINUOUS
10
88.7812
20
-103.794
11
88.7812
21
-105.194
0
LINE
8
BLACK
6
CONTINUOUS
10
69.7312
20
-105.194
11
68.7312
21
-105.194
0
LINE
8
BLACK
6
CONTINUOUS
10
68.7312
20
-105.194
11
68.7312
21
-103.794
0
LINE
8
BLACK
6
CONTINUOUS
10
68.7312
20
-103.794
11
69.7312
21
-103.794
0
LINE
8
BLACK
6
CONTINUOUS
10
69.7312
20
-103.794
11
69.7312
21
-105.194
0
LINE
8
BLACK
6
CONTINUOUS
10
168.4
20
-104.25
11
166.8
21
-104.25
0
LINE
8
BLACK
6
CONTINUOUS
10
166.8
20
-104.25
11
166.8
21
-102.05
0
LINE
8
BLACK
6
CONTINUOUS
10
166.8
20
-102.05
11
168.4
21
-102.05
0
LINE
8
BLACK
6
CONTINUOUS
10
168.4
20
-102.05
11
168.4
21
-104.25
0
LINE
8
BLACK
6
CONTINUOUS
10
35.05
20
-104.25
11
33.45
21
-104.25
0
LINE
8
BLACK
6
CONTINUOUS
10
33.45
20
-104.25
11
33.45
21
-102.05
0
LINE
8
BLACK
6
CONTINUOUS
10
33.45
20
-102.05
11
35.05
21
-102.05
0
LINE
8
BLACK
6
CONTINUOUS
10
35.05
20
-102.05
11
35.05
21
-104.25
0
LINE
8
BLACK
6
CONTINUOUS
10
54.1
20
-104.25
11
52.5
21
-104.25
0
LINE
8
BLACK
6
CONTINUOUS
10
52.5
20
-104.25
11
52.5
21
-102.05
0
LINE
8
BLACK
6
CONTINUOUS
10
52.5
20
-102.05
11
54.1
21
-102.05
0
LINE
8
BLACK
6
CONTINUOUS
10
54.1
20
-102.05
11
54.1
21
-104.25
0
LINE
8
BLACK
6
CONTINUOUS
10
149.35
20
-104.25
11
147.75
21
-104.25
0
LINE
8
BLACK
6
CONTINUOUS
10
147.75
20
-104.25
11
147.75
21
-102.05
0
LINE
8
BLACK
6
CONTINUOUS
10
147.75
20
-102.05
11
149.35
21
-102.05
0
LINE
8
BLACK
6
CONTINUOUS
10
149.35
20
-102.05
11
149.35
21
-104.25
0
LINE
8
BLACK
6
CONTINUOUS
10
73.15
20
-104.25
11
71.55
21
-104.25
0
LINE
8
BLACK
6
CONTINUOUS
10
71.55
20
-104.25
11
71.55
21
-102.05
0
LINE
8
BLACK
6
CONTINUOUS
10
71.55
20
-102.05
11
73.15
21
-102.05
0
LINE
8
BLACK
6
CONTINUOUS
10
73.15
20
-102.05
11
73.15
21
-104.25
0
LINE
8
BLACK
6
CONTINUOUS
10
187.45
20
-104.25
11
185.85
21
-104.25
0
LINE
8
BLACK
6
CONTINUOUS
10
185.85
20
-104.25
11
185.85
21
-102.05
0
LINE
8
BLACK
6
CONTINUOUS
10
185.85
20
-102.05
11
187.45
21
-102.05
0
LINE
8
BLACK
6
CONTINUOUS
10
187.45
20
-102.05
11
187.45
21
-104.25
0
LINE
8
BLACK
6
CONTINUOUS
10
92.2
20
-104.25
11
90.6
21
-104.25
0
LINE
8
BLACK
6
CONTINUOUS
10
90.6
20
-104.25
11
90.6
21
-102.05
0
LINE
8
BLACK
6
CONTINUOUS
10
90.6
20
-102.05
11
92.2
21
-102.05
0
LINE
8
BLACK
6
CONTINUOUS
10
92.2
20
-102.05
11
92.2
21
-104.25
0
LINE
8
BLACK
6
CONTINUOUS
10
225.55
20
-104.25
11
223.95
21
-104.25
0
LINE
8
BLACK
6
CONTINUOUS
10
223.95
20
-104.25
11
223.95
21
-102.05
0
LINE
8
BLACK
6
CONTINUOUS
10
223.95
20
-102.05
11
225.55
21
-102.05
0
LINE
8
BLACK
6
CONTINUOUS
10
225.55
20
-102.05
11
225.55
21
-104.25
0
LINE
8
BLACK
6
CONTINUOUS
10
206.5
20
-104.25
11
204.9
21
-104.25
0
LINE
8
BLACK
6
CONTINUOUS
10
204.9
20
-104.25
11
204.9
21
-102.05
0
LINE
8
BLACK
6
CONTINUOUS
10
204.9
20
-102.05
11
206.5
21
-102.05
0
LINE
8
BLACK
6
CONTINUOUS
10
206.5
20
-102.05
11
206.5
21
-104.25
0
LINE
8
BLACK
6
CONTINUOUS
10
130.3
20
-104.25
11
128.7
21
-104.25
0
LINE
8
BLACK
6
CONTINUOUS
10
128.7
20
-104.25
11
128.7
21
-102.05
0
LINE
8
BLACK
6
CONTINUOUS
10
128.7
20
-102.05
11
130.3
21
-102.05
0
LINE
8
BLACK
6
CONTINUOUS
10
130.3
20
-102.05
11
130.3
21
-104.25
0
LINE
8
BLACK
6
CONTINUOUS
10
111.25
20
-104.25
11
109.65
21
-104.25
0
LINE
8
BLACK
6
CONTINUOUS
10
109.65
20
-104.25
11
109.65
21
-102.05
0
LINE
8
BLACK
6
CONTINUOUS
10
109.65
20
-102.05
11
111.25
21
-102.05
0
LINE
8
BLACK
6
CONTINUOUS
10
111.25
20
-102.05
11
111.25
21
-104.25
0
LINE
8
BLACK
6
CONTINUOUS
10
238.8
20
-104.025
11
237.8
21
-104.025
0
LINE
8
BLACK
6
CONTINUOUS
10
237.8
20
-104.025
11
237.8
21
-102.625
0
LINE
8
BLACK
6
CONTINUOUS
10
237.8
20
-102.625
11
238.8
21
-102.625
0
LINE
8
BLACK
6
CONTINUOUS
10
238.8
20
-102.625
11
238.8
21
-104.025
0
LINE
8
BLACK
6
CONTINUOUS
10
164.981
20
-102.25
11
163.981
21
-102.25
0
LINE
8
BLACK
6
CONTINUOUS
10
163.981
20
-102.25
11
163.981
21
-100.85
0
LINE
8
BLACK
6
CONTINUOUS
10
163.981
20
-100.85
11
164.981
21
-100.85
0
LINE
8
BLACK
6
CONTINUOUS
10
164.981
20
-100.85
11
164.981
21
-102.25
0
LINE
8
BLACK
6
CONTINUOUS
10
50.6812
20
-101.644
11
49.6812
21
-101.644
0
LINE
8
BLACK
6
CONTINUOUS
10
49.6812
20
-101.644
11
49.6812
21
-100.244
0
LINE
8
BLACK
6
CONTINUOUS
10
49.6812
20
-100.244
11
50.6812
21
-100.244
0
LINE
8
BLACK
6
CONTINUOUS
10
50.6812
20
-100.244
11
50.6812
21
-101.644
0
LINE
8
BLACK
6
CONTINUOUS
10
184.031
20
-101.644
11
183.031
21
-101.644
0
LINE
8
BLACK
6
CONTINUOUS
10
183.031
20
-101.644
11
183.031
21
-100.244
0
LINE
8
BLACK
6
CONTINUOUS
10
183.031
20
-100.244
11
184.031
21
-100.244
0
LINE
8
BLACK
6
CONTINUOUS
10
184.031
20
-100.244
11
184.031
21
-101.644
0
LINE
8
BLACK
6
CONTINUOUS
10
203.081
20
-101.644
11
202.081
21
-101.644
0
LINE
8
BLACK
6
CONTINUOUS
10
202.081
20
-101.644
11
202.081
21
-100.244
0
LINE
8
BLACK
6
CONTINUOUS
10
202.081
20
-100.244
11
203.081
21
-100.244
0
LINE
8
BLACK
6
CONTINUOUS
10
203.081
20
-100.244
11
203.081
21
-101.644
0
LINE
8
BLACK
6
CONTINUOUS
10
222.131
20
-101.644
11
221.131
21
-101.644
0
LINE
8
BLACK
6
CONTINUOUS
10
221.131
20
-101.644
11
221.131
21
-100.244
0
LINE
8
BLACK
6
CONTINUOUS
10
221.131
20
-100.244
11
222.131
21
-100.244
0
LINE
8
BLACK
6
CONTINUOUS
10
222.131
20
-100.244
11
222.131
21
-101.644
0
LINE
8
BLACK
6
CONTINUOUS
10
145.931
20
-101.644
11
144.931
21
-101.644
0
LINE
8
BLACK
6
CONTINUOUS
10
144.931
20
-101.644
11
144.931
21
-100.244
0
LINE
8
BLACK
6
CONTINUOUS
10
144.931
20
-100.244
11
145.931
21
-100.244
0
LINE
8
BLACK
6
CONTINUOUS
10
145.931
20
-100.244
11
145.931
21
-101.644
0
LINE
8
BLACK
6
CONTINUOUS
10
126.881
20
-101.644
11
125.881
21
-101.644
0
LINE
8
BLACK
6
CONTINUOUS
10
125.881
20
-101.644
11
125.881
21
-100.244
0
LINE
8
BLACK
6
CONTINUOUS
10
125.881
20
-100.244
11
126.881
21
-100.244
0
LINE
8
BLACK
6
CONTINUOUS
10
126.881
20
-100.244
11
126.881
21
-101.644
0
LINE
8
BLACK
6
CONTINUOUS
10
107.831
20
-101.644
11
106.831
21
-101.644
0
LINE
8
BLACK
6
CONTINUOUS
10
106.831
20
-101.644
11
106.831
21
-100.244
0
LINE
8
BLACK
6
CONTINUOUS
10
106.831
20
-100.244
11
107.831
21
-100.244
0
LINE
8
BLACK
6
CONTINUOUS
10
107.831
20
-100.244
11
107.831
21
-101.644
0
LINE
8
BLACK
6
CONTINUOUS
10
69.7312
20
-101.644
11
68.7312
21
-101.644
0
LINE
8
BLACK
6
CONTINUOUS
10
68.7312
20
-101.644
11
68.7312
21
-100.244
0
LINE
8
BLACK
6
CONTINUOUS
10
68.7312
20
-100.244
11
69.7312
21
-100.244
0
LINE
8
BLACK
6
CONTINUOUS
10
69.7312
20
-100.244
11
69.7312
21
-101.644
0
LINE
8
BLACK
6
CONTINUOUS
10
88.7812
20
-101.644
11
87.7812
21
-101.644
0
LINE
8
BLACK
6
CONTINUOUS
10
87.7812
20
-101.644
11
87.7812
21
-100.244
0
LINE
8
BLACK
6
CONTINUOUS
10
87.7812
20
-100.244
11
88.7812
21
-100.244
0
LINE
8
BLACK
6
CONTINUOUS
10
88.7812
20
-100.244
11
88.7812
21
-101.644
0
LINE
8
BLACK
6
CONTINUOUS
10
178.6
20
-95.325
11
177
21
-95.325
0
LINE
8
BLACK
6
CONTINUOUS
10
177
20
-95.325
11
177
21
-94.325
0
LINE
8
BLACK
6
CONTINUOUS
10
177
20
-94.325
11
178.6
21
-94.325
0
LINE
8
BLACK
6
CONTINUOUS
10
178.6
20
-94.325
11
178.6
21
-95.325
0
LINE
8
BLACK
6
CONTINUOUS
10
140.5
20
-95.325
11
138.9
21
-95.325
0
LINE
8
BLACK
6
CONTINUOUS
10
138.9
20
-95.325
11
138.9
21
-94.325
0
LINE
8
BLACK
6
CONTINUOUS
10
138.9
20
-94.325
11
140.5
21
-94.325
0
LINE
8
BLACK
6
CONTINUOUS
10
140.5
20
-94.325
11
140.5
21
-95.325
0
LINE
8
BLACK
6
CONTINUOUS
10
135.7
20
-95.325
11
134.1
21
-95.325
0
LINE
8
BLACK
6
CONTINUOUS
10
134.1
20
-95.325
11
134.1
21
-94.325
0
LINE
8
BLACK
6
CONTINUOUS
10
134.1
20
-94.325
11
135.7
21
-94.325
0
LINE
8
BLACK
6
CONTINUOUS
10
135.7
20
-94.325
11
135.7
21
-95.325
0
LINE
8
BLACK
6
CONTINUOUS
10
159.55
20
-95.325
11
157.95
21
-95.325
0
LINE
8
BLACK
6
CONTINUOUS
10
157.95
20
-95.325
11
157.95
21
-94.325
0
LINE
8
BLACK
6
CONTINUOUS
10
157.95
20
-94.325
11
159.55
21
-94.325
0
LINE
8
BLACK
6
CONTINUOUS
10
159.55
20
-94.325
11
159.55
21
-95.325
0
LINE
8
BLACK
6
CONTINUOUS
10
45.25
20
-95.325
11
43.65
21
-95.325
0
LINE
8
BLACK
6
CONTINUOUS
10
43.65
20
-95.325
11
43.65
21
-94.325
0
LINE
8
BLACK
6
CONTINUOUS
10
43.65
20
-94.325
11
45.25
21
-94.325
0
LINE
8
BLACK
6
CONTINUOUS
10
45.25
20
-94.325
11
45.25
21
-95.325
0
LINE
8
BLACK
6
CONTINUOUS
10
40.45
20
-95.325
11
38.85
21
-95.325
0
LINE
8
BLACK
6
CONTINUOUS
10
38.85
20
-95.325
11
38.85
21
-94.325
0
LINE
8
BLACK
6
CONTINUOUS
10
38.85
20
-94.325
11
40.45
21
-94.325
0
LINE
8
BLACK
6
CONTINUOUS
10
40.45
20
-94.325
11
40.45
21
-95.325
0
LINE
8
BLACK
6
CONTINUOUS
10
154.75
20
-95.325
11
153.15
21
-95.325
0
LINE
8
BLACK
6
CONTINUOUS
10
153.15
20
-95.325
11
153.15
21
-94.325
0
LINE
8
BLACK
6
CONTINUOUS
10
153.15
20
-94.325
11
154.75
21
-94.325
0
LINE
8
BLACK
6
CONTINUOUS
10
154.75
20
-94.325
11
154.75
21
-95.325
0
LINE
8
BLACK
6
CONTINUOUS
10
173.8
20
-95.325
11
172.2
21
-95.325
0
LINE
8
BLACK
6
CONTINUOUS
10
172.2
20
-95.325
11
172.2
21
-94.325
0
LINE
8
BLACK
6
CONTINUOUS
10
172.2
20
-94.325
11
173.8
21
-94.325
0
LINE
8
BLACK
6
CONTINUOUS
10
173.8
20
-94.325
11
173.8
21
-95.325
0
LINE
8
BLACK
6
CONTINUOUS
10
235.75
20
-95.325
11
234.15
21
-95.325
0
LINE
8
BLACK
6
CONTINUOUS
10
234.15
20
-95.325
11
234.15
21
-94.325
0
LINE
8
BLACK
6
CONTINUOUS
10
234.15
20
-94.325
11
235.75
21
-94.325
0
LINE
8
BLACK
6
CONTINUOUS
10
235.75
20
-94.325
11
235.75
21
-95.325
0
LINE
8
BLACK
6
CONTINUOUS
10
230.95
20
-95.325
11
229.35
21
-95.325
0
LINE
8
BLACK
6
CONTINUOUS
10
229.35
20
-95.325
11
229.35
21
-94.325
0
LINE
8
BLACK
6
CONTINUOUS
10
229.35
20
-94.325
11
230.95
21
-94.325
0
LINE
8
BLACK
6
CONTINUOUS
10
230.95
20
-94.325
11
230.95
21
-95.325
0
LINE
8
BLACK
6
CONTINUOUS
10
211.9
20
-95.325
11
210.3
21
-95.325
0
LINE
8
BLACK
6
CONTINUOUS
10
210.3
20
-95.325
11
210.3
21
-94.325
0
LINE
8
BLACK
6
CONTINUOUS
10
210.3
20
-94.325
11
211.9
21
-94.325
0
LINE
8
BLACK
6
CONTINUOUS
10
211.9
20
-94.325
11
211.9
21
-95.325
0
LINE
8
BLACK
6
CONTINUOUS
10
216.7
20
-95.325
11
215.1
21
-95.325
0
LINE
8
BLACK
6
CONTINUOUS
10
215.1
20
-95.325
11
215.1
21
-94.325
0
LINE
8
BLACK
6
CONTINUOUS
10
215.1
20
-94.325
11
216.7
21
-94.325
0
LINE
8
BLACK
6
CONTINUOUS
10
216.7
20
-94.325
11
216.7
21
-95.325
0
LINE
8
BLACK
6
CONTINUOUS
10
197.65
20
-95.325
11
196.05
21
-95.325
0
LINE
8
BLACK
6
CONTINUOUS
10
196.05
20
-95.325
11
196.05
21
-94.325
0
LINE
8
BLACK
6
CONTINUOUS
10
196.05
20
-94.325
11
197.65
21
-94.325
0
LINE
8
BLACK
6
CONTINUOUS
10
197.65
20
-94.325
11
197.65
21
-95.325
0
LINE
8
BLACK
6
CONTINUOUS
10
192.85
20
-95.325
11
191.25
21
-95.325
0
LINE
8
BLACK
6
CONTINUOUS
10
191.25
20
-95.325
11
191.25
21
-94.325
0
LINE
8
BLACK
6
CONTINUOUS
10
191.25
20
-94.325
11
192.85
21
-94.325
0
LINE
8
BLACK
6
CONTINUOUS
10
192.85
20
-94.325
11
192.85
21
-95.325
0
LINE
8
BLACK
6
CONTINUOUS
10
78.55
20
-95.325
11
76.95
21
-95.325
0
LINE
8
BLACK
6
CONTINUOUS
10
76.95
20
-95.325
11
76.95
21
-94.325
0
LINE
8
BLACK
6
CONTINUOUS
10
76.95
20
-94.325
11
78.55
21
-94.325
0
LINE
8
BLACK
6
CONTINUOUS
10
78.55
20
-94.325
11
78.55
21
-95.325
0
LINE
8
BLACK
6
CONTINUOUS
10
83.35
20
-95.325
11
81.75
21
-95.325
0
LINE
8
BLACK
6
CONTINUOUS
10
81.75
20
-95.325
11
81.75
21
-94.325
0
LINE
8
BLACK
6
CONTINUOUS
10
81.75
20
-94.325
11
83.35
21
-94.325
0
LINE
8
BLACK
6
CONTINUOUS
10
83.35
20
-94.325
11
83.35
21
-95.325
0
LINE
8
BLACK
6
CONTINUOUS
10
121.45
20
-95.325
11
119.85
21
-95.325
0
LINE
8
BLACK
6
CONTINUOUS
10
119.85
20
-95.325
11
119.85
21
-94.325
0
LINE
8
BLACK
6
CONTINUOUS
10
119.85
20
-94.325
11
121.45
21
-94.325
0
LINE
8
BLACK
6
CONTINUOUS
10
121.45
20
-94.325
11
121.45
21
-95.325
0
LINE
8
BLACK
6
CONTINUOUS
10
116.65
20
-95.325
11
115.05
21
-95.325
0
LINE
8
BLACK
6
CONTINUOUS
10
115.05
20
-95.325
11
115.05
21
-94.325
0
LINE
8
BLACK
6
CONTINUOUS
10
115.05
20
-94.325
11
116.65
21
-94.325
0
LINE
8
BLACK
6
CONTINUOUS
10
116.65
20
-94.325
11
116.65
21
-95.325
0
LINE
8
BLACK
6
CONTINUOUS
10
64.3
20
-95.325
11
62.7
21
-95.325
0
LINE
8
BLACK
6
CONTINUOUS
10
62.7
20
-95.325
11
62.7
21
-94.325
0
LINE
8
BLACK
6
CONTINUOUS
10
62.7
20
-94.325
11
64.3
21
-94.325
0
LINE
8
BLACK
6
CONTINUOUS
10
64.3
20
-94.325
11
64.3
21
-95.325
0
LINE
8
BLACK
6
CONTINUOUS
10
59.5
20
-95.325
11
57.9
21
-95.325
0
LINE
8
BLACK
6
CONTINUOUS
10
57.9
20
-95.325
11
57.9
21
-94.325
0
LINE
8
BLACK
6
CONTINUOUS
10
57.9
20
-94.325
11
59.5
21
-94.325
0
LINE
8
BLACK
6
CONTINUOUS
10
59.5
20
-94.325
11
59.5
21
-95.325
0
LINE
8
BLACK
6
CONTINUOUS
10
102.4
20
-95.325
11
100.8
21
-95.325
0
LINE
8
BLACK
6
CONTINUOUS
10
100.8
20
-95.325
11
100.8
21
-94.325
0
LINE
8
BLACK
6
CONTINUOUS
10
100.8
20
-94.325
11
102.4
21
-94.325
0
LINE
8
BLACK
6
CONTINUOUS
10
102.4
20
-94.325
11
102.4
21
-95.325
0
LINE
8
BLACK
6
CONTINUOUS
10
97.6
20
-95.325
11
96
21
-95.325
0
LINE
8
BLACK
6
CONTINUOUS
10
96
20
-95.325
11
96
21
-94.325
0
LINE
8
BLACK
6
CONTINUOUS
10
96
20
-94.325
11
97.6
21
-94.325
0
LINE
8
BLACK
6
CONTINUOUS
10
97.6
20
-94.325
11
97.6
21
-95.325
0
LINE
8
BLACK
6
CONTINUOUS
10
235.75
20
-93.575
11
234.15
21
-93.575
0
LINE
8
BLACK
6
CONTINUOUS
10
234.15
20
-93.575
11
234.15
21
-92.575
0
LINE
8
BLACK
6
CONTINUOUS
10
234.15
20
-92.575
11
235.75
21
-92.575
0
LINE
8
BLACK
6
CONTINUOUS
10
235.75
20
-92.575
11
235.75
21
-93.575
0
LINE
8
BLACK
6
CONTINUOUS
10
135.7
20
-93.575
11
134.1
21
-93.575
0
LINE
8
BLACK
6
CONTINUOUS
10
134.1
20
-93.575
11
134.1
21
-92.575
0
LINE
8
BLACK
6
CONTINUOUS
10
134.1
20
-92.575
11
135.7
21
-92.575
0
LINE
8
BLACK
6
CONTINUOUS
10
135.7
20
-92.575
11
135.7
21
-93.575
0
LINE
8
BLACK
6
CONTINUOUS
10
159.55
20
-93.575
11
157.95
21
-93.575
0
LINE
8
BLACK
6
CONTINUOUS
10
157.95
20
-93.575
11
157.95
21
-92.575
0
LINE
8
BLACK
6
CONTINUOUS
10
157.95
20
-92.575
11
159.55
21
-92.575
0
LINE
8
BLACK
6
CONTINUOUS
10
159.55
20
-92.575
11
159.55
21
-93.575
0
LINE
8
BLACK
6
CONTINUOUS
10
45.25
20
-93.575
11
43.65
21
-93.575
0
LINE
8
BLACK
6
CONTINUOUS
10
43.65
20
-93.575
11
43.65
21
-92.575
0
LINE
8
BLACK
6
CONTINUOUS
10
43.65
20
-92.575
11
45.25
21
-92.575
0
LINE
8
BLACK
6
CONTINUOUS
10
45.25
20
-92.575
11
45.25
21
-93.575
0
LINE
8
BLACK
6
CONTINUOUS
10
83.35
20
-93.575
11
81.75
21
-93.575
0
LINE
8
BLACK
6
CONTINUOUS
10
81.75
20
-93.575
11
81.75
21
-92.575
0
LINE
8
BLACK
6
CONTINUOUS
10
81.75
20
-92.575
11
83.35
21
-92.575
0
LINE
8
BLACK
6
CONTINUOUS
10
83.35
20
-92.575
11
83.35
21
-93.575
0
LINE
8
BLACK
6
CONTINUOUS
10
40.45
20
-93.575
11
38.85
21
-93.575
0
LINE
8
BLACK
6
CONTINUOUS
10
38.85
20
-93.575
11
38.85
21
-92.575
0
LINE
8
BLACK
6
CONTINUOUS
10
38.85
20
-92.575
11
40.45
21
-92.575
0
LINE
8
BLACK
6
CONTINUOUS
10
40.45
20
-92.575
11
40.45
21
-93.575
0
LINE
8
BLACK
6
CONTINUOUS
10
154.75
20
-93.575
11
153.15
21
-93.575
0
LINE
8
BLACK
6
CONTINUOUS
10
153.15
20
-93.575
11
153.15
21
-92.575
0
LINE
8
BLACK
6
CONTINUOUS
10
153.15
20
-92.575
11
154.75
21
-92.575
0
LINE
8
BLACK
6
CONTINUOUS
10
154.75
20
-92.575
11
154.75
21
-93.575
0
LINE
8
BLACK
6
CONTINUOUS
10
173.8
20
-93.575
11
172.2
21
-93.575
0
LINE
8
BLACK
6
CONTINUOUS
10
172.2
20
-93.575
11
172.2
21
-92.575
0
LINE
8
BLACK
6
CONTINUOUS
10
172.2
20
-92.575
11
173.8
21
-92.575
0
LINE
8
BLACK
6
CONTINUOUS
10
173.8
20
-92.575
11
173.8
21
-93.575
0
LINE
8
BLACK
6
CONTINUOUS
10
59.5
20
-93.575
11
57.9
21
-93.575
0
LINE
8
BLACK
6
CONTINUOUS
10
57.9
20
-93.575
11
57.9
21
-92.575
0
LINE
8
BLACK
6
CONTINUOUS
10
57.9
20
-92.575
11
59.5
21
-92.575
0
LINE
8
BLACK
6
CONTINUOUS
10
59.5
20
-92.575
11
59.5
21
-93.575
0
LINE
8
BLACK
6
CONTINUOUS
10
140.5
20
-93.575
11
138.9
21
-93.575
0
LINE
8
BLACK
6
CONTINUOUS
10
138.9
20
-93.575
11
138.9
21
-92.575
0
LINE
8
BLACK
6
CONTINUOUS
10
138.9
20
-92.575
11
140.5
21
-92.575
0
LINE
8
BLACK
6
CONTINUOUS
10
140.5
20
-92.575
11
140.5
21
-93.575
0
LINE
8
BLACK
6
CONTINUOUS
10
230.95
20
-93.575
11
229.35
21
-93.575
0
LINE
8
BLACK
6
CONTINUOUS
10
229.35
20
-93.575
11
229.35
21
-92.575
0
LINE
8
BLACK
6
CONTINUOUS
10
229.35
20
-92.575
11
230.95
21
-92.575
0
LINE
8
BLACK
6
CONTINUOUS
10
230.95
20
-92.575
11
230.95
21
-93.575
0
LINE
8
BLACK
6
CONTINUOUS
10
211.9
20
-93.575
11
210.3
21
-93.575
0
LINE
8
BLACK
6
CONTINUOUS
10
210.3
20
-93.575
11
210.3
21
-92.575
0
LINE
8
BLACK
6
CONTINUOUS
10
210.3
20
-92.575
11
211.9
21
-92.575
0
LINE
8
BLACK
6
CONTINUOUS
10
211.9
20
-92.575
11
211.9
21
-93.575
0
LINE
8
BLACK
6
CONTINUOUS
10
216.7
20
-93.575
11
215.1
21
-93.575
0
LINE
8
BLACK
6
CONTINUOUS
10
215.1
20
-93.575
11
215.1
21
-92.575
0
LINE
8
BLACK
6
CONTINUOUS
10
215.1
20
-92.575
11
216.7
21
-92.575
0
LINE
8
BLACK
6
CONTINUOUS
10
216.7
20
-92.575
11
216.7
21
-93.575
0
LINE
8
BLACK
6
CONTINUOUS
10
197.65
20
-93.575
11
196.05
21
-93.575
0
LINE
8
BLACK
6
CONTINUOUS
10
196.05
20
-93.575
11
196.05
21
-92.575
0
LINE
8
BLACK
6
CONTINUOUS
10
196.05
20
-92.575
11
197.65
21
-92.575
0
LINE
8
BLACK
6
CONTINUOUS
10
197.65
20
-92.575
11
197.65
21
-93.575
0
LINE
8
BLACK
6
CONTINUOUS
10
64.3
20
-93.575
11
62.7
21
-93.575
0
LINE
8
BLACK
6
CONTINUOUS
10
62.7
20
-93.575
11
62.7
21
-92.575
0
LINE
8
BLACK
6
CONTINUOUS
10
62.7
20
-92.575
11
64.3
21
-92.575
0
LINE
8
BLACK
6
CONTINUOUS
10
64.3
20
-92.575
11
64.3
21
-93.575
0
LINE
8
BLACK
6
CONTINUOUS
10
192.85
20
-93.575
11
191.25
21
-93.575
0
LINE
8
BLACK
6
CONTINUOUS
10
191.25
20
-93.575
11
191.25
21
-92.575
0
LINE
8
BLACK
6
CONTINUOUS
10
191.25
20
-92.575
11
192.85
21
-92.575
0
LINE
8
BLACK
6
CONTINUOUS
10
192.85
20
-92.575
11
192.85
21
-93.575
0
LINE
8
BLACK
6
CONTINUOUS
10
178.6
20
-93.575
11
177
21
-93.575
0
LINE
8
BLACK
6
CONTINUOUS
10
177
20
-93.575
11
177
21
-92.575
0
LINE
8
BLACK
6
CONTINUOUS
10
177
20
-92.575
11
178.6
21
-92.575
0
LINE
8
BLACK
6
CONTINUOUS
10
178.6
20
-92.575
11
178.6
21
-93.575
0
LINE
8
BLACK
6
CONTINUOUS
10
116.65
20
-93.575
11
115.05
21
-93.575
0
LINE
8
BLACK
6
CONTINUOUS
10
115.05
20
-93.575
11
115.05
21
-92.575
0
LINE
8
BLACK
6
CONTINUOUS
10
115.05
20
-92.575
11
116.65
21
-92.575
0
LINE
8
BLACK
6
CONTINUOUS
10
116.65
20
-92.575
11
116.65
21
-93.575
0
LINE
8
BLACK
6
CONTINUOUS
10
78.55
20
-93.575
11
76.95
21
-93.575
0
LINE
8
BLACK
6
CONTINUOUS
10
76.95
20
-93.575
11
76.95
21
-92.575
0
LINE
8
BLACK
6
CONTINUOUS
10
76.95
20
-92.575
11
78.55
21
-92.575
0
LINE
8
BLACK
6
CONTINUOUS
10
78.55
20
-92.575
11
78.55
21
-93.575
0
LINE
8
BLACK
6
CONTINUOUS
10
102.4
20
-93.575
11
100.8
21
-93.575
0
LINE
8
BLACK
6
CONTINUOUS
10
100.8
20
-93.575
11
100.8
21
-92.575
0
LINE
8
BLACK
6
CONTINUOUS
10
100.8
20
-92.575
11
102.4
21
-92.575
0
LINE
8
BLACK
6
CONTINUOUS
10
102.4
20
-92.575
11
102.4
21
-93.575
0
LINE
8
BLACK
6
CONTINUOUS
10
121.45
20
-93.575
11
119.85
21
-93.575
0
LINE
8
BLACK
6
CONTINUOUS
10
119.85
20
-93.575
11
119.85
21
-92.575
0
LINE
8
BLACK
6
CONTINUOUS
10
119.85
20
-92.575
11
121.45
21
-92.575
0
LINE
8
BLACK
6
CONTINUOUS
10
121.45
20
-92.575
11
121.45
21
-93.575
0
LINE
8
BLACK
6
CONTINUOUS
10
97.6
20
-93.575
11
96
21
-93.575
0
LINE
8
BLACK
6
CONTINUOUS
10
96
20
-93.575
11
96
21
-92.575
0
LINE
8
BLACK
6
CONTINUOUS
10
96
20
-92.575
11
97.6
21
-92.575
0
LINE
8
BLACK
6
CONTINUOUS
10
97.6
20
-92.575
11
97.6
21
-93.575
0
LINE
8
BLACK
6
CONTINUOUS
10
238.8
20
-88.525
11
237.8
21
-88.525
0
LINE
8
BLACK
6
CONTINUOUS
10
237.8
20
-88.525
11
237.8
21
-87.125
0
LINE
8
BLACK
6
CONTINUOUS
10
237.8
20
-87.125
11
238.8
21
-87.125
0
LINE
8
BLACK
6
CONTINUOUS
10
238.8
20
-87.125
11
238.8
21
-88.525
0
LINE
8
BLACK
6
CONTINUOUS
10
198.05
20
-87.4
11
196.45
21
-87.4
0
LINE
8
BLACK
6
CONTINUOUS
10
196.45
20
-87.4
11
196.45
21
-85.2
0
LINE
8
BLACK
6
CONTINUOUS
10
196.45
20
-85.2
11
198.05
21
-85.2
0
LINE
8
BLACK
6
CONTINUOUS
10
198.05
20
-85.2
11
198.05
21
-87.4
0
LINE
8
BLACK
6
CONTINUOUS
10
236.15
20
-87.4
11
234.55
21
-87.4
0
LINE
8
BLACK
6
CONTINUOUS
10
234.55
20
-87.4
11
234.55
21
-85.2
0
LINE
8
BLACK
6
CONTINUOUS
10
234.55
20
-85.2
11
236.15
21
-85.2
0
LINE
8
BLACK
6
CONTINUOUS
10
236.15
20
-85.2
11
236.15
21
-87.4
0
LINE
8
BLACK
6
CONTINUOUS
10
217.1
20
-87.4
11
215.5
21
-87.4
0
LINE
8
BLACK
6
CONTINUOUS
10
215.5
20
-87.4
11
215.5
21
-85.2
0
LINE
8
BLACK
6
CONTINUOUS
10
215.5
20
-85.2
11
217.1
21
-85.2
0
LINE
8
BLACK
6
CONTINUOUS
10
217.1
20
-85.2
11
217.1
21
-87.4
0
LINE
8
BLACK
6
CONTINUOUS
10
45.65
20
-87.4
11
44.05
21
-87.4
0
LINE
8
BLACK
6
CONTINUOUS
10
44.05
20
-87.4
11
44.05
21
-85.2
0
LINE
8
BLACK
6
CONTINUOUS
10
44.05
20
-85.2
11
45.65
21
-85.2
0
LINE
8
BLACK
6
CONTINUOUS
10
45.65
20
-85.2
11
45.65
21
-87.4
0
LINE
8
BLACK
6
CONTINUOUS
10
179
20
-87.4
11
177.4
21
-87.4
0
LINE
8
BLACK
6
CONTINUOUS
10
177.4
20
-87.4
11
177.4
21
-85.2
0
LINE
8
BLACK
6
CONTINUOUS
10
177.4
20
-85.2
11
179
21
-85.2
0
LINE
8
BLACK
6
CONTINUOUS
10
179
20
-85.2
11
179
21
-87.4
0
LINE
8
BLACK
6
CONTINUOUS
10
102.8
20
-87.4
11
101.2
21
-87.4
0
LINE
8
BLACK
6
CONTINUOUS
10
101.2
20
-87.4
11
101.2
21
-85.2
0
LINE
8
BLACK
6
CONTINUOUS
10
101.2
20
-85.2
11
102.8
21
-85.2
0
LINE
8
BLACK
6
CONTINUOUS
10
102.8
20
-85.2
11
102.8
21
-87.4
0
LINE
8
BLACK
6
CONTINUOUS
10
121.85
20
-87.4
11
120.25
21
-87.4
0
LINE
8
BLACK
6
CONTINUOUS
10
120.25
20
-87.4
11
120.25
21
-85.2
0
LINE
8
BLACK
6
CONTINUOUS
10
120.25
20
-85.2
11
121.85
21
-85.2
0
LINE
8
BLACK
6
CONTINUOUS
10
121.85
20
-85.2
11
121.85
21
-87.4
0
LINE
8
BLACK
6
CONTINUOUS
10
64.7
20
-87.4
11
63.1
21
-87.4
0
LINE
8
BLACK
6
CONTINUOUS
10
63.1
20
-87.4
11
63.1
21
-85.2
0
LINE
8
BLACK
6
CONTINUOUS
10
63.1
20
-85.2
11
64.7
21
-85.2
0
LINE
8
BLACK
6
CONTINUOUS
10
64.7
20
-85.2
11
64.7
21
-87.4
0
LINE
8
BLACK
6
CONTINUOUS
10
159.95
20
-87.4
11
158.35
21
-87.4
0
LINE
8
BLACK
6
CONTINUOUS
10
158.35
20
-87.4
11
158.35
21
-85.2
0
LINE
8
BLACK
6
CONTINUOUS
10
158.35
20
-85.2
11
159.95
21
-85.2
0
LINE
8
BLACK
6
CONTINUOUS
10
159.95
20
-85.2
11
159.95
21
-87.4
0
LINE
8
BLACK
6
CONTINUOUS
10
83.75
20
-87.4
11
82.15
21
-87.4
0
LINE
8
BLACK
6
CONTINUOUS
10
82.15
20
-87.4
11
82.15
21
-85.2
0
LINE
8
BLACK
6
CONTINUOUS
10
82.15
20
-85.2
11
83.75
21
-85.2
0
LINE
8
BLACK
6
CONTINUOUS
10
83.75
20
-85.2
11
83.75
21
-87.4
0
LINE
8
BLACK
6
CONTINUOUS
10
140.9
20
-87.4
11
139.3
21
-87.4
0
LINE
8
BLACK
6
CONTINUOUS
10
139.3
20
-87.4
11
139.3
21
-85.2
0
LINE
8
BLACK
6
CONTINUOUS
10
139.3
20
-85.2
11
140.9
21
-85.2
0
LINE
8
BLACK
6
CONTINUOUS
10
140.9
20
-85.2
11
140.9
21
-87.4
0
LINE
8
BLACK
6
CONTINUOUS
10
50.6812
20
-86.1437
11
49.6812
21
-86.1437
0
LINE
8
BLACK
6
CONTINUOUS
10
49.6812
20
-86.1437
11
49.6812
21
-84.7437
0
LINE
8
BLACK
6
CONTINUOUS
10
49.6812
20
-84.7437
11
50.6812
21
-84.7437
0
LINE
8
BLACK
6
CONTINUOUS
10
50.6812
20
-84.7437
11
50.6812
21
-86.1437
0
LINE
8
BLACK
6
CONTINUOUS
10
222.131
20
-86.1437
11
221.131
21
-86.1437
0
LINE
8
BLACK
6
CONTINUOUS
10
221.131
20
-86.1437
11
221.131
21
-84.7437
0
LINE
8
BLACK
6
CONTINUOUS
10
221.131
20
-84.7437
11
222.131
21
-84.7437
0
LINE
8
BLACK
6
CONTINUOUS
10
222.131
20
-84.7437
11
222.131
21
-86.1437
0
LINE
8
BLACK
6
CONTINUOUS
10
203.081
20
-86.1437
11
202.081
21
-86.1437
0
LINE
8
BLACK
6
CONTINUOUS
10
202.081
20
-86.1437
11
202.081
21
-84.7437
0
LINE
8
BLACK
6
CONTINUOUS
10
202.081
20
-84.7437
11
203.081
21
-84.7437
0
LINE
8
BLACK
6
CONTINUOUS
10
203.081
20
-84.7437
11
203.081
21
-86.1437
0
LINE
8
BLACK
6
CONTINUOUS
10
184.031
20
-86.1437
11
183.031
21
-86.1437
0
LINE
8
BLACK
6
CONTINUOUS
10
183.031
20
-86.1437
11
183.031
21
-84.7437
0
LINE
8
BLACK
6
CONTINUOUS
10
183.031
20
-84.7437
11
184.031
21
-84.7437
0
LINE
8
BLACK
6
CONTINUOUS
10
184.031
20
-84.7437
11
184.031
21
-86.1437
0
LINE
8
BLACK
6
CONTINUOUS
10
164.981
20
-86.1437
11
163.981
21
-86.1437
0
LINE
8
BLACK
6
CONTINUOUS
10
163.981
20
-86.1437
11
163.981
21
-84.7437
0
LINE
8
BLACK
6
CONTINUOUS
10
163.981
20
-84.7437
11
164.981
21
-84.7437
0
LINE
8
BLACK
6
CONTINUOUS
10
164.981
20
-84.7437
11
164.981
21
-86.1437
0
LINE
8
BLACK
6
CONTINUOUS
10
145.931
20
-86.1437
11
144.931
21
-86.1437
0
LINE
8
BLACK
6
CONTINUOUS
10
144.931
20
-86.1437
11
144.931
21
-84.7437
0
LINE
8
BLACK
6
CONTINUOUS
10
144.931
20
-84.7437
11
145.931
21
-84.7437
0
LINE
8
BLACK
6
CONTINUOUS
10
145.931
20
-84.7437
11
145.931
21
-86.1437
0
LINE
8
BLACK
6
CONTINUOUS
10
126.881
20
-86.1437
11
125.881
21
-86.1437
0
LINE
8
BLACK
6
CONTINUOUS
10
125.881
20
-86.1437
11
125.881
21
-84.7437
0
LINE
8
BLACK
6
CONTINUOUS
10
125.881
20
-84.7437
11
126.881
21
-84.7437
0
LINE
8
BLACK
6
CONTINUOUS
10
126.881
20
-84.7437
11
126.881
21
-86.1437
0
LINE
8
BLACK
6
CONTINUOUS
10
107.831
20
-86.1437
11
106.831
21
-86.1437
0
LINE
8
BLACK
6
CONTINUOUS
10
106.831
20
-86.1437
11
106.831
21
-84.7437
0
LINE
8
BLACK
6
CONTINUOUS
10
106.831
20
-84.7437
11
107.831
21
-84.7437
0
LINE
8
BLACK
6
CONTINUOUS
10
107.831
20
-84.7437
11
107.831
21
-86.1437
0
LINE
8
BLACK
6
CONTINUOUS
10
88.7812
20
-86.1437
11
87.7812
21
-86.1437
0
LINE
8
BLACK
6
CONTINUOUS
10
87.7812
20
-86.1437
11
87.7812
21
-84.7437
0
LINE
8
BLACK
6
CONTINUOUS
10
87.7812
20
-84.7437
11
88.7812
21
-84.7437
0
LINE
8
BLACK
6
CONTINUOUS
10
88.7812
20
-84.7437
11
88.7812
21
-86.1437
0
LINE
8
BLACK
6
CONTINUOUS
10
69.7312
20
-86.1437
11
68.7312
21
-86.1437
0
LINE
8
BLACK
6
CONTINUOUS
10
68.7312
20
-86.1437
11
68.7312
21
-84.7437
0
LINE
8
BLACK
6
CONTINUOUS
10
68.7312
20
-84.7437
11
69.7312
21
-84.7437
0
LINE
8
BLACK
6
CONTINUOUS
10
69.7312
20
-84.7437
11
69.7312
21
-86.1437
0
LINE
8
BLACK
6
CONTINUOUS
10
73.15
20
-85.2
11
71.55
21
-85.2
0
LINE
8
BLACK
6
CONTINUOUS
10
71.55
20
-85.2
11
71.55
21
-83
0
LINE
8
BLACK
6
CONTINUOUS
10
71.55
20
-83
11
73.15
21
-83
0
LINE
8
BLACK
6
CONTINUOUS
10
73.15
20
-83
11
73.15
21
-85.2
0
LINE
8
BLACK
6
CONTINUOUS
10
225.55
20
-85.2
11
223.95
21
-85.2
0
LINE
8
BLACK
6
CONTINUOUS
10
223.95
20
-85.2
11
223.95
21
-83
0
LINE
8
BLACK
6
CONTINUOUS
10
223.95
20
-83
11
225.55
21
-83
0
LINE
8
BLACK
6
CONTINUOUS
10
225.55
20
-83
11
225.55
21
-85.2
0
LINE
8
BLACK
6
CONTINUOUS
10
206.5
20
-85.2
11
204.9
21
-85.2
0
LINE
8
BLACK
6
CONTINUOUS
10
204.9
20
-85.2
11
204.9
21
-83
0
LINE
8
BLACK
6
CONTINUOUS
10
204.9
20
-83
11
206.5
21
-83
0
LINE
8
BLACK
6
CONTINUOUS
10
206.5
20
-83
11
206.5
21
-85.2
0
LINE
8
BLACK
6
CONTINUOUS
10
187.45
20
-85.2
11
185.85
21
-85.2
0
LINE
8
BLACK
6
CONTINUOUS
10
185.85
20
-85.2
11
185.85
21
-83
0
LINE
8
BLACK
6
CONTINUOUS
10
185.85
20
-83
11
187.45
21
-83
0
LINE
8
BLACK
6
CONTINUOUS
10
187.45
20
-83
11
187.45
21
-85.2
0
LINE
8
BLACK
6
CONTINUOUS
10
54.1
20
-85.2
11
52.5
21
-85.2
0
LINE
8
BLACK
6
CONTINUOUS
10
52.5
20
-85.2
11
52.5
21
-83
0
LINE
8
BLACK
6
CONTINUOUS
10
52.5
20
-83
11
54.1
21
-83
0
LINE
8
BLACK
6
CONTINUOUS
10
54.1
20
-83
11
54.1
21
-85.2
0
LINE
8
BLACK
6
CONTINUOUS
10
35.05
20
-85.2
11
33.45
21
-85.2
0
LINE
8
BLACK
6
CONTINUOUS
10
33.45
20
-85.2
11
33.45
21
-83
0
LINE
8
BLACK
6
CONTINUOUS
10
33.45
20
-83
11
35.05
21
-83
0
LINE
8
BLACK
6
CONTINUOUS
10
35.05
20
-83
11
35.05
21
-85.2
0
LINE
8
BLACK
6
CONTINUOUS
10
92.2
20
-85.2
11
90.6
21
-85.2
0
LINE
8
BLACK
6
CONTINUOUS
10
90.6
20
-85.2
11
90.6
21
-83
0
LINE
8
BLACK
6
CONTINUOUS
10
90.6
20
-83
11
92.2
21
-83
0
LINE
8
BLACK
6
CONTINUOUS
10
92.2
20
-83
11
92.2
21
-85.2
0
LINE
8
BLACK
6
CONTINUOUS
10
168.4
20
-85.2
11
166.8
21
-85.2
0
LINE
8
BLACK
6
CONTINUOUS
10
166.8
20
-85.2
11
166.8
21
-83
0
LINE
8
BLACK
6
CONTINUOUS
10
166.8
20
-83
11
168.4
21
-83
0
LINE
8
BLACK
6
CONTINUOUS
10
168.4
20
-83
11
168.4
21
-85.2
0
LINE
8
BLACK
6
CONTINUOUS
10
149.35
20
-85.2
11
147.75
21
-85.2
0
LINE
8
BLACK
6
CONTINUOUS
10
147.75
20
-85.2
11
147.75
21
-83
0
LINE
8
BLACK
6
CONTINUOUS
10
147.75
20
-83
11
149.35
21
-83
0
LINE
8
BLACK
6
CONTINUOUS
10
149.35
20
-83
11
149.35
21
-85.2
0
LINE
8
BLACK
6
CONTINUOUS
10
130.3
20
-85.2
11
128.7
21
-85.2
0
LINE
8
BLACK
6
CONTINUOUS
10
128.7
20
-85.2
11
128.7
21
-83
0
LINE
8
BLACK
6
CONTINUOUS
10
128.7
20
-83
11
130.3
21
-83
0
LINE
8
BLACK
6
CONTINUOUS
10
130.3
20
-83
11
130.3
21
-85.2
0
LINE
8
BLACK
6
CONTINUOUS
10
111.25
20
-85.2
11
109.65
21
-85.2
0
LINE
8
BLACK
6
CONTINUOUS
10
109.65
20
-85.2
11
109.65
21
-83
0
LINE
8
BLACK
6
CONTINUOUS
10
109.65
20
-83
11
111.25
21
-83
0
LINE
8
BLACK
6
CONTINUOUS
10
111.25
20
-83
11
111.25
21
-85.2
0
LINE
8
BLACK
6
CONTINUOUS
10
238.8
20
-84.975
11
237.8
21
-84.975
0
LINE
8
BLACK
6
CONTINUOUS
10
237.8
20
-84.975
11
237.8
21
-83.575
0
LINE
8
BLACK
6
CONTINUOUS
10
237.8
20
-83.575
11
238.8
21
-83.575
0
LINE
8
BLACK
6
CONTINUOUS
10
238.8
20
-83.575
11
238.8
21
-84.975
0
LINE
8
BLACK
6
CONTINUOUS
10
164.981
20
-82.5937
11
163.981
21
-82.5937
0
LINE
8
BLACK
6
CONTINUOUS
10
163.981
20
-82.5937
11
163.981
21
-81.1937
0
LINE
8
BLACK
6
CONTINUOUS
10
163.981
20
-81.1937
11
164.981
21
-81.1937
0
LINE
8
BLACK
6
CONTINUOUS
10
164.981
20
-81.1937
11
164.981
21
-82.5937
0
LINE
8
BLACK
6
CONTINUOUS
10
69.7312
20
-82.5937
11
68.7312
21
-82.5937
0
LINE
8
BLACK
6
CONTINUOUS
10
68.7312
20
-82.5937
11
68.7312
21
-81.1937
0
LINE
8
BLACK
6
CONTINUOUS
10
68.7312
20
-81.1937
11
69.7312
21
-81.1937
0
LINE
8
BLACK
6
CONTINUOUS
10
69.7312
20
-81.1937
11
69.7312
21
-82.5937
0
LINE
8
BLACK
6
CONTINUOUS
10
88.7812
20
-82.5937
11
87.7812
21
-82.5937
0
LINE
8
BLACK
6
CONTINUOUS
10
87.7812
20
-82.5937
11
87.7812
21
-81.1937
0
LINE
8
BLACK
6
CONTINUOUS
10
87.7812
20
-81.1937
11
88.7812
21
-81.1937
0
LINE
8
BLACK
6
CONTINUOUS
10
88.7812
20
-81.1937
11
88.7812
21
-82.5937
0
LINE
8
BLACK
6
CONTINUOUS
10
107.831
20
-82.5937
11
106.831
21
-82.5937
0
LINE
8
BLACK
6
CONTINUOUS
10
106.831
20
-82.5937
11
106.831
21
-81.1937
0
LINE
8
BLACK
6
CONTINUOUS
10
106.831
20
-81.1937
11
107.831
21
-81.1937
0
LINE
8
BLACK
6
CONTINUOUS
10
107.831
20
-81.1937
11
107.831
21
-82.5937
0
LINE
8
BLACK
6
CONTINUOUS
10
126.881
20
-82.5937
11
125.881
21
-82.5937
0
LINE
8
BLACK
6
CONTINUOUS
10
125.881
20
-82.5937
11
125.881
21
-81.1937
0
LINE
8
BLACK
6
CONTINUOUS
10
125.881
20
-81.1937
11
126.881
21
-81.1937
0
LINE
8
BLACK
6
CONTINUOUS
10
126.881
20
-81.1937
11
126.881
21
-82.5937
0
LINE
8
BLACK
6
CONTINUOUS
10
145.931
20
-82.5937
11
144.931
21
-82.5937
0
LINE
8
BLACK
6
CONTINUOUS
10
144.931
20
-82.5937
11
144.931
21
-81.1937
0
LINE
8
BLACK
6
CONTINUOUS
10
144.931
20
-81.1937
11
145.931
21
-81.1937
0
LINE
8
BLACK
6
CONTINUOUS
10
145.931
20
-81.1937
11
145.931
21
-82.5937
0
LINE
8
BLACK
6
CONTINUOUS
10
184.031
20
-82.5937
11
183.031
21
-82.5937
0
LINE
8
BLACK
6
CONTINUOUS
10
183.031
20
-82.5937
11
183.031
21
-81.1937
0
LINE
8
BLACK
6
CONTINUOUS
10
183.031
20
-81.1937
11
184.031
21
-81.1937
0
LINE
8
BLACK
6
CONTINUOUS
10
184.031
20
-81.1937
11
184.031
21
-82.5937
0
LINE
8
BLACK
6
CONTINUOUS
10
203.081
20
-82.5937
11
202.081
21
-82.5937
0
LINE
8
BLACK
6
CONTINUOUS
10
202.081
20
-82.5937
11
202.081
21
-81.1937
0
LINE
8
BLACK
6
CONTINUOUS
10
202.081
20
-81.1937
11
203.081
21
-81.1937
0
LINE
8
BLACK
6
CONTINUOUS
10
203.081
20
-81.1937
11
203.081
21
-82.5937
0
LINE
8
BLACK
6
CONTINUOUS
10
222.131
20
-82.5937
11
221.131
21
-82.5937
0
LINE
8
BLACK
6
CONTINUOUS
10
221.131
20
-82.5937
11
221.131
21
-81.1937
0
LINE
8
BLACK
6
CONTINUOUS
10
221.131
20
-81.1937
11
222.131
21
-81.1937
0
LINE
8
BLACK
6
CONTINUOUS
10
222.131
20
-81.1937
11
222.131
21
-82.5937
0
LINE
8
BLACK
6
CONTINUOUS
10
50.6812
20
-82.5937
11
49.6812
21
-82.5937
0
LINE
8
BLACK
6
CONTINUOUS
10
49.6812
20
-82.5937
11
49.6812
21
-81.1937
0
LINE
8
BLACK
6
CONTINUOUS
10
49.6812
20
-81.1937
11
50.6812
21
-81.1937
0
LINE
8
BLACK
6
CONTINUOUS
10
50.6812
20
-81.1937
11
50.6812
21
-82.5937
0
LINE
8
BLACK
6
CONTINUOUS
10
116.65
20
-76.275
11
115.05
21
-76.275
0
LINE
8
BLACK
6
CONTINUOUS
10
115.05
20
-76.275
11
115.05
21
-75.275
0
LINE
8
BLACK
6
CONTINUOUS
10
115.05
20
-75.275
11
116.65
21
-75.275
0
LINE
8
BLACK
6
CONTINUOUS
10
116.65
20
-75.275
11
116.65
21
-76.275
0
LINE
8
BLACK
6
CONTINUOUS
10
140.5
20
-76.275
11
138.9
21
-76.275
0
LINE
8
BLACK
6
CONTINUOUS
10
138.9
20
-76.275
11
138.9
21
-75.275
0
LINE
8
BLACK
6
CONTINUOUS
10
138.9
20
-75.275
11
140.5
21
-75.275
0
LINE
8
BLACK
6
CONTINUOUS
10
140.5
20
-75.275
11
140.5
21
-76.275
0
LINE
8
BLACK
6
CONTINUOUS
10
135.7
20
-76.275
11
134.1
21
-76.275
0
LINE
8
BLACK
6
CONTINUOUS
10
134.1
20
-76.275
11
134.1
21
-75.275
0
LINE
8
BLACK
6
CONTINUOUS
10
134.1
20
-75.275
11
135.7
21
-75.275
0
LINE
8
BLACK
6
CONTINUOUS
10
135.7
20
-75.275
11
135.7
21
-76.275
0
LINE
8
BLACK
6
CONTINUOUS
10
173.8
20
-76.275
11
172.2
21
-76.275
0
LINE
8
BLACK
6
CONTINUOUS
10
172.2
20
-76.275
11
172.2
21
-75.275
0
LINE
8
BLACK
6
CONTINUOUS
10
172.2
20
-75.275
11
173.8
21
-75.275
0
LINE
8
BLACK
6
CONTINUOUS
10
173.8
20
-75.275
11
173.8
21
-76.275
0
LINE
8
BLACK
6
CONTINUOUS
10
154.75
20
-76.275
11
153.15
21
-76.275
0
LINE
8
BLACK
6
CONTINUOUS
10
153.15
20
-76.275
11
153.15
21
-75.275
0
LINE
8
BLACK
6
CONTINUOUS
10
153.15
20
-75.275
11
154.75
21
-75.275
0
LINE
8
BLACK
6
CONTINUOUS
10
154.75
20
-75.275
11
154.75
21
-76.275
0
LINE
8
BLACK
6
CONTINUOUS
10
159.55
20
-76.275
11
157.95
21
-76.275
0
LINE
8
BLACK
6
CONTINUOUS
10
157.95
20
-76.275
11
157.95
21
-75.275
0
LINE
8
BLACK
6
CONTINUOUS
10
157.95
20
-75.275
11
159.55
21
-75.275
0
LINE
8
BLACK
6
CONTINUOUS
10
159.55
20
-75.275
11
159.55
21
-76.275
0
LINE
8
BLACK
6
CONTINUOUS
10
178.6
20
-76.275
11
177
21
-76.275
0
LINE
8
BLACK
6
CONTINUOUS
10
177
20
-76.275
11
177
21
-75.275
0
LINE
8
BLACK
6
CONTINUOUS
10
177
20
-75.275
11
178.6
21
-75.275
0
LINE
8
BLACK
6
CONTINUOUS
10
178.6
20
-75.275
11
178.6
21
-76.275
0
LINE
8
BLACK
6
CONTINUOUS
10
45.25
20
-76.275
11
43.65
21
-76.275
0
LINE
8
BLACK
6
CONTINUOUS
10
43.65
20
-76.275
11
43.65
21
-75.275
0
LINE
8
BLACK
6
CONTINUOUS
10
43.65
20
-75.275
11
45.25
21
-75.275
0
LINE
8
BLACK
6
CONTINUOUS
10
45.25
20
-75.275
11
45.25
21
-76.275
0
LINE
8
BLACK
6
CONTINUOUS
10
121.45
20
-76.275
11
119.85
21
-76.275
0
LINE
8
BLACK
6
CONTINUOUS
10
119.85
20
-76.275
11
119.85
21
-75.275
0
LINE
8
BLACK
6
CONTINUOUS
10
119.85
20
-75.275
11
121.45
21
-75.275
0
LINE
8
BLACK
6
CONTINUOUS
10
121.45
20
-75.275
11
121.45
21
-76.275
0
LINE
8
BLACK
6
CONTINUOUS
10
59.5
20
-76.275
11
57.9
21
-76.275
0
LINE
8
BLACK
6
CONTINUOUS
10
57.9
20
-76.275
11
57.9
21
-75.275
0
LINE
8
BLACK
6
CONTINUOUS
10
57.9
20
-75.275
11
59.5
21
-75.275
0
LINE
8
BLACK
6
CONTINUOUS
10
59.5
20
-75.275
11
59.5
21
-76.275
0
LINE
8
BLACK
6
CONTINUOUS
10
64.3
20
-76.275
11
62.7
21
-76.275
0
LINE
8
BLACK
6
CONTINUOUS
10
62.7
20
-76.275
11
62.7
21
-75.275
0
LINE
8
BLACK
6
CONTINUOUS
10
62.7
20
-75.275
11
64.3
21
-75.275
0
LINE
8
BLACK
6
CONTINUOUS
10
64.3
20
-75.275
11
64.3
21
-76.275
0
LINE
8
BLACK
6
CONTINUOUS
10
102.4
20
-76.275
11
100.8
21
-76.275
0
LINE
8
BLACK
6
CONTINUOUS
10
100.8
20
-76.275
11
100.8
21
-75.275
0
LINE
8
BLACK
6
CONTINUOUS
10
100.8
20
-75.275
11
102.4
21
-75.275
0
LINE
8
BLACK
6
CONTINUOUS
10
102.4
20
-75.275
11
102.4
21
-76.275
0
LINE
8
BLACK
6
CONTINUOUS
10
83.35
20
-76.275
11
81.75
21
-76.275
0
LINE
8
BLACK
6
CONTINUOUS
10
81.75
20
-76.275
11
81.75
21
-75.275
0
LINE
8
BLACK
6
CONTINUOUS
10
81.75
20
-75.275
11
83.35
21
-75.275
0
LINE
8
BLACK
6
CONTINUOUS
10
83.35
20
-75.275
11
83.35
21
-76.275
0
LINE
8
BLACK
6
CONTINUOUS
10
78.55
20
-76.275
11
76.95
21
-76.275
0
LINE
8
BLACK
6
CONTINUOUS
10
76.95
20
-76.275
11
76.95
21
-75.275
0
LINE
8
BLACK
6
CONTINUOUS
10
76.95
20
-75.275
11
78.55
21
-75.275
0
LINE
8
BLACK
6
CONTINUOUS
10
78.55
20
-75.275
11
78.55
21
-76.275
0
LINE
8
BLACK
6
CONTINUOUS
10
97.6
20
-76.275
11
96
21
-76.275
0
LINE
8
BLACK
6
CONTINUOUS
10
96
20
-76.275
11
96
21
-75.275
0
LINE
8
BLACK
6
CONTINUOUS
10
96
20
-75.275
11
97.6
21
-75.275
0
LINE
8
BLACK
6
CONTINUOUS
10
97.6
20
-75.275
11
97.6
21
-76.275
0
LINE
8
BLACK
6
CONTINUOUS
10
40.45
20
-76.275
11
38.85
21
-76.275
0
LINE
8
BLACK
6
CONTINUOUS
10
38.85
20
-76.275
11
38.85
21
-75.275
0
LINE
8
BLACK
6
CONTINUOUS
10
38.85
20
-75.275
11
40.45
21
-75.275
0
LINE
8
BLACK
6
CONTINUOUS
10
40.45
20
-75.275
11
40.45
21
-76.275
0
LINE
8
BLACK
6
CONTINUOUS
10
192.85
20
-76.275
11
191.25
21
-76.275
0
LINE
8
BLACK
6
CONTINUOUS
10
191.25
20
-76.275
11
191.25
21
-75.275
0
LINE
8
BLACK
6
CONTINUOUS
10
191.25
20
-75.275
11
192.85
21
-75.275
0
LINE
8
BLACK
6
CONTINUOUS
10
192.85
20
-75.275
11
192.85
21
-76.275
0
LINE
8
BLACK
6
CONTINUOUS
10
211.9
20
-76.275
11
210.3
21
-76.275
0
LINE
8
BLACK
6
CONTINUOUS
10
210.3
20
-76.275
11
210.3
21
-75.275
0
LINE
8
BLACK
6
CONTINUOUS
10
210.3
20
-75.275
11
211.9
21
-75.275
0
LINE
8
BLACK
6
CONTINUOUS
10
211.9
20
-75.275
11
211.9
21
-76.275
0
LINE
8
BLACK
6
CONTINUOUS
10
235.75
20
-76.275
11
234.15
21
-76.275
0
LINE
8
BLACK
6
CONTINUOUS
10
234.15
20
-76.275
11
234.15
21
-75.275
0
LINE
8
BLACK
6
CONTINUOUS
10
234.15
20
-75.275
11
235.75
21
-75.275
0
LINE
8
BLACK
6
CONTINUOUS
10
235.75
20
-75.275
11
235.75
21
-76.275
0
LINE
8
BLACK
6
CONTINUOUS
10
216.7
20
-76.275
11
215.1
21
-76.275
0
LINE
8
BLACK
6
CONTINUOUS
10
215.1
20
-76.275
11
215.1
21
-75.275
0
LINE
8
BLACK
6
CONTINUOUS
10
215.1
20
-75.275
11
216.7
21
-75.275
0
LINE
8
BLACK
6
CONTINUOUS
10
216.7
20
-75.275
11
216.7
21
-76.275
0
LINE
8
BLACK
6
CONTINUOUS
10
197.65
20
-76.275
11
196.05
21
-76.275
0
LINE
8
BLACK
6
CONTINUOUS
10
196.05
20
-76.275
11
196.05
21
-75.275
0
LINE
8
BLACK
6
CONTINUOUS
10
196.05
20
-75.275
11
197.65
21
-75.275
0
LINE
8
BLACK
6
CONTINUOUS
10
197.65
20
-75.275
11
197.65
21
-76.275
0
LINE
8
BLACK
6
CONTINUOUS
10
230.95
20
-76.275
11
229.35
21
-76.275
0
LINE
8
BLACK
6
CONTINUOUS
10
229.35
20
-76.275
11
229.35
21
-75.275
0
LINE
8
BLACK
6
CONTINUOUS
10
229.35
20
-75.275
11
230.95
21
-75.275
0
LINE
8
BLACK
6
CONTINUOUS
10
230.95
20
-75.275
11
230.95
21
-76.275
0
LINE
8
BLACK
6
CONTINUOUS
10
216.7
20
-74.525
11
215.1
21
-74.525
0
LINE
8
BLACK
6
CONTINUOUS
10
215.1
20
-74.525
11
215.1
21
-73.525
0
LINE
8
BLACK
6
CONTINUOUS
10
215.1
20
-73.525
11
216.7
21
-73.525
0
LINE
8
BLACK
6
CONTINUOUS
10
216.7
20
-73.525
11
216.7
21
-74.525
0
LINE
8
BLACK
6
CONTINUOUS
10
45.25
20
-74.525
11
43.65
21
-74.525
0
LINE
8
BLACK
6
CONTINUOUS
10
43.65
20
-74.525
11
43.65
21
-73.525
0
LINE
8
BLACK
6
CONTINUOUS
10
43.65
20
-73.525
11
45.25
21
-73.525
0
LINE
8
BLACK
6
CONTINUOUS
10
45.25
20
-73.525
11
45.25
21
-74.525
0
LINE
8
BLACK
6
CONTINUOUS
10
40.45
20
-74.525
11
38.85
21
-74.525
0
LINE
8
BLACK
6
CONTINUOUS
10
38.85
20
-74.525
11
38.85
21
-73.525
0
LINE
8
BLACK
6
CONTINUOUS
10
38.85
20
-73.525
11
40.45
21
-73.525
0
LINE
8
BLACK
6
CONTINUOUS
10
40.45
20
-73.525
11
40.45
21
-74.525
0
LINE
8
BLACK
6
CONTINUOUS
10
83.35
20
-74.525
11
81.75
21
-74.525
0
LINE
8
BLACK
6
CONTINUOUS
10
81.75
20
-74.525
11
81.75
21
-73.525
0
LINE
8
BLACK
6
CONTINUOUS
10
81.75
20
-73.525
11
83.35
21
-73.525
0
LINE
8
BLACK
6
CONTINUOUS
10
83.35
20
-73.525
11
83.35
21
-74.525
0
LINE
8
BLACK
6
CONTINUOUS
10
102.4
20
-74.525
11
100.8
21
-74.525
0
LINE
8
BLACK
6
CONTINUOUS
10
100.8
20
-74.525
11
100.8
21
-73.525
0
LINE
8
BLACK
6
CONTINUOUS
10
100.8
20
-73.525
11
102.4
21
-73.525
0
LINE
8
BLACK
6
CONTINUOUS
10
102.4
20
-73.525
11
102.4
21
-74.525
0
LINE
8
BLACK
6
CONTINUOUS
10
235.75
20
-74.525
11
234.15
21
-74.525
0
LINE
8
BLACK
6
CONTINUOUS
10
234.15
20
-74.525
11
234.15
21
-73.525
0
LINE
8
BLACK
6
CONTINUOUS
10
234.15
20
-73.525
11
235.75
21
-73.525
0
LINE
8
BLACK
6
CONTINUOUS
10
235.75
20
-73.525
11
235.75
21
-74.525
0
LINE
8
BLACK
6
CONTINUOUS
10
121.45
20
-74.525
11
119.85
21
-74.525
0
LINE
8
BLACK
6
CONTINUOUS
10
119.85
20
-74.525
11
119.85
21
-73.525
0
LINE
8
BLACK
6
CONTINUOUS
10
119.85
20
-73.525
11
121.45
21
-73.525
0
LINE
8
BLACK
6
CONTINUOUS
10
121.45
20
-73.525
11
121.45
21
-74.525
0
LINE
8
BLACK
6
CONTINUOUS
10
230.95
20
-74.525
11
229.35
21
-74.525
0
LINE
8
BLACK
6
CONTINUOUS
10
229.35
20
-74.525
11
229.35
21
-73.525
0
LINE
8
BLACK
6
CONTINUOUS
10
229.35
20
-73.525
11
230.95
21
-73.525
0
LINE
8
BLACK
6
CONTINUOUS
10
230.95
20
-73.525
11
230.95
21
-74.525
0
LINE
8
BLACK
6
CONTINUOUS
10
116.65
20
-74.525
11
115.05
21
-74.525
0
LINE
8
BLACK
6
CONTINUOUS
10
115.05
20
-74.525
11
115.05
21
-73.525
0
LINE
8
BLACK
6
CONTINUOUS
10
115.05
20
-73.525
11
116.65
21
-73.525
0
LINE
8
BLACK
6
CONTINUOUS
10
116.65
20
-73.525
11
116.65
21
-74.525
0
LINE
8
BLACK
6
CONTINUOUS
10
135.7
20
-74.525
11
134.1
21
-74.525
0
LINE
8
BLACK
6
CONTINUOUS
10
134.1
20
-74.525
11
134.1
21
-73.525
0
LINE
8
BLACK
6
CONTINUOUS
10
134.1
20
-73.525
11
135.7
21
-73.525
0
LINE
8
BLACK
6
CONTINUOUS
10
135.7
20
-73.525
11
135.7
21
-74.525
0
LINE
8
BLACK
6
CONTINUOUS
10
140.5
20
-74.525
11
138.9
21
-74.525
0
LINE
8
BLACK
6
CONTINUOUS
10
138.9
20
-74.525
11
138.9
21
-73.525
0
LINE
8
BLACK
6
CONTINUOUS
10
138.9
20
-73.525
11
140.5
21
-73.525
0
LINE
8
BLACK
6
CONTINUOUS
10
140.5
20
-73.525
11
140.5
21
-74.525
0
LINE
8
BLACK
6
CONTINUOUS
10
154.75
20
-74.525
11
153.15
21
-74.525
0
LINE
8
BLACK
6
CONTINUOUS
10
153.15
20
-74.525
11
153.15
21
-73.525
0
LINE
8
BLACK
6
CONTINUOUS
10
153.15
20
-73.525
11
154.75
21
-73.525
0
LINE
8
BLACK
6
CONTINUOUS
10
154.75
20
-73.525
11
154.75
21
-74.525
0
LINE
8
BLACK
6
CONTINUOUS
10
211.9
20
-74.525
11
210.3
21
-74.525
0
LINE
8
BLACK
6
CONTINUOUS
10
210.3
20
-74.525
11
210.3
21
-73.525
0
LINE
8
BLACK
6
CONTINUOUS
10
210.3
20
-73.525
11
211.9
21
-73.525
0
LINE
8
BLACK
6
CONTINUOUS
10
211.9
20
-73.525
11
211.9
21
-74.525
0
LINE
8
BLACK
6
CONTINUOUS
10
159.55
20
-74.525
11
157.95
21
-74.525
0
LINE
8
BLACK
6
CONTINUOUS
10
157.95
20
-74.525
11
157.95
21
-73.525
0
LINE
8
BLACK
6
CONTINUOUS
10
157.95
20
-73.525
11
159.55
21
-73.525
0
LINE
8
BLACK
6
CONTINUOUS
10
159.55
20
-73.525
11
159.55
21
-74.525
0
LINE
8
BLACK
6
CONTINUOUS
10
178.6
20
-74.525
11
177
21
-74.525
0
LINE
8
BLACK
6
CONTINUOUS
10
177
20
-74.525
11
177
21
-73.525
0
LINE
8
BLACK
6
CONTINUOUS
10
177
20
-73.525
11
178.6
21
-73.525
0
LINE
8
BLACK
6
CONTINUOUS
10
178.6
20
-73.525
11
178.6
21
-74.525
0
LINE
8
BLACK
6
CONTINUOUS
10
192.85
20
-74.525
11
191.25
21
-74.525
0
LINE
8
BLACK
6
CONTINUOUS
10
191.25
20
-74.525
11
191.25
21
-73.525
0
LINE
8
BLACK
6
CONTINUOUS
10
191.25
20
-73.525
11
192.85
21
-73.525
0
LINE
8
BLACK
6
CONTINUOUS
10
192.85
20
-73.525
11
192.85
21
-74.525
0
LINE
8
BLACK
6
CONTINUOUS
10
173.8
20
-74.525
11
172.2
21
-74.525
0
LINE
8
BLACK
6
CONTINUOUS
10
172.2
20
-74.525
11
172.2
21
-73.525
0
LINE
8
BLACK
6
CONTINUOUS
10
172.2
20
-73.525
11
173.8
21
-73.525
0
LINE
8
BLACK
6
CONTINUOUS
10
173.8
20
-73.525
11
173.8
21
-74.525
0
LINE
8
BLACK
6
CONTINUOUS
10
197.65
20
-74.525
11
196.05
21
-74.525
0
LINE
8
BLACK
6
CONTINUOUS
10
196.05
20
-74.525
11
196.05
21
-73.525
0
LINE
8
BLACK
6
CONTINUOUS
10
196.05
20
-73.525
11
197.65
21
-73.525
0
LINE
8
BLACK
6
CONTINUOUS
10
197.65
20
-73.525
11
197.65
21
-74.525
0
LINE
8
BLACK
6
CONTINUOUS
10
78.55
20
-74.525
11
76.95
21
-74.525
0
LINE
8
BLACK
6
CONTINUOUS
10
76.95
20
-74.525
11
76.95
21
-73.525
0
LINE
8
BLACK
6
CONTINUOUS
10
76.95
20
-73.525
11
78.55
21
-73.525
0
LINE
8
BLACK
6
CONTINUOUS
10
78.55
20
-73.525
11
78.55
21
-74.525
0
LINE
8
BLACK
6
CONTINUOUS
10
64.3
20
-74.525
11
62.7
21
-74.525
0
LINE
8
BLACK
6
CONTINUOUS
10
62.7
20
-74.525
11
62.7
21
-73.525
0
LINE
8
BLACK
6
CONTINUOUS
10
62.7
20
-73.525
11
64.3
21
-73.525
0
LINE
8
BLACK
6
CONTINUOUS
10
64.3
20
-73.525
11
64.3
21
-74.525
0
LINE
8
BLACK
6
CONTINUOUS
10
59.5
20
-74.525
11
57.9
21
-74.525
0
LINE
8
BLACK
6
CONTINUOUS
10
57.9
20
-74.525
11
57.9
21
-73.525
0
LINE
8
BLACK
6
CONTINUOUS
10
57.9
20
-73.525
11
59.5
21
-73.525
0
LINE
8
BLACK
6
CONTINUOUS
10
59.5
20
-73.525
11
59.5
21
-74.525
0
LINE
8
BLACK
6
CONTINUOUS
10
97.6
20
-74.525
11
96
21
-74.525
0
LINE
8
BLACK
6
CONTINUOUS
10
96
20
-74.525
11
96
21
-73.525
0
LINE
8
BLACK
6
CONTINUOUS
10
96
20
-73.525
11
97.6
21
-73.525
0
LINE
8
BLACK
6
CONTINUOUS
10
97.6
20
-73.525
11
97.6
21
-74.525
0
LINE
8
BLACK
6
CONTINUOUS
10
238.8
20
-69.475
11
237.8
21
-69.475
0
LINE
8
BLACK
6
CONTINUOUS
10
237.8
20
-69.475
11
237.8
21
-68.075
0
LINE
8
BLACK
6
CONTINUOUS
10
237.8
20
-68.075
11
238.8
21
-68.075
0
LINE
8
BLACK
6
CONTINUOUS
10
238.8
20
-68.075
11
238.8
21
-69.475
0
LINE
8
BLACK
6
CONTINUOUS
10
236.15
20
-68.35
11
234.55
21
-68.35
0
LINE
8
BLACK
6
CONTINUOUS
10
234.55
20
-68.35
11
234.55
21
-66.15
0
LINE
8
BLACK
6
CONTINUOUS
10
234.55
20
-66.15
11
236.15
21
-66.15
0
LINE
8
BLACK
6
CONTINUOUS
10
236.15
20
-66.15
11
236.15
21
-68.35
0
LINE
8
BLACK
6
CONTINUOUS
10
217.1
20
-68.35
11
215.5
21
-68.35
0
LINE
8
BLACK
6
CONTINUOUS
10
215.5
20
-68.35
11
215.5
21
-66.15
0
LINE
8
BLACK
6
CONTINUOUS
10
215.5
20
-66.15
11
217.1
21
-66.15
0
LINE
8
BLACK
6
CONTINUOUS
10
217.1
20
-66.15
11
217.1
21
-68.35
0
LINE
8
BLACK
6
CONTINUOUS
10
198.05
20
-68.35
11
196.45
21
-68.35
0
LINE
8
BLACK
6
CONTINUOUS
10
196.45
20
-68.35
11
196.45
21
-66.15
0
LINE
8
BLACK
6
CONTINUOUS
10
196.45
20
-66.15
11
198.05
21
-66.15
0
LINE
8
BLACK
6
CONTINUOUS
10
198.05
20
-66.15
11
198.05
21
-68.35
0
LINE
8
BLACK
6
CONTINUOUS
10
179
20
-68.35
11
177.4
21
-68.35
0
LINE
8
BLACK
6
CONTINUOUS
10
177.4
20
-68.35
11
177.4
21
-66.15
0
LINE
8
BLACK
6
CONTINUOUS
10
177.4
20
-66.15
11
179
21
-66.15
0
LINE
8
BLACK
6
CONTINUOUS
10
179
20
-66.15
11
179
21
-68.35
0
LINE
8
BLACK
6
CONTINUOUS
10
159.95
20
-68.35
11
158.35
21
-68.35
0
LINE
8
BLACK
6
CONTINUOUS
10
158.35
20
-68.35
11
158.35
21
-66.15
0
LINE
8
BLACK
6
CONTINUOUS
10
158.35
20
-66.15
11
159.95
21
-66.15
0
LINE
8
BLACK
6
CONTINUOUS
10
159.95
20
-66.15
11
159.95
21
-68.35
0
LINE
8
BLACK
6
CONTINUOUS
10
140.9
20
-68.35
11
139.3
21
-68.35
0
LINE
8
BLACK
6
CONTINUOUS
10
139.3
20
-68.35
11
139.3
21
-66.15
0
LINE
8
BLACK
6
CONTINUOUS
10
139.3
20
-66.15
11
140.9
21
-66.15
0
LINE
8
BLACK
6
CONTINUOUS
10
140.9
20
-66.15
11
140.9
21
-68.35
0
LINE
8
BLACK
6
CONTINUOUS
10
121.85
20
-68.35
11
120.25
21
-68.35
0
LINE
8
BLACK
6
CONTINUOUS
10
120.25
20
-68.35
11
120.25
21
-66.15
0
LINE
8
BLACK
6
CONTINUOUS
10
120.25
20
-66.15
11
121.85
21
-66.15
0
LINE
8
BLACK
6
CONTINUOUS
10
121.85
20
-66.15
11
121.85
21
-68.35
0
LINE
8
BLACK
6
CONTINUOUS
10
102.8
20
-68.35
11
101.2
21
-68.35
0
LINE
8
BLACK
6
CONTINUOUS
10
101.2
20
-68.35
11
101.2
21
-66.15
0
LINE
8
BLACK
6
CONTINUOUS
10
101.2
20
-66.15
11
102.8
21
-66.15
0
LINE
8
BLACK
6
CONTINUOUS
10
102.8
20
-66.15
11
102.8
21
-68.35
0
LINE
8
BLACK
6
CONTINUOUS
10
83.75
20
-68.35
11
82.15
21
-68.35
0
LINE
8
BLACK
6
CONTINUOUS
10
82.15
20
-68.35
11
82.15
21
-66.15
0
LINE
8
BLACK
6
CONTINUOUS
10
82.15
20
-66.15
11
83.75
21
-66.15
0
LINE
8
BLACK
6
CONTINUOUS
10
83.75
20
-66.15
11
83.75
21
-68.35
0
LINE
8
BLACK
6
CONTINUOUS
10
64.7
20
-68.35
11
63.1
21
-68.35
0
LINE
8
BLACK
6
CONTINUOUS
10
63.1
20
-68.35
11
63.1
21
-66.15
0
LINE
8
BLACK
6
CONTINUOUS
10
63.1
20
-66.15
11
64.7
21
-66.15
0
LINE
8
BLACK
6
CONTINUOUS
10
64.7
20
-66.15
11
64.7
21
-68.35
0
LINE
8
BLACK
6
CONTINUOUS
10
145.931
20
-67.0937
11
144.931
21
-67.0937
0
LINE
8
BLACK
6
CONTINUOUS
10
144.931
20
-67.0937
11
144.931
21
-65.6937
0
LINE
8
BLACK
6
CONTINUOUS
10
144.931
20
-65.6937
11
145.931
21
-65.6937
0
LINE
8
BLACK
6
CONTINUOUS
10
145.931
20
-65.6937
11
145.931
21
-67.0937
0
LINE
8
BLACK
6
CONTINUOUS
10
164.981
20
-67.0937
11
163.981
21
-67.0937
0
LINE
8
BLACK
6
CONTINUOUS
10
163.981
20
-67.0937
11
163.981
21
-65.6937
0
LINE
8
BLACK
6
CONTINUOUS
10
163.981
20
-65.6937
11
164.981
21
-65.6937
0
LINE
8
BLACK
6
CONTINUOUS
10
164.981
20
-65.6937
11
164.981
21
-67.0937
0
LINE
8
BLACK
6
CONTINUOUS
10
126.881
20
-67.0937
11
125.881
21
-67.0937
0
LINE
8
BLACK
6
CONTINUOUS
10
125.881
20
-67.0937
11
125.881
21
-65.6937
0
LINE
8
BLACK
6
CONTINUOUS
10
125.881
20
-65.6937
11
126.881
21
-65.6937
0
LINE
8
BLACK
6
CONTINUOUS
10
126.881
20
-65.6937
11
126.881
21
-67.0937
0
LINE
8
BLACK
6
CONTINUOUS
10
184.031
20
-67.0937
11
183.031
21
-67.0937
0
LINE
8
BLACK
6
CONTINUOUS
10
183.031
20
-67.0937
11
183.031
21
-65.6937
0
LINE
8
BLACK
6
CONTINUOUS
10
183.031
20
-65.6937
11
184.031
21
-65.6937
0
LINE
8
BLACK
6
CONTINUOUS
10
184.031
20
-65.6937
11
184.031
21
-67.0937
0
LINE
8
BLACK
6
CONTINUOUS
10
203.081
20
-67.0937
11
202.081
21
-67.0937
0
LINE
8
BLACK
6
CONTINUOUS
10
202.081
20
-67.0937
11
202.081
21
-65.6937
0
LINE
8
BLACK
6
CONTINUOUS
10
202.081
20
-65.6937
11
203.081
21
-65.6937
0
LINE
8
BLACK
6
CONTINUOUS
10
203.081
20
-65.6937
11
203.081
21
-67.0937
0
LINE
8
BLACK
6
CONTINUOUS
10
222.131
20
-67.0937
11
221.131
21
-67.0937
0
LINE
8
BLACK
6
CONTINUOUS
10
221.131
20
-67.0937
11
221.131
21
-65.6937
0
LINE
8
BLACK
6
CONTINUOUS
10
221.131
20
-65.6937
11
222.131
21
-65.6937
0
LINE
8
BLACK
6
CONTINUOUS
10
222.131
20
-65.6937
11
222.131
21
-67.0937
0
LINE
8
BLACK
6
CONTINUOUS
10
107.831
20
-67.0937
11
106.831
21
-67.0937
0
LINE
8
BLACK
6
CONTINUOUS
10
106.831
20
-67.0937
11
106.831
21
-65.6937
0
LINE
8
BLACK
6
CONTINUOUS
10
106.831
20
-65.6937
11
107.831
21
-65.6937
0
LINE
8
BLACK
6
CONTINUOUS
10
107.831
20
-65.6937
11
107.831
21
-67.0937
0
LINE
8
BLACK
6
CONTINUOUS
10
88.7812
20
-67.0937
11
87.7812
21
-67.0937
0
LINE
8
BLACK
6
CONTINUOUS
10
87.7812
20
-67.0937
11
87.7812
21
-65.6937
0
LINE
8
BLACK
6
CONTINUOUS
10
87.7812
20
-65.6937
11
88.7812
21
-65.6937
0
LINE
8
BLACK
6
CONTINUOUS
10
88.7812
20
-65.6937
11
88.7812
21
-67.0937
0
LINE
8
BLACK
6
CONTINUOUS
10
69.7312
20
-67.0937
11
68.7312
21
-67.0937
0
LINE
8
BLACK
6
CONTINUOUS
10
68.7312
20
-67.0937
11
68.7312
21
-65.6937
0
LINE
8
BLACK
6
CONTINUOUS
10
68.7312
20
-65.6937
11
69.7312
21
-65.6937
0
LINE
8
BLACK
6
CONTINUOUS
10
69.7312
20
-65.6937
11
69.7312
21
-67.0937
0
LINE
8
BLACK
6
CONTINUOUS
10
206.5
20
-66.15
11
204.9
21
-66.15
0
LINE
8
BLACK
6
CONTINUOUS
10
204.9
20
-66.15
11
204.9
21
-63.95
0
LINE
8
BLACK
6
CONTINUOUS
10
204.9
20
-63.95
11
206.5
21
-63.95
0
LINE
8
BLACK
6
CONTINUOUS
10
206.5
20
-63.95
11
206.5
21
-66.15
0
LINE
8
BLACK
6
CONTINUOUS
10
225.55
20
-66.15
11
223.95
21
-66.15
0
LINE
8
BLACK
6
CONTINUOUS
10
223.95
20
-66.15
11
223.95
21
-63.95
0
LINE
8
BLACK
6
CONTINUOUS
10
223.95
20
-63.95
11
225.55
21
-63.95
0
LINE
8
BLACK
6
CONTINUOUS
10
225.55
20
-63.95
11
225.55
21
-66.15
0
LINE
8
BLACK
6
CONTINUOUS
10
187.45
20
-66.15
11
185.85
21
-66.15
0
LINE
8
BLACK
6
CONTINUOUS
10
185.85
20
-66.15
11
185.85
21
-63.95
0
LINE
8
BLACK
6
CONTINUOUS
10
185.85
20
-63.95
11
187.45
21
-63.95
0
LINE
8
BLACK
6
CONTINUOUS
10
187.45
20
-63.95
11
187.45
21
-66.15
0
LINE
8
BLACK
6
CONTINUOUS
10
168.4
20
-66.15
11
166.8
21
-66.15
0
LINE
8
BLACK
6
CONTINUOUS
10
166.8
20
-66.15
11
166.8
21
-63.95
0
LINE
8
BLACK
6
CONTINUOUS
10
166.8
20
-63.95
11
168.4
21
-63.95
0
LINE
8
BLACK
6
CONTINUOUS
10
168.4
20
-63.95
11
168.4
21
-66.15
0
LINE
8
BLACK
6
CONTINUOUS
10
54.1
20
-66.15
11
52.5
21
-66.15
0
LINE
8
BLACK
6
CONTINUOUS
10
52.5
20
-66.15
11
52.5
21
-63.95
0
LINE
8
BLACK
6
CONTINUOUS
10
52.5
20
-63.95
11
54.1
21
-63.95
0
LINE
8
BLACK
6
CONTINUOUS
10
54.1
20
-63.95
11
54.1
21
-66.15
0
LINE
8
BLACK
6
CONTINUOUS
10
149.35
20
-66.15
11
147.75
21
-66.15
0
LINE
8
BLACK
6
CONTINUOUS
10
147.75
20
-66.15
11
147.75
21
-63.95
0
LINE
8
BLACK
6
CONTINUOUS
10
147.75
20
-63.95
11
149.35
21
-63.95
0
LINE
8
BLACK
6
CONTINUOUS
10
149.35
20
-63.95
11
149.35
21
-66.15
0
LINE
8
BLACK
6
CONTINUOUS
10
130.3
20
-66.15
11
128.7
21
-66.15
0
LINE
8
BLACK
6
CONTINUOUS
10
128.7
20
-66.15
11
128.7
21
-63.95
0
LINE
8
BLACK
6
CONTINUOUS
10
128.7
20
-63.95
11
130.3
21
-63.95
0
LINE
8
BLACK
6
CONTINUOUS
10
130.3
20
-63.95
11
130.3
21
-66.15
0
LINE
8
BLACK
6
CONTINUOUS
10
73.15
20
-66.15
11
71.55
21
-66.15
0
LINE
8
BLACK
6
CONTINUOUS
10
71.55
20
-66.15
11
71.55
21
-63.95
0
LINE
8
BLACK
6
CONTINUOUS
10
71.55
20
-63.95
11
73.15
21
-63.95
0
LINE
8
BLACK
6
CONTINUOUS
10
73.15
20
-63.95
11
73.15
21
-66.15
0
LINE
8
BLACK
6
CONTINUOUS
10
111.25
20
-66.15
11
109.65
21
-66.15
0
LINE
8
BLACK
6
CONTINUOUS
10
109.65
20
-66.15
11
109.65
21
-63.95
0
LINE
8
BLACK
6
CONTINUOUS
10
109.65
20
-63.95
11
111.25
21
-63.95
0
LINE
8
BLACK
6
CONTINUOUS
10
111.25
20
-63.95
11
111.25
21
-66.15
0
LINE
8
BLACK
6
CONTINUOUS
10
92.2
20
-66.15
11
90.6
21
-66.15
0
LINE
8
BLACK
6
CONTINUOUS
10
90.6
20
-66.15
11
90.6
21
-63.95
0
LINE
8
BLACK
6
CONTINUOUS
10
90.6
20
-63.95
11
92.2
21
-63.95
0
LINE
8
BLACK
6
CONTINUOUS
10
92.2
20
-63.95
11
92.2
21
-66.15
0
LINE
8
BLACK
6
CONTINUOUS
10
238.8
20
-65.925
11
237.8
21
-65.925
0
LINE
8
BLACK
6
CONTINUOUS
10
237.8
20
-65.925
11
237.8
21
-64.525
0
LINE
8
BLACK
6
CONTINUOUS
10
237.8
20
-64.525
11
238.8
21
-64.525
0
LINE
8
BLACK
6
CONTINUOUS
10
238.8
20
-64.525
11
238.8
21
-65.925
0
LINE
8
BLACK
6
CONTINUOUS
10
69.7312
20
-63.5437
11
68.7312
21
-63.5437
0
LINE
8
BLACK
6
CONTINUOUS
10
68.7312
20
-63.5437
11
68.7312
21
-62.1437
0
LINE
8
BLACK
6
CONTINUOUS
10
68.7312
20
-62.1437
11
69.7312
21
-62.1437
0
LINE
8
BLACK
6
CONTINUOUS
10
69.7312
20
-62.1437
11
69.7312
21
-63.5437
0
LINE
8
BLACK
6
CONTINUOUS
10
88.7812
20
-63.5437
11
87.7812
21
-63.5437
0
LINE
8
BLACK
6
CONTINUOUS
10
87.7812
20
-63.5437
11
87.7812
21
-62.1437
0
LINE
8
BLACK
6
CONTINUOUS
10
87.7812
20
-62.1437
11
88.7812
21
-62.1437
0
LINE
8
BLACK
6
CONTINUOUS
10
88.7812
20
-62.1437
11
88.7812
21
-63.5437
0
LINE
8
BLACK
6
CONTINUOUS
10
107.831
20
-63.5437
11
106.831
21
-63.5437
0
LINE
8
BLACK
6
CONTINUOUS
10
106.831
20
-63.5437
11
106.831
21
-62.1437
0
LINE
8
BLACK
6
CONTINUOUS
10
106.831
20
-62.1437
11
107.831
21
-62.1437
0
LINE
8
BLACK
6
CONTINUOUS
10
107.831
20
-62.1437
11
107.831
21
-63.5437
0
LINE
8
BLACK
6
CONTINUOUS
10
126.881
20
-63.5437
11
125.881
21
-63.5437
0
LINE
8
BLACK
6
CONTINUOUS
10
125.881
20
-63.5437
11
125.881
21
-62.1437
0
LINE
8
BLACK
6
CONTINUOUS
10
125.881
20
-62.1437
11
126.881
21
-62.1437
0
LINE
8
BLACK
6
CONTINUOUS
10
126.881
20
-62.1437
11
126.881
21
-63.5437
0
LINE
8
BLACK
6
CONTINUOUS
10
145.931
20
-63.5437
11
144.931
21
-63.5437
0
LINE
8
BLACK
6
CONTINUOUS
10
144.931
20
-63.5437
11
144.931
21
-62.1437
0
LINE
8
BLACK
6
CONTINUOUS
10
144.931
20
-62.1437
11
145.931
21
-62.1437
0
LINE
8
BLACK
6
CONTINUOUS
10
145.931
20
-62.1437
11
145.931
21
-63.5437
0
LINE
8
BLACK
6
CONTINUOUS
10
164.981
20
-63.5437
11
163.981
21
-63.5437
0
LINE
8
BLACK
6
CONTINUOUS
10
163.981
20
-63.5437
11
163.981
21
-62.1437
0
LINE
8
BLACK
6
CONTINUOUS
10
163.981
20
-62.1437
11
164.981
21
-62.1437
0
LINE
8
BLACK
6
CONTINUOUS
10
164.981
20
-62.1437
11
164.981
21
-63.5437
0
LINE
8
BLACK
6
CONTINUOUS
10
184.031
20
-63.5437
11
183.031
21
-63.5437
0
LINE
8
BLACK
6
CONTINUOUS
10
183.031
20
-63.5437
11
183.031
21
-62.1437
0
LINE
8
BLACK
6
CONTINUOUS
10
183.031
20
-62.1437
11
184.031
21
-62.1437
0
LINE
8
BLACK
6
CONTINUOUS
10
184.031
20
-62.1437
11
184.031
21
-63.5437
0
LINE
8
BLACK
6
CONTINUOUS
10
203.081
20
-63.5437
11
202.081
21
-63.5437
0
LINE
8
BLACK
6
CONTINUOUS
10
202.081
20
-63.5437
11
202.081
21
-62.1437
0
LINE
8
BLACK
6
CONTINUOUS
10
202.081
20
-62.1437
11
203.081
21
-62.1437
0
LINE
8
BLACK
6
CONTINUOUS
10
203.081
20
-62.1437
11
203.081
21
-63.5437
0
LINE
8
BLACK
6
CONTINUOUS
10
222.131
20
-63.5437
11
221.131
21
-63.5437
0
LINE
8
BLACK
6
CONTINUOUS
10
221.131
20
-63.5437
11
221.131
21
-62.1437
0
LINE
8
BLACK
6
CONTINUOUS
10
221.131
20
-62.1437
11
222.131
21
-62.1437
0
LINE
8
BLACK
6
CONTINUOUS
10
222.131
20
-62.1437
11
222.131
21
-63.5437
0
LINE
8
BLACK
6
CONTINUOUS
10
116.65
20
-57.225
11
115.05
21
-57.225
0
LINE
8
BLACK
6
CONTINUOUS
10
115.05
20
-57.225
11
115.05
21
-56.225
0
LINE
8
BLACK
6
CONTINUOUS
10
115.05
20
-56.225
11
116.65
21
-56.225
0
LINE
8
BLACK
6
CONTINUOUS
10
116.65
20
-56.225
11
116.65
21
-57.225
0
LINE
8
BLACK
6
CONTINUOUS
10
173.8
20
-57.225
11
172.2
21
-57.225
0
LINE
8
BLACK
6
CONTINUOUS
10
172.2
20
-57.225
11
172.2
21
-56.225
0
LINE
8
BLACK
6
CONTINUOUS
10
172.2
20
-56.225
11
173.8
21
-56.225
0
LINE
8
BLACK
6
CONTINUOUS
10
173.8
20
-56.225
11
173.8
21
-57.225
0
LINE
8
BLACK
6
CONTINUOUS
10
178.6
20
-57.225
11
177
21
-57.225
0
LINE
8
BLACK
6
CONTINUOUS
10
177
20
-57.225
11
177
21
-56.225
0
LINE
8
BLACK
6
CONTINUOUS
10
177
20
-56.225
11
178.6
21
-56.225
0
LINE
8
BLACK
6
CONTINUOUS
10
178.6
20
-56.225
11
178.6
21
-57.225
0
LINE
8
BLACK
6
CONTINUOUS
10
159.55
20
-57.225
11
157.95
21
-57.225
0
LINE
8
BLACK
6
CONTINUOUS
10
157.95
20
-57.225
11
157.95
21
-56.225
0
LINE
8
BLACK
6
CONTINUOUS
10
157.95
20
-56.225
11
159.55
21
-56.225
0
LINE
8
BLACK
6
CONTINUOUS
10
159.55
20
-56.225
11
159.55
21
-57.225
0
LINE
8
BLACK
6
CONTINUOUS
10
154.75
20
-57.225
11
153.15
21
-57.225
0
LINE
8
BLACK
6
CONTINUOUS
10
153.15
20
-57.225
11
153.15
21
-56.225
0
LINE
8
BLACK
6
CONTINUOUS
10
153.15
20
-56.225
11
154.75
21
-56.225
0
LINE
8
BLACK
6
CONTINUOUS
10
154.75
20
-56.225
11
154.75
21
-57.225
0
LINE
8
BLACK
6
CONTINUOUS
10
197.65
20
-57.225
11
196.05
21
-57.225
0
LINE
8
BLACK
6
CONTINUOUS
10
196.05
20
-57.225
11
196.05
21
-56.225
0
LINE
8
BLACK
6
CONTINUOUS
10
196.05
20
-56.225
11
197.65
21
-56.225
0
LINE
8
BLACK
6
CONTINUOUS
10
197.65
20
-56.225
11
197.65
21
-57.225
0
LINE
8
BLACK
6
CONTINUOUS
10
192.85
20
-57.225
11
191.25
21
-57.225
0
LINE
8
BLACK
6
CONTINUOUS
10
191.25
20
-57.225
11
191.25
21
-56.225
0
LINE
8
BLACK
6
CONTINUOUS
10
191.25
20
-56.225
11
192.85
21
-56.225
0
LINE
8
BLACK
6
CONTINUOUS
10
192.85
20
-56.225
11
192.85
21
-57.225
0
LINE
8
BLACK
6
CONTINUOUS
10
135.7
20
-57.225
11
134.1
21
-57.225
0
LINE
8
BLACK
6
CONTINUOUS
10
134.1
20
-57.225
11
134.1
21
-56.225
0
LINE
8
BLACK
6
CONTINUOUS
10
134.1
20
-56.225
11
135.7
21
-56.225
0
LINE
8
BLACK
6
CONTINUOUS
10
135.7
20
-56.225
11
135.7
21
-57.225
0
LINE
8
BLACK
6
CONTINUOUS
10
140.5
20
-57.225
11
138.9
21
-57.225
0
LINE
8
BLACK
6
CONTINUOUS
10
138.9
20
-57.225
11
138.9
21
-56.225
0
LINE
8
BLACK
6
CONTINUOUS
10
138.9
20
-56.225
11
140.5
21
-56.225
0
LINE
8
BLACK
6
CONTINUOUS
10
140.5
20
-56.225
11
140.5
21
-57.225
0
LINE
8
BLACK
6
CONTINUOUS
10
121.45
20
-57.225
11
119.85
21
-57.225
0
LINE
8
BLACK
6
CONTINUOUS
10
119.85
20
-57.225
11
119.85
21
-56.225
0
LINE
8
BLACK
6
CONTINUOUS
10
119.85
20
-56.225
11
121.45
21
-56.225
0
LINE
8
BLACK
6
CONTINUOUS
10
121.45
20
-56.225
11
121.45
21
-57.225
0
LINE
8
BLACK
6
CONTINUOUS
10
211.9
20
-57.225
11
210.3
21
-57.225
0
LINE
8
BLACK
6
CONTINUOUS
10
210.3
20
-57.225
11
210.3
21
-56.225
0
LINE
8
BLACK
6
CONTINUOUS
10
210.3
20
-56.225
11
211.9
21
-56.225
0
LINE
8
BLACK
6
CONTINUOUS
10
211.9
20
-56.225
11
211.9
21
-57.225
0
LINE
8
BLACK
6
CONTINUOUS
10
216.7
20
-57.225
11
215.1
21
-57.225
0
LINE
8
BLACK
6
CONTINUOUS
10
215.1
20
-57.225
11
215.1
21
-56.225
0
LINE
8
BLACK
6
CONTINUOUS
10
215.1
20
-56.225
11
216.7
21
-56.225
0
LINE
8
BLACK
6
CONTINUOUS
10
216.7
20
-56.225
11
216.7
21
-57.225
0
LINE
8
BLACK
6
CONTINUOUS
10
97.6
20
-57.225
11
96
21
-57.225
0
LINE
8
BLACK
6
CONTINUOUS
10
96
20
-57.225
11
96
21
-56.225
0
LINE
8
BLACK
6
CONTINUOUS
10
96
20
-56.225
11
97.6
21
-56.225
0
LINE
8
BLACK
6
CONTINUOUS
10
97.6
20
-56.225
11
97.6
21
-57.225
0
LINE
8
BLACK
6
CONTINUOUS
10
102.4
20
-57.225
11
100.8
21
-57.225
0
LINE
8
BLACK
6
CONTINUOUS
10
100.8
20
-57.225
11
100.8
21
-56.225
0
LINE
8
BLACK
6
CONTINUOUS
10
100.8
20
-56.225
11
102.4
21
-56.225
0
LINE
8
BLACK
6
CONTINUOUS
10
102.4
20
-56.225
11
102.4
21
-57.225
0
LINE
8
BLACK
6
CONTINUOUS
10
83.35
20
-57.225
11
81.75
21
-57.225
0
LINE
8
BLACK
6
CONTINUOUS
10
81.75
20
-57.225
11
81.75
21
-56.225
0
LINE
8
BLACK
6
CONTINUOUS
10
81.75
20
-56.225
11
83.35
21
-56.225
0
LINE
8
BLACK
6
CONTINUOUS
10
83.35
20
-56.225
11
83.35
21
-57.225
0
LINE
8
BLACK
6
CONTINUOUS
10
78.55
20
-57.225
11
76.95
21
-57.225
0
LINE
8
BLACK
6
CONTINUOUS
10
76.95
20
-57.225
11
76.95
21
-56.225
0
LINE
8
BLACK
6
CONTINUOUS
10
76.95
20
-56.225
11
78.55
21
-56.225
0
LINE
8
BLACK
6
CONTINUOUS
10
78.55
20
-56.225
11
78.55
21
-57.225
0
LINE
8
BLACK
6
CONTINUOUS
10
235.75
20
-57.225
11
234.15
21
-57.225
0
LINE
8
BLACK
6
CONTINUOUS
10
234.15
20
-57.225
11
234.15
21
-56.225
0
LINE
8
BLACK
6
CONTINUOUS
10
234.15
20
-56.225
11
235.75
21
-56.225
0
LINE
8
BLACK
6
CONTINUOUS
10
235.75
20
-56.225
11
235.75
21
-57.225
0
LINE
8
BLACK
6
CONTINUOUS
10
230.95
20
-57.225
11
229.35
21
-57.225
0
LINE
8
BLACK
6
CONTINUOUS
10
229.35
20
-57.225
11
229.35
21
-56.225
0
LINE
8
BLACK
6
CONTINUOUS
10
229.35
20
-56.225
11
230.95
21
-56.225
0
LINE
8
BLACK
6
CONTINUOUS
10
230.95
20
-56.225
11
230.95
21
-57.225
0
LINE
8
BLACK
6
CONTINUOUS
10
59.5
20
-57.225
11
57.9
21
-57.225
0
LINE
8
BLACK
6
CONTINUOUS
10
57.9
20
-57.225
11
57.9
21
-56.225
0
LINE
8
BLACK
6
CONTINUOUS
10
57.9
20
-56.225
11
59.5
21
-56.225
0
LINE
8
BLACK
6
CONTINUOUS
10
59.5
20
-56.225
11
59.5
21
-57.225
0
LINE
8
BLACK
6
CONTINUOUS
10
64.3
20
-57.225
11
62.7
21
-57.225
0
LINE
8
BLACK
6
CONTINUOUS
10
62.7
20
-57.225
11
62.7
21
-56.225
0
LINE
8
BLACK
6
CONTINUOUS
10
62.7
20
-56.225
11
64.3
21
-56.225
0
LINE
8
BLACK
6
CONTINUOUS
10
64.3
20
-56.225
11
64.3
21
-57.225
0
LINE
8
BLACK
6
CONTINUOUS
10
64.3
20
-55.475
11
62.7
21
-55.475
0
LINE
8
BLACK
6
CONTINUOUS
10
62.7
20
-55.475
11
62.7
21
-54.475
0
LINE
8
BLACK
6
CONTINUOUS
10
62.7
20
-54.475
11
64.3
21
-54.475
0
LINE
8
BLACK
6
CONTINUOUS
10
64.3
20
-54.475
11
64.3
21
-55.475
0
LINE
8
BLACK
6
CONTINUOUS
10
216.7
20
-55.475
11
215.1
21
-55.475
0
LINE
8
BLACK
6
CONTINUOUS
10
215.1
20
-55.475
11
215.1
21
-54.475
0
LINE
8
BLACK
6
CONTINUOUS
10
215.1
20
-54.475
11
216.7
21
-54.475
0
LINE
8
BLACK
6
CONTINUOUS
10
216.7
20
-54.475
11
216.7
21
-55.475
0
LINE
8
BLACK
6
CONTINUOUS
10
211.9
20
-55.475
11
210.3
21
-55.475
0
LINE
8
BLACK
6
CONTINUOUS
10
210.3
20
-55.475
11
210.3
21
-54.475
0
LINE
8
BLACK
6
CONTINUOUS
10
210.3
20
-54.475
11
211.9
21
-54.475
0
LINE
8
BLACK
6
CONTINUOUS
10
211.9
20
-54.475
11
211.9
21
-55.475
0
LINE
8
BLACK
6
CONTINUOUS
10
192.85
20
-55.475
11
191.25
21
-55.475
0
LINE
8
BLACK
6
CONTINUOUS
10
191.25
20
-55.475
11
191.25
21
-54.475
0
LINE
8
BLACK
6
CONTINUOUS
10
191.25
20
-54.475
11
192.85
21
-54.475
0
LINE
8
BLACK
6
CONTINUOUS
10
192.85
20
-54.475
11
192.85
21
-55.475
0
LINE
8
BLACK
6
CONTINUOUS
10
235.75
20
-55.475
11
234.15
21
-55.475
0
LINE
8
BLACK
6
CONTINUOUS
10
234.15
20
-55.475
11
234.15
21
-54.475
0
LINE
8
BLACK
6
CONTINUOUS
10
234.15
20
-54.475
11
235.75
21
-54.475
0
LINE
8
BLACK
6
CONTINUOUS
10
235.75
20
-54.475
11
235.75
21
-55.475
0
LINE
8
BLACK
6
CONTINUOUS
10
197.65
20
-55.475
11
196.05
21
-55.475
0
LINE
8
BLACK
6
CONTINUOUS
10
196.05
20
-55.475
11
196.05
21
-54.475
0
LINE
8
BLACK
6
CONTINUOUS
10
196.05
20
-54.475
11
197.65
21
-54.475
0
LINE
8
BLACK
6
CONTINUOUS
10
197.65
20
-54.475
11
197.65
21
-55.475
0
LINE
8
BLACK
6
CONTINUOUS
10
173.8
20
-55.475
11
172.2
21
-55.475
0
LINE
8
BLACK
6
CONTINUOUS
10
172.2
20
-55.475
11
172.2
21
-54.475
0
LINE
8
BLACK
6
CONTINUOUS
10
172.2
20
-54.475
11
173.8
21
-54.475
0
LINE
8
BLACK
6
CONTINUOUS
10
173.8
20
-54.475
11
173.8
21
-55.475
0
LINE
8
BLACK
6
CONTINUOUS
10
230.95
20
-55.475
11
229.35
21
-55.475
0
LINE
8
BLACK
6
CONTINUOUS
10
229.35
20
-55.475
11
229.35
21
-54.475
0
LINE
8
BLACK
6
CONTINUOUS
10
229.35
20
-54.475
11
230.95
21
-54.475
0
LINE
8
BLACK
6
CONTINUOUS
10
230.95
20
-54.475
11
230.95
21
-55.475
0
LINE
8
BLACK
6
CONTINUOUS
10
178.6
20
-55.475
11
177
21
-55.475
0
LINE
8
BLACK
6
CONTINUOUS
10
177
20
-55.475
11
177
21
-54.475
0
LINE
8
BLACK
6
CONTINUOUS
10
177
20
-54.475
11
178.6
21
-54.475
0
LINE
8
BLACK
6
CONTINUOUS
10
178.6
20
-54.475
11
178.6
21
-55.475
0
LINE
8
BLACK
6
CONTINUOUS
10
159.55
20
-55.475
11
157.95
21
-55.475
0
LINE
8
BLACK
6
CONTINUOUS
10
157.95
20
-55.475
11
157.95
21
-54.475
0
LINE
8
BLACK
6
CONTINUOUS
10
157.95
20
-54.475
11
159.55
21
-54.475
0
LINE
8
BLACK
6
CONTINUOUS
10
159.55
20
-54.475
11
159.55
21
-55.475
0
LINE
8
BLACK
6
CONTINUOUS
10
154.75
20
-55.475
11
153.15
21
-55.475
0
LINE
8
BLACK
6
CONTINUOUS
10
153.15
20
-55.475
11
153.15
21
-54.475
0
LINE
8
BLACK
6
CONTINUOUS
10
153.15
20
-54.475
11
154.75
21
-54.475
0
LINE
8
BLACK
6
CONTINUOUS
10
154.75
20
-54.475
11
154.75
21
-55.475
0
LINE
8
BLACK
6
CONTINUOUS
10
135.7
20
-55.475
11
134.1
21
-55.475
0
LINE
8
BLACK
6
CONTINUOUS
10
134.1
20
-55.475
11
134.1
21
-54.475
0
LINE
8
BLACK
6
CONTINUOUS
10
134.1
20
-54.475
11
135.7
21
-54.475
0
LINE
8
BLACK
6
CONTINUOUS
10
135.7
20
-54.475
11
135.7
21
-55.475
0
LINE
8
BLACK
6
CONTINUOUS
10
140.5
20
-55.475
11
138.9
21
-55.475
0
LINE
8
BLACK
6
CONTINUOUS
10
138.9
20
-55.475
11
138.9
21
-54.475
0
LINE
8
BLACK
6
CONTINUOUS
10
138.9
20
-54.475
11
140.5
21
-54.475
0
LINE
8
BLACK
6
CONTINUOUS
10
140.5
20
-54.475
11
140.5
21
-55.475
0
LINE
8
BLACK
6
CONTINUOUS
10
121.45
20
-55.475
11
119.85
21
-55.475
0
LINE
8
BLACK
6
CONTINUOUS
10
119.85
20
-55.475
11
119.85
21
-54.475
0
LINE
8
BLACK
6
CONTINUOUS
10
119.85
20
-54.475
11
121.45
21
-54.475
0
LINE
8
BLACK
6
CONTINUOUS
10
121.45
20
-54.475
11
121.45
21
-55.475
0
LINE
8
BLACK
6
CONTINUOUS
10
116.65
20
-55.475
11
115.05
21
-55.475
0
LINE
8
BLACK
6
CONTINUOUS
10
115.05
20
-55.475
11
115.05
21
-54.475
0
LINE
8
BLACK
6
CONTINUOUS
10
115.05
20
-54.475
11
116.65
21
-54.475
0
LINE
8
BLACK
6
CONTINUOUS
10
116.65
20
-54.475
11
116.65
21
-55.475
0
LINE
8
BLACK
6
CONTINUOUS
10
97.6
20
-55.475
11
96
21
-55.475
0
LINE
8
BLACK
6
CONTINUOUS
10
96
20
-55.475
11
96
21
-54.475
0
LINE
8
BLACK
6
CONTINUOUS
10
96
20
-54.475
11
97.6
21
-54.475
0
LINE
8
BLACK
6
CONTINUOUS
10
97.6
20
-54.475
11
97.6
21
-55.475
0
LINE
8
BLACK
6
CONTINUOUS
10
102.4
20
-55.475
11
100.8
21
-55.475
0
LINE
8
BLACK
6
CONTINUOUS
10
100.8
20
-55.475
11
100.8
21
-54.475
0
LINE
8
BLACK
6
CONTINUOUS
10
100.8
20
-54.475
11
102.4
21
-54.475
0
LINE
8
BLACK
6
CONTINUOUS
10
102.4
20
-54.475
11
102.4
21
-55.475
0
LINE
8
BLACK
6
CONTINUOUS
10
83.35
20
-55.475
11
81.75
21
-55.475
0
LINE
8
BLACK
6
CONTINUOUS
10
81.75
20
-55.475
11
81.75
21
-54.475
0
LINE
8
BLACK
6
CONTINUOUS
10
81.75
20
-54.475
11
83.35
21
-54.475
0
LINE
8
BLACK
6
CONTINUOUS
10
83.35
20
-54.475
11
83.35
21
-55.475
0
LINE
8
BLACK
6
CONTINUOUS
10
78.55
20
-55.475
11
76.95
21
-55.475
0
LINE
8
BLACK
6
CONTINUOUS
10
76.95
20
-55.475
11
76.95
21
-54.475
0
LINE
8
BLACK
6
CONTINUOUS
10
76.95
20
-54.475
11
78.55
21
-54.475
0
LINE
8
BLACK
6
CONTINUOUS
10
78.55
20
-54.475
11
78.55
21
-55.475
0
LINE
8
BLACK
6
CONTINUOUS
10
59.5
20
-55.475
11
57.9
21
-55.475
0
LINE
8
BLACK
6
CONTINUOUS
10
57.9
20
-55.475
11
57.9
21
-54.475
0
LINE
8
BLACK
6
CONTINUOUS
10
57.9
20
-54.475
11
59.5
21
-54.475
0
LINE
8
BLACK
6
CONTINUOUS
10
59.5
20
-54.475
11
59.5
21
-55.475
0
LINE
8
BLACK
6
CONTINUOUS
10
238.8
20
-50.425
11
237.8
21
-50.425
0
LINE
8
BLACK
6
CONTINUOUS
10
237.8
20
-50.425
11
237.8
21
-49.025
0
LINE
8
BLACK
6
CONTINUOUS
10
237.8
20
-49.025
11
238.8
21
-49.025
0
LINE
8
BLACK
6
CONTINUOUS
10
238.8
20
-49.025
11
238.8
21
-50.425
0
LINE
8
BLACK
6
CONTINUOUS
10
179
20
-49.3
11
177.4
21
-49.3
0
LINE
8
BLACK
6
CONTINUOUS
10
177.4
20
-49.3
11
177.4
21
-47.1
0
LINE
8
BLACK
6
CONTINUOUS
10
177.4
20
-47.1
11
179
21
-47.1
0
LINE
8
BLACK
6
CONTINUOUS
10
179
20
-47.1
11
179
21
-49.3
0
LINE
8
BLACK
6
CONTINUOUS
10
198.05
20
-49.3
11
196.45
21
-49.3
0
LINE
8
BLACK
6
CONTINUOUS
10
196.45
20
-49.3
11
196.45
21
-47.1
0
LINE
8
BLACK
6
CONTINUOUS
10
196.45
20
-47.1
11
198.05
21
-47.1
0
LINE
8
BLACK
6
CONTINUOUS
10
198.05
20
-47.1
11
198.05
21
-49.3
0
LINE
8
BLACK
6
CONTINUOUS
10
217.1
20
-49.3
11
215.5
21
-49.3
0
LINE
8
BLACK
6
CONTINUOUS
10
215.5
20
-49.3
11
215.5
21
-47.1
0
LINE
8
BLACK
6
CONTINUOUS
10
215.5
20
-47.1
11
217.1
21
-47.1
0
LINE
8
BLACK
6
CONTINUOUS
10
217.1
20
-47.1
11
217.1
21
-49.3
0
LINE
8
BLACK
6
CONTINUOUS
10
236.15
20
-49.3
11
234.55
21
-49.3
0
LINE
8
BLACK
6
CONTINUOUS
10
234.55
20
-49.3
11
234.55
21
-47.1
0
LINE
8
BLACK
6
CONTINUOUS
10
234.55
20
-47.1
11
236.15
21
-47.1
0
LINE
8
BLACK
6
CONTINUOUS
10
236.15
20
-47.1
11
236.15
21
-49.3
0
LINE
8
BLACK
6
CONTINUOUS
10
83.75
20
-49.3
11
82.15
21
-49.3
0
LINE
8
BLACK
6
CONTINUOUS
10
82.15
20
-49.3
11
82.15
21
-47.1
0
LINE
8
BLACK
6
CONTINUOUS
10
82.15
20
-47.1
11
83.75
21
-47.1
0
LINE
8
BLACK
6
CONTINUOUS
10
83.75
20
-47.1
11
83.75
21
-49.3
0
LINE
8
BLACK
6
CONTINUOUS
10
140.9
20
-49.3
11
139.3
21
-49.3
0
LINE
8
BLACK
6
CONTINUOUS
10
139.3
20
-49.3
11
139.3
21
-47.1
0
LINE
8
BLACK
6
CONTINUOUS
10
139.3
20
-47.1
11
140.9
21
-47.1
0
LINE
8
BLACK
6
CONTINUOUS
10
140.9
20
-47.1
11
140.9
21
-49.3
0
LINE
8
BLACK
6
CONTINUOUS
10
121.85
20
-49.3
11
120.25
21
-49.3
0
LINE
8
BLACK
6
CONTINUOUS
10
120.25
20
-49.3
11
120.25
21
-47.1
0
LINE
8
BLACK
6
CONTINUOUS
10
120.25
20
-47.1
11
121.85
21
-47.1
0
LINE
8
BLACK
6
CONTINUOUS
10
121.85
20
-47.1
11
121.85
21
-49.3
0
LINE
8
BLACK
6
CONTINUOUS
10
102.8
20
-49.3
11
101.2
21
-49.3
0
LINE
8
BLACK
6
CONTINUOUS
10
101.2
20
-49.3
11
101.2
21
-47.1
0
LINE
8
BLACK
6
CONTINUOUS
10
101.2
20
-47.1
11
102.8
21
-47.1
0
LINE
8
BLACK
6
CONTINUOUS
10
102.8
20
-47.1
11
102.8
21
-49.3
0
LINE
8
BLACK
6
CONTINUOUS
10
64.7
20
-49.3
11
63.1
21
-49.3
0
LINE
8
BLACK
6
CONTINUOUS
10
63.1
20
-49.3
11
63.1
21
-47.1
0
LINE
8
BLACK
6
CONTINUOUS
10
63.1
20
-47.1
11
64.7
21
-47.1
0
LINE
8
BLACK
6
CONTINUOUS
10
64.7
20
-47.1
11
64.7
21
-49.3
0
LINE
8
BLACK
6
CONTINUOUS
10
159.95
20
-49.3
11
158.35
21
-49.3
0
LINE
8
BLACK
6
CONTINUOUS
10
158.35
20
-49.3
11
158.35
21
-47.1
0
LINE
8
BLACK
6
CONTINUOUS
10
158.35
20
-47.1
11
159.95
21
-47.1
0
LINE
8
BLACK
6
CONTINUOUS
10
159.95
20
-47.1
11
159.95
21
-49.3
0
LINE
8
BLACK
6
CONTINUOUS
10
69.7312
20
-48.0437
11
68.7312
21
-48.0437
0
LINE
8
BLACK
6
CONTINUOUS
10
68.7312
20
-48.0437
11
68.7312
21
-46.6437
0
LINE
8
BLACK
6
CONTINUOUS
10
68.7312
20
-46.6437
11
69.7312
21
-46.6437
0
LINE
8
BLACK
6
CONTINUOUS
10
69.7312
20
-46.6437
11
69.7312
21
-48.0437
0
LINE
8
BLACK
6
CONTINUOUS
10
222.131
20
-48.0437
11
221.131
21
-48.0437
0
LINE
8
BLACK
6
CONTINUOUS
10
221.131
20
-48.0437
11
221.131
21
-46.6437
0
LINE
8
BLACK
6
CONTINUOUS
10
221.131
20
-46.6437
11
222.131
21
-46.6437
0
LINE
8
BLACK
6
CONTINUOUS
10
222.131
20
-46.6437
11
222.131
21
-48.0437
0
LINE
8
BLACK
6
CONTINUOUS
10
203.081
20
-48.0437
11
202.081
21
-48.0437
0
LINE
8
BLACK
6
CONTINUOUS
10
202.081
20
-48.0437
11
202.081
21
-46.6437
0
LINE
8
BLACK
6
CONTINUOUS
10
202.081
20
-46.6437
11
203.081
21
-46.6437
0
LINE
8
BLACK
6
CONTINUOUS
10
203.081
20
-46.6437
11
203.081
21
-48.0437
0
LINE
8
BLACK
6
CONTINUOUS
10
184.031
20
-48.0437
11
183.031
21
-48.0437
0
LINE
8
BLACK
6
CONTINUOUS
10
183.031
20
-48.0437
11
183.031
21
-46.6437
0
LINE
8
BLACK
6
CONTINUOUS
10
183.031
20
-46.6437
11
184.031
21
-46.6437
0
LINE
8
BLACK
6
CONTINUOUS
10
184.031
20
-46.6437
11
184.031
21
-48.0437
0
LINE
8
BLACK
6
CONTINUOUS
10
164.981
20
-48.0437
11
163.981
21
-48.0437
0
LINE
8
BLACK
6
CONTINUOUS
10
163.981
20
-48.0437
11
163.981
21
-46.6437
0
LINE
8
BLACK
6
CONTINUOUS
10
163.981
20
-46.6437
11
164.981
21
-46.6437
0
LINE
8
BLACK
6
CONTINUOUS
10
164.981
20
-46.6437
11
164.981
21
-48.0437
0
LINE
8
BLACK
6
CONTINUOUS
10
145.931
20
-48.0437
11
144.931
21
-48.0437
0
LINE
8
BLACK
6
CONTINUOUS
10
144.931
20
-48.0437
11
144.931
21
-46.6437
0
LINE
8
BLACK
6
CONTINUOUS
10
144.931
20
-46.6437
11
145.931
21
-46.6437
0
LINE
8
BLACK
6
CONTINUOUS
10
145.931
20
-46.6437
11
145.931
21
-48.0437
0
LINE
8
BLACK
6
CONTINUOUS
10
126.881
20
-48.0437
11
125.881
21
-48.0437
0
LINE
8
BLACK
6
CONTINUOUS
10
125.881
20
-48.0437
11
125.881
21
-46.6437
0
LINE
8
BLACK
6
CONTINUOUS
10
125.881
20
-46.6437
11
126.881
21
-46.6437
0
LINE
8
BLACK
6
CONTINUOUS
10
126.881
20
-46.6437
11
126.881
21
-48.0437
0
LINE
8
BLACK
6
CONTINUOUS
10
107.831
20
-48.0437
11
106.831
21
-48.0437
0
LINE
8
BLACK
6
CONTINUOUS
10
106.831
20
-48.0437
11
106.831
21
-46.6437
0
LINE
8
BLACK
6
CONTINUOUS
10
106.831
20
-46.6437
11
107.831
21
-46.6437
0
LINE
8
BLACK
6
CONTINUOUS
10
107.831
20
-46.6437
11
107.831
21
-48.0437
0
LINE
8
BLACK
6
CONTINUOUS
10
88.7812
20
-48.0437
11
87.7812
21
-48.0437
0
LINE
8
BLACK
6
CONTINUOUS
10
87.7812
20
-48.0437
11
87.7812
21
-46.6437
0
LINE
8
BLACK
6
CONTINUOUS
10
87.7812
20
-46.6437
11
88.7812
21
-46.6437
0
LINE
8
BLACK
6
CONTINUOUS
10
88.7812
20
-46.6437
11
88.7812
21
-48.0437
0
LINE
8
BLACK
6
CONTINUOUS
10
149.35
20
-47.1
11
147.75
21
-47.1
0
LINE
8
BLACK
6
CONTINUOUS
10
147.75
20
-47.1
11
147.75
21
-44.9
0
LINE
8
BLACK
6
CONTINUOUS
10
147.75
20
-44.9
11
149.35
21
-44.9
0
LINE
8
BLACK
6
CONTINUOUS
10
149.35
20
-44.9
11
149.35
21
-47.1
0
LINE
8
BLACK
6
CONTINUOUS
10
54.1
20
-47.1
11
52.5
21
-47.1
0
LINE
8
BLACK
6
CONTINUOUS
10
52.5
20
-47.1
11
52.5
21
-44.9
0
LINE
8
BLACK
6
CONTINUOUS
10
52.5
20
-44.9
11
54.1
21
-44.9
0
LINE
8
BLACK
6
CONTINUOUS
10
54.1
20
-44.9
11
54.1
21
-47.1
0
LINE
8
BLACK
6
CONTINUOUS
10
73.15
20
-47.1
11
71.55
21
-47.1
0
LINE
8
BLACK
6
CONTINUOUS
10
71.55
20
-47.1
11
71.55
21
-44.9
0
LINE
8
BLACK
6
CONTINUOUS
10
71.55
20
-44.9
11
73.15
21
-44.9
0
LINE
8
BLACK
6
CONTINUOUS
10
73.15
20
-44.9
11
73.15
21
-47.1
0
LINE
8
BLACK
6
CONTINUOUS
10
92.2
20
-47.1
11
90.6
21
-47.1
0
LINE
8
BLACK
6
CONTINUOUS
10
90.6
20
-47.1
11
90.6
21
-44.9
0
LINE
8
BLACK
6
CONTINUOUS
10
90.6
20
-44.9
11
92.2
21
-44.9
0
LINE
8
BLACK
6
CONTINUOUS
10
92.2
20
-44.9
11
92.2
21
-47.1
0
LINE
8
BLACK
6
CONTINUOUS
10
168.4
20
-47.1
11
166.8
21
-47.1
0
LINE
8
BLACK
6
CONTINUOUS
10
166.8
20
-47.1
11
166.8
21
-44.9
0
LINE
8
BLACK
6
CONTINUOUS
10
166.8
20
-44.9
11
168.4
21
-44.9
0
LINE
8
BLACK
6
CONTINUOUS
10
168.4
20
-44.9
11
168.4
21
-47.1
0
LINE
8
BLACK
6
CONTINUOUS
10
187.45
20
-47.1
11
185.85
21
-47.1
0
LINE
8
BLACK
6
CONTINUOUS
10
185.85
20
-47.1
11
185.85
21
-44.9
0
LINE
8
BLACK
6
CONTINUOUS
10
185.85
20
-44.9
11
187.45
21
-44.9
0
LINE
8
BLACK
6
CONTINUOUS
10
187.45
20
-44.9
11
187.45
21
-47.1
0
LINE
8
BLACK
6
CONTINUOUS
10
225.55
20
-47.1
11
223.95
21
-47.1
0
LINE
8
BLACK
6
CONTINUOUS
10
223.95
20
-47.1
11
223.95
21
-44.9
0
LINE
8
BLACK
6
CONTINUOUS
10
223.95
20
-44.9
11
225.55
21
-44.9
0
LINE
8
BLACK
6
CONTINUOUS
10
225.55
20
-44.9
11
225.55
21
-47.1
0
LINE
8
BLACK
6
CONTINUOUS
10
206.5
20
-47.1
11
204.9
21
-47.1
0
LINE
8
BLACK
6
CONTINUOUS
10
204.9
20
-47.1
11
204.9
21
-44.9
0
LINE
8
BLACK
6
CONTINUOUS
10
204.9
20
-44.9
11
206.5
21
-44.9
0
LINE
8
BLACK
6
CONTINUOUS
10
206.5
20
-44.9
11
206.5
21
-47.1
0
LINE
8
BLACK
6
CONTINUOUS
10
130.3
20
-47.1
11
128.7
21
-47.1
0
LINE
8
BLACK
6
CONTINUOUS
10
128.7
20
-47.1
11
128.7
21
-44.9
0
LINE
8
BLACK
6
CONTINUOUS
10
128.7
20
-44.9
11
130.3
21
-44.9
0
LINE
8
BLACK
6
CONTINUOUS
10
130.3
20
-44.9
11
130.3
21
-47.1
0
LINE
8
BLACK
6
CONTINUOUS
10
111.25
20
-47.1
11
109.65
21
-47.1
0
LINE
8
BLACK
6
CONTINUOUS
10
109.65
20
-47.1
11
109.65
21
-44.9
0
LINE
8
BLACK
6
CONTINUOUS
10
109.65
20
-44.9
11
111.25
21
-44.9
0
LINE
8
BLACK
6
CONTINUOUS
10
111.25
20
-44.9
11
111.25
21
-47.1
0
LINE
8
BLACK
6
CONTINUOUS
10
238.8
20
-46.875
11
237.8
21
-46.875
0
LINE
8
BLACK
6
CONTINUOUS
10
237.8
20
-46.875
11
237.8
21
-45.475
0
LINE
8
BLACK
6
CONTINUOUS
10
237.8
20
-45.475
11
238.8
21
-45.475
0
LINE
8
BLACK
6
CONTINUOUS
10
238.8
20
-45.475
11
238.8
21
-46.875
0
LINE
8
BLACK
6
CONTINUOUS
10
164.981
20
-44.4937
11
163.981
21
-44.4937
0
LINE
8
BLACK
6
CONTINUOUS
10
163.981
20
-44.4937
11
163.981
21
-43.0937
0
LINE
8
BLACK
6
CONTINUOUS
10
163.981
20
-43.0937
11
164.981
21
-43.0937
0
LINE
8
BLACK
6
CONTINUOUS
10
164.981
20
-43.0937
11
164.981
21
-44.4937
0
LINE
8
BLACK
6
CONTINUOUS
10
145.931
20
-44.4937
11
144.931
21
-44.4937
0
LINE
8
BLACK
6
CONTINUOUS
10
144.931
20
-44.4937
11
144.931
21
-43.0937
0
LINE
8
BLACK
6
CONTINUOUS
10
144.931
20
-43.0937
11
145.931
21
-43.0937
0
LINE
8
BLACK
6
CONTINUOUS
10
145.931
20
-43.0937
11
145.931
21
-44.4937
0
LINE
8
BLACK
6
CONTINUOUS
10
184.031
20
-44.4937
11
183.031
21
-44.4937
0
LINE
8
BLACK
6
CONTINUOUS
10
183.031
20
-44.4937
11
183.031
21
-43.0937
0
LINE
8
BLACK
6
CONTINUOUS
10
183.031
20
-43.0937
11
184.031
21
-43.0937
0
LINE
8
BLACK
6
CONTINUOUS
10
184.031
20
-43.0937
11
184.031
21
-44.4937
0
LINE
8
BLACK
6
CONTINUOUS
10
126.881
20
-44.4937
11
125.881
21
-44.4937
0
LINE
8
BLACK
6
CONTINUOUS
10
125.881
20
-44.4937
11
125.881
21
-43.0937
0
LINE
8
BLACK
6
CONTINUOUS
10
125.881
20
-43.0937
11
126.881
21
-43.0937
0
LINE
8
BLACK
6
CONTINUOUS
10
126.881
20
-43.0937
11
126.881
21
-44.4937
0
LINE
8
BLACK
6
CONTINUOUS
10
203.081
20
-44.4937
11
202.081
21
-44.4937
0
LINE
8
BLACK
6
CONTINUOUS
10
202.081
20
-44.4937
11
202.081
21
-43.0937
0
LINE
8
BLACK
6
CONTINUOUS
10
202.081
20
-43.0937
11
203.081
21
-43.0937
0
LINE
8
BLACK
6
CONTINUOUS
10
203.081
20
-43.0937
11
203.081
21
-44.4937
0
LINE
8
BLACK
6
CONTINUOUS
10
222.131
20
-44.4937
11
221.131
21
-44.4937
0
LINE
8
BLACK
6
CONTINUOUS
10
221.131
20
-44.4937
11
221.131
21
-43.0937
0
LINE
8
BLACK
6
CONTINUOUS
10
221.131
20
-43.0937
11
222.131
21
-43.0937
0
LINE
8
BLACK
6
CONTINUOUS
10
222.131
20
-43.0937
11
222.131
21
-44.4937
0
LINE
8
BLACK
6
CONTINUOUS
10
107.831
20
-44.4937
11
106.831
21
-44.4937
0
LINE
8
BLACK
6
CONTINUOUS
10
106.831
20
-44.4937
11
106.831
21
-43.0937
0
LINE
8
BLACK
6
CONTINUOUS
10
106.831
20
-43.0937
11
107.831
21
-43.0937
0
LINE
8
BLACK
6
CONTINUOUS
10
107.831
20
-43.0937
11
107.831
21
-44.4937
0
LINE
8
BLACK
6
CONTINUOUS
10
69.7312
20
-44.4937
11
68.7312
21
-44.4937
0
LINE
8
BLACK
6
CONTINUOUS
10
68.7312
20
-44.4937
11
68.7312
21
-43.0937
0
LINE
8
BLACK
6
CONTINUOUS
10
68.7312
20
-43.0937
11
69.7312
21
-43.0937
0
LINE
8
BLACK
6
CONTINUOUS
10
69.7312
20
-43.0937
11
69.7312
21
-44.4937
0
LINE
8
BLACK
6
CONTINUOUS
10
88.7812
20
-44.4937
11
87.7812
21
-44.4937
0
LINE
8
BLACK
6
CONTINUOUS
10
87.7812
20
-44.4937
11
87.7812
21
-43.0937
0
LINE
8
BLACK
6
CONTINUOUS
10
87.7812
20
-43.0937
11
88.7812
21
-43.0937
0
LINE
8
BLACK
6
CONTINUOUS
10
88.7812
20
-43.0937
11
88.7812
21
-44.4937
0
LINE
8
BLACK
6
CONTINUOUS
10
78.55
20
-38.175
11
76.95
21
-38.175
0
LINE
8
BLACK
6
CONTINUOUS
10
76.95
20
-38.175
11
76.95
21
-37.175
0
LINE
8
BLACK
6
CONTINUOUS
10
76.95
20
-37.175
11
78.55
21
-37.175
0
LINE
8
BLACK
6
CONTINUOUS
10
78.55
20
-37.175
11
78.55
21
-38.175
0
LINE
8
BLACK
6
CONTINUOUS
10
135.7
20
-38.175
11
134.1
21
-38.175
0
LINE
8
BLACK
6
CONTINUOUS
10
134.1
20
-38.175
11
134.1
21
-37.175
0
LINE
8
BLACK
6
CONTINUOUS
10
134.1
20
-37.175
11
135.7
21
-37.175
0
LINE
8
BLACK
6
CONTINUOUS
10
135.7
20
-37.175
11
135.7
21
-38.175
0
LINE
8
BLACK
6
CONTINUOUS
10
140.5
20
-38.175
11
138.9
21
-38.175
0
LINE
8
BLACK
6
CONTINUOUS
10
138.9
20
-38.175
11
138.9
21
-37.175
0
LINE
8
BLACK
6
CONTINUOUS
10
138.9
20
-37.175
11
140.5
21
-37.175
0
LINE
8
BLACK
6
CONTINUOUS
10
140.5
20
-37.175
11
140.5
21
-38.175
0
LINE
8
BLACK
6
CONTINUOUS
10
64.3
20
-38.175
11
62.7
21
-38.175
0
LINE
8
BLACK
6
CONTINUOUS
10
62.7
20
-38.175
11
62.7
21
-37.175
0
LINE
8
BLACK
6
CONTINUOUS
10
62.7
20
-37.175
11
64.3
21
-37.175
0
LINE
8
BLACK
6
CONTINUOUS
10
64.3
20
-37.175
11
64.3
21
-38.175
0
LINE
8
BLACK
6
CONTINUOUS
10
59.5
20
-38.175
11
57.9
21
-38.175
0
LINE
8
BLACK
6
CONTINUOUS
10
57.9
20
-38.175
11
57.9
21
-37.175
0
LINE
8
BLACK
6
CONTINUOUS
10
57.9
20
-37.175
11
59.5
21
-37.175
0
LINE
8
BLACK
6
CONTINUOUS
10
59.5
20
-37.175
11
59.5
21
-38.175
0
LINE
8
BLACK
6
CONTINUOUS
10
121.45
20
-38.175
11
119.85
21
-38.175
0
LINE
8
BLACK
6
CONTINUOUS
10
119.85
20
-38.175
11
119.85
21
-37.175
0
LINE
8
BLACK
6
CONTINUOUS
10
119.85
20
-37.175
11
121.45
21
-37.175
0
LINE
8
BLACK
6
CONTINUOUS
10
121.45
20
-37.175
11
121.45
21
-38.175
0
LINE
8
BLACK
6
CONTINUOUS
10
230.95
20
-38.175
11
229.35
21
-38.175
0
LINE
8
BLACK
6
CONTINUOUS
10
229.35
20
-38.175
11
229.35
21
-37.175
0
LINE
8
BLACK
6
CONTINUOUS
10
229.35
20
-37.175
11
230.95
21
-37.175
0
LINE
8
BLACK
6
CONTINUOUS
10
230.95
20
-37.175
11
230.95
21
-38.175
0
LINE
8
BLACK
6
CONTINUOUS
10
235.75
20
-38.175
11
234.15
21
-38.175
0
LINE
8
BLACK
6
CONTINUOUS
10
234.15
20
-38.175
11
234.15
21
-37.175
0
LINE
8
BLACK
6
CONTINUOUS
10
234.15
20
-37.175
11
235.75
21
-37.175
0
LINE
8
BLACK
6
CONTINUOUS
10
235.75
20
-37.175
11
235.75
21
-38.175
0
LINE
8
BLACK
6
CONTINUOUS
10
116.65
20
-38.175
11
115.05
21
-38.175
0
LINE
8
BLACK
6
CONTINUOUS
10
115.05
20
-38.175
11
115.05
21
-37.175
0
LINE
8
BLACK
6
CONTINUOUS
10
115.05
20
-37.175
11
116.65
21
-37.175
0
LINE
8
BLACK
6
CONTINUOUS
10
116.65
20
-37.175
11
116.65
21
-38.175
0
LINE
8
BLACK
6
CONTINUOUS
10
211.9
20
-38.175
11
210.3
21
-38.175
0
LINE
8
BLACK
6
CONTINUOUS
10
210.3
20
-38.175
11
210.3
21
-37.175
0
LINE
8
BLACK
6
CONTINUOUS
10
210.3
20
-37.175
11
211.9
21
-37.175
0
LINE
8
BLACK
6
CONTINUOUS
10
211.9
20
-37.175
11
211.9
21
-38.175
0
LINE
8
BLACK
6
CONTINUOUS
10
216.7
20
-38.175
11
215.1
21
-38.175
0
LINE
8
BLACK
6
CONTINUOUS
10
215.1
20
-38.175
11
215.1
21
-37.175
0
LINE
8
BLACK
6
CONTINUOUS
10
215.1
20
-37.175
11
216.7
21
-37.175
0
LINE
8
BLACK
6
CONTINUOUS
10
216.7
20
-37.175
11
216.7
21
-38.175
0
LINE
8
BLACK
6
CONTINUOUS
10
102.4
20
-38.175
11
100.8
21
-38.175
0
LINE
8
BLACK
6
CONTINUOUS
10
100.8
20
-38.175
11
100.8
21
-37.175
0
LINE
8
BLACK
6
CONTINUOUS
10
100.8
20
-37.175
11
102.4
21
-37.175
0
LINE
8
BLACK
6
CONTINUOUS
10
102.4
20
-37.175
11
102.4
21
-38.175
0
LINE
8
BLACK
6
CONTINUOUS
10
192.85
20
-38.175
11
191.25
21
-38.175
0
LINE
8
BLACK
6
CONTINUOUS
10
191.25
20
-38.175
11
191.25
21
-37.175
0
LINE
8
BLACK
6
CONTINUOUS
10
191.25
20
-37.175
11
192.85
21
-37.175
0
LINE
8
BLACK
6
CONTINUOUS
10
192.85
20
-37.175
11
192.85
21
-38.175
0
LINE
8
BLACK
6
CONTINUOUS
10
197.65
20
-38.175
11
196.05
21
-38.175
0
LINE
8
BLACK
6
CONTINUOUS
10
196.05
20
-38.175
11
196.05
21
-37.175
0
LINE
8
BLACK
6
CONTINUOUS
10
196.05
20
-37.175
11
197.65
21
-37.175
0
LINE
8
BLACK
6
CONTINUOUS
10
197.65
20
-37.175
11
197.65
21
-38.175
0
LINE
8
BLACK
6
CONTINUOUS
10
97.6
20
-38.175
11
96
21
-38.175
0
LINE
8
BLACK
6
CONTINUOUS
10
96
20
-38.175
11
96
21
-37.175
0
LINE
8
BLACK
6
CONTINUOUS
10
96
20
-37.175
11
97.6
21
-37.175
0
LINE
8
BLACK
6
CONTINUOUS
10
97.6
20
-37.175
11
97.6
21
-38.175
0
LINE
8
BLACK
6
CONTINUOUS
10
173.8
20
-38.175
11
172.2
21
-38.175
0
LINE
8
BLACK
6
CONTINUOUS
10
172.2
20
-38.175
11
172.2
21
-37.175
0
LINE
8
BLACK
6
CONTINUOUS
10
172.2
20
-37.175
11
173.8
21
-37.175
0
LINE
8
BLACK
6
CONTINUOUS
10
173.8
20
-37.175
11
173.8
21
-38.175
0
LINE
8
BLACK
6
CONTINUOUS
10
178.6
20
-38.175
11
177
21
-38.175
0
LINE
8
BLACK
6
CONTINUOUS
10
177
20
-38.175
11
177
21
-37.175
0
LINE
8
BLACK
6
CONTINUOUS
10
177
20
-37.175
11
178.6
21
-37.175
0
LINE
8
BLACK
6
CONTINUOUS
10
178.6
20
-37.175
11
178.6
21
-38.175
0
LINE
8
BLACK
6
CONTINUOUS
10
83.35
20
-38.175
11
81.75
21
-38.175
0
LINE
8
BLACK
6
CONTINUOUS
10
81.75
20
-38.175
11
81.75
21
-37.175
0
LINE
8
BLACK
6
CONTINUOUS
10
81.75
20
-37.175
11
83.35
21
-37.175
0
LINE
8
BLACK
6
CONTINUOUS
10
83.35
20
-37.175
11
83.35
21
-38.175
0
LINE
8
BLACK
6
CONTINUOUS
10
159.55
20
-38.175
11
157.95
21
-38.175
0
LINE
8
BLACK
6
CONTINUOUS
10
157.95
20
-38.175
11
157.95
21
-37.175
0
LINE
8
BLACK
6
CONTINUOUS
10
157.95
20
-37.175
11
159.55
21
-37.175
0
LINE
8
BLACK
6
CONTINUOUS
10
159.55
20
-37.175
11
159.55
21
-38.175
0
LINE
8
BLACK
6
CONTINUOUS
10
154.75
20
-38.175
11
153.15
21
-38.175
0
LINE
8
BLACK
6
CONTINUOUS
10
153.15
20
-38.175
11
153.15
21
-37.175
0
LINE
8
BLACK
6
CONTINUOUS
10
153.15
20
-37.175
11
154.75
21
-37.175
0
LINE
8
BLACK
6
CONTINUOUS
10
154.75
20
-37.175
11
154.75
21
-38.175
0
LINE
8
BLACK
6
CONTINUOUS
10
102.4
20
-36.425
11
100.8
21
-36.425
0
LINE
8
BLACK
6
CONTINUOUS
10
100.8
20
-36.425
11
100.8
21
-35.425
0
LINE
8
BLACK
6
CONTINUOUS
10
100.8
20
-35.425
11
102.4
21
-35.425
0
LINE
8
BLACK
6
CONTINUOUS
10
102.4
20
-35.425
11
102.4
21
-36.425
0
LINE
8
BLACK
6
CONTINUOUS
10
116.65
20
-36.425
11
115.05
21
-36.425
0
LINE
8
BLACK
6
CONTINUOUS
10
115.05
20
-36.425
11
115.05
21
-35.425
0
LINE
8
BLACK
6
CONTINUOUS
10
115.05
20
-35.425
11
116.65
21
-35.425
0
LINE
8
BLACK
6
CONTINUOUS
10
116.65
20
-35.425
11
116.65
21
-36.425
0
LINE
8
BLACK
6
CONTINUOUS
10
97.6
20
-36.425
11
96
21
-36.425
0
LINE
8
BLACK
6
CONTINUOUS
10
96
20
-36.425
11
96
21
-35.425
0
LINE
8
BLACK
6
CONTINUOUS
10
96
20
-35.425
11
97.6
21
-35.425
0
LINE
8
BLACK
6
CONTINUOUS
10
97.6
20
-35.425
11
97.6
21
-36.425
0
LINE
8
BLACK
6
CONTINUOUS
10
83.35
20
-36.425
11
81.75
21
-36.425
0
LINE
8
BLACK
6
CONTINUOUS
10
81.75
20
-36.425
11
81.75
21
-35.425
0
LINE
8
BLACK
6
CONTINUOUS
10
81.75
20
-35.425
11
83.35
21
-35.425
0
LINE
8
BLACK
6
CONTINUOUS
10
83.35
20
-35.425
11
83.35
21
-36.425
0
LINE
8
BLACK
6
CONTINUOUS
10
121.45
20
-36.425
11
119.85
21
-36.425
0
LINE
8
BLACK
6
CONTINUOUS
10
119.85
20
-36.425
11
119.85
21
-35.425
0
LINE
8
BLACK
6
CONTINUOUS
10
119.85
20
-35.425
11
121.45
21
-35.425
0
LINE
8
BLACK
6
CONTINUOUS
10
121.45
20
-35.425
11
121.45
21
-36.425
0
LINE
8
BLACK
6
CONTINUOUS
10
140.5
20
-36.425
11
138.9
21
-36.425
0
LINE
8
BLACK
6
CONTINUOUS
10
138.9
20
-36.425
11
138.9
21
-35.425
0
LINE
8
BLACK
6
CONTINUOUS
10
138.9
20
-35.425
11
140.5
21
-35.425
0
LINE
8
BLACK
6
CONTINUOUS
10
140.5
20
-35.425
11
140.5
21
-36.425
0
LINE
8
BLACK
6
CONTINUOUS
10
230.95
20
-36.425
11
229.35
21
-36.425
0
LINE
8
BLACK
6
CONTINUOUS
10
229.35
20
-36.425
11
229.35
21
-35.425
0
LINE
8
BLACK
6
CONTINUOUS
10
229.35
20
-35.425
11
230.95
21
-35.425
0
LINE
8
BLACK
6
CONTINUOUS
10
230.95
20
-35.425
11
230.95
21
-36.425
0
LINE
8
BLACK
6
CONTINUOUS
10
135.7
20
-36.425
11
134.1
21
-36.425
0
LINE
8
BLACK
6
CONTINUOUS
10
134.1
20
-36.425
11
134.1
21
-35.425
0
LINE
8
BLACK
6
CONTINUOUS
10
134.1
20
-35.425
11
135.7
21
-35.425
0
LINE
8
BLACK
6
CONTINUOUS
10
135.7
20
-35.425
11
135.7
21
-36.425
0
LINE
8
BLACK
6
CONTINUOUS
10
78.55
20
-36.425
11
76.95
21
-36.425
0
LINE
8
BLACK
6
CONTINUOUS
10
76.95
20
-36.425
11
76.95
21
-35.425
0
LINE
8
BLACK
6
CONTINUOUS
10
76.95
20
-35.425
11
78.55
21
-35.425
0
LINE
8
BLACK
6
CONTINUOUS
10
78.55
20
-35.425
11
78.55
21
-36.425
0
LINE
8
BLACK
6
CONTINUOUS
10
64.3
20
-36.425
11
62.7
21
-36.425
0
LINE
8
BLACK
6
CONTINUOUS
10
62.7
20
-36.425
11
62.7
21
-35.425
0
LINE
8
BLACK
6
CONTINUOUS
10
62.7
20
-35.425
11
64.3
21
-35.425
0
LINE
8
BLACK
6
CONTINUOUS
10
64.3
20
-35.425
11
64.3
21
-36.425
0
LINE
8
BLACK
6
CONTINUOUS
10
59.5
20
-36.425
11
57.9
21
-36.425
0
LINE
8
BLACK
6
CONTINUOUS
10
57.9
20
-36.425
11
57.9
21
-35.425
0
LINE
8
BLACK
6
CONTINUOUS
10
57.9
20
-35.425
11
59.5
21
-35.425
0
LINE
8
BLACK
6
CONTINUOUS
10
59.5
20
-35.425
11
59.5
21
-36.425
0
LINE
8
BLACK
6
CONTINUOUS
10
235.75
20
-36.425
11
234.15
21
-36.425
0
LINE
8
BLACK
6
CONTINUOUS
10
234.15
20
-36.425
11
234.15
21
-35.425
0
LINE
8
BLACK
6
CONTINUOUS
10
234.15
20
-35.425
11
235.75
21
-35.425
0
LINE
8
BLACK
6
CONTINUOUS
10
235.75
20
-35.425
11
235.75
21
-36.425
0
LINE
8
BLACK
6
CONTINUOUS
10
211.9
20
-36.425
11
210.3
21
-36.425
0
LINE
8
BLACK
6
CONTINUOUS
10
210.3
20
-36.425
11
210.3
21
-35.425
0
LINE
8
BLACK
6
CONTINUOUS
10
210.3
20
-35.425
11
211.9
21
-35.425
0
LINE
8
BLACK
6
CONTINUOUS
10
211.9
20
-35.425
11
211.9
21
-36.425
0
LINE
8
BLACK
6
CONTINUOUS
10
216.7
20
-36.425
11
215.1
21
-36.425
0
LINE
8
BLACK
6
CONTINUOUS
10
215.1
20
-36.425
11
215.1
21
-35.425
0
LINE
8
BLACK
6
CONTINUOUS
10
215.1
20
-35.425
11
216.7
21
-35.425
0
LINE
8
BLACK
6
CONTINUOUS
10
216.7
20
-35.425
11
216.7
21
-36.425
0
LINE
8
BLACK
6
CONTINUOUS
10
192.85
20
-36.425
11
191.25
21
-36.425
0
LINE
8
BLACK
6
CONTINUOUS
10
191.25
20
-36.425
11
191.25
21
-35.425
0
LINE
8
BLACK
6
CONTINUOUS
10
191.25
20
-35.425
11
192.85
21
-35.425
0
LINE
8
BLACK
6
CONTINUOUS
10
192.85
20
-35.425
11
192.85
21
-36.425
0
LINE
8
BLACK
6
CONTINUOUS
10
197.65
20
-36.425
11
196.05
21
-36.425
0
LINE
8
BLACK
6
CONTINUOUS
10
196.05
20
-36.425
11
196.05
21
-35.425
0
LINE
8
BLACK
6
CONTINUOUS
10
196.05
20
-35.425
11
197.65
21
-35.425
0
LINE
8
BLACK
6
CONTINUOUS
10
197.65
20
-35.425
11
197.65
21
-36.425
0
LINE
8
BLACK
6
CONTINUOUS
10
173.8
20
-36.425
11
172.2
21
-36.425
0
LINE
8
BLACK
6
CONTINUOUS
10
172.2
20
-36.425
11
172.2
21
-35.425
0
LINE
8
BLACK
6
CONTINUOUS
10
172.2
20
-35.425
11
173.8
21
-35.425
0
LINE
8
BLACK
6
CONTINUOUS
10
173.8
20
-35.425
11
173.8
21
-36.425
0
LINE
8
BLACK
6
CONTINUOUS
10
178.6
20
-36.425
11
177
21
-36.425
0
LINE
8
BLACK
6
CONTINUOUS
10
177
20
-36.425
11
177
21
-35.425
0
LINE
8
BLACK
6
CONTINUOUS
10
177
20
-35.425
11
178.6
21
-35.425
0
LINE
8
BLACK
6
CONTINUOUS
10
178.6
20
-35.425
11
178.6
21
-36.425
0
LINE
8
BLACK
6
CONTINUOUS
10
159.55
20
-36.425
11
157.95
21
-36.425
0
LINE
8
BLACK
6
CONTINUOUS
10
157.95
20
-36.425
11
157.95
21
-35.425
0
LINE
8
BLACK
6
CONTINUOUS
10
157.95
20
-35.425
11
159.55
21
-35.425
0
LINE
8
BLACK
6
CONTINUOUS
10
159.55
20
-35.425
11
159.55
21
-36.425
0
LINE
8
BLACK
6
CONTINUOUS
10
154.75
20
-36.425
11
153.15
21
-36.425
0
LINE
8
BLACK
6
CONTINUOUS
10
153.15
20
-36.425
11
153.15
21
-35.425
0
LINE
8
BLACK
6
CONTINUOUS
10
153.15
20
-35.425
11
154.75
21
-35.425
0
LINE
8
BLACK
6
CONTINUOUS
10
154.75
20
-35.425
11
154.75
21
-36.425
  0
ENDSEC
  0
EOF
