  0
SECTION
  2
HEADER
  9
$ANGBASE
  50
0.0
  9
$ANGDIR
  70
1
  9
$MEASUREMENT
  70
1
  0
ENDSEC
  0
SECTION
  2
TABLES
  0
TABLE
  2
LTYPE
  70
4
  0
LTYPE
  5
40F
  2
CONTINUOUS
  70
0
  3
Solid line
  72
65
  73
0
  40
0.0
  0
LTYPE
  5
410
  2
DASHDOT
 70
0
  3
Dash Dot ____ _ ____ _
 72
65
 73
4
 40
2.0
 49
1.25
 49
-0.25
 49
0.25
 49
-0.25
  0
LTYPE
  5
411
  2
DASHED
 70
0
  3
Dashed __ __ __ __ __
 72
65
 73
2
 40
0.75
 49
0.5
 49
-0.25
  0
LTYPE
  5
43B
  2
DOTTED
 70
0
  3
Dotted .  .  .  .
 72
65
 73
2
 40
0.2
 49
0.0
 49
-0.2
  0
ENDTAB
  0
TABLE
  2
STYLE
  70
4
  0
STYLE
  2
KICAD
  70
0
  40
0
  41
1
  42
1
  50
0
  71
0
  3
isocp.shx
  0
STYLE
  2
KICADB
  70
0
  40
0
  41
1
  42
1
  50
0
  71
0
  3
isocp.shx
  0
STYLE
  2
KICADI
  70
0
  40
0
  41
1
  42
1
  50
15
  71
0
  3
isocp.shx
  0
STYLE
  2
KICADBI
  70
0
  40
0
  41
1
  42
1
  50
15
  71
0
  3
isocp.shx
  0
ENDTAB
  0
TABLE
  2
LAYER
  70
1
  0
LAYER
  2
BLACK
  70
0
  62
7
  6
CONTINUOUS
  0
ENDTAB
  0
ENDSEC
  0
SECTION
  2
ENTITIES
0
LINE
8
BLACK
6
CONTINUOUS
10
51.575
20
-32.775
11
70.625
21
-32.775
0
LINE
8
BLACK
6
CONTINUOUS
10
70.625
20
-32.775
11
70.625
21
-51.825
0
LINE
8
BLACK
6
CONTINUOUS
10
70.625
20
-51.825
11
51.575
21
-51.825
0
LINE
8
BLACK
6
CONTINUOUS
10
51.575
20
-51.825
11
51.575
21
-32.775
0
LINE
8
BLACK
6
CONTINUOUS
10
70.625
20
-51.825
11
70.625
21
-32.775
0
LINE
8
BLACK
6
CONTINUOUS
10
89.675
20
-51.825
11
70.625
21
-51.825
0
LINE
8
BLACK
6
CONTINUOUS
10
89.675
20
-32.775
11
89.675
21
-51.825
0
LINE
8
BLACK
6
CONTINUOUS
10
70.625
20
-32.775
11
89.675
21
-32.775
0
LINE
8
BLACK
6
CONTINUOUS
10
89.675
20
-32.775
11
108.725
21
-32.775
0
LINE
8
BLACK
6
CONTINUOUS
10
108.725
20
-32.775
11
108.725
21
-51.825
0
LINE
8
BLACK
6
CONTINUOUS
10
108.725
20
-51.825
11
89.675
21
-51.825
0
LINE
8
BLACK
6
CONTINUOUS
10
89.675
20
-51.825
11
89.675
21
-32.775
0
LINE
8
BLACK
6
CONTINUOUS
10
108.725
20
-51.825
11
108.725
21
-32.775
0
LINE
8
BLACK
6
CONTINUOUS
10
127.775
20
-51.825
11
108.725
21
-51.825
0
LINE
8
BLACK
6
CONTINUOUS
10
127.775
20
-32.775
11
127.775
21
-51.825
0
LINE
8
BLACK
6
CONTINUOUS
10
108.725
20
-32.775
11
127.775
21
-32.775
0
LINE
8
BLACK
6
CONTINUOUS
10
127.775
20
-32.775
11
146.825
21
-32.775
0
LINE
8
BLACK
6
CONTINUOUS
10
146.825
20
-32.775
11
146.825
21
-51.825
0
LINE
8
BLACK
6
CONTINUOUS
10
146.825
20
-51.825
11
127.775
21
-51.825
0
LINE
8
BLACK
6
CONTINUOUS
10
127.775
20
-51.825
11
127.775
21
-32.775
0
LINE
8
BLACK
6
CONTINUOUS
10
146.825
20
-51.825
11
146.825
21
-32.775
0
LINE
8
BLACK
6
CONTINUOUS
10
165.875
20
-51.825
11
146.825
21
-51.825
0
LINE
8
BLACK
6
CONTINUOUS
10
165.875
20
-32.775
11
165.875
21
-51.825
0
LINE
8
BLACK
6
CONTINUOUS
10
146.825
20
-32.775
11
165.875
21
-32.775
0
LINE
8
BLACK
6
CONTINUOUS
10
165.875
20
-51.825
11
165.875
21
-32.775
0
LINE
8
BLACK
6
CONTINUOUS
10
184.925
20
-51.825
11
165.875
21
-51.825
0
LINE
8
BLACK
6
CONTINUOUS
10
184.925
20
-32.775
11
184.925
21
-51.825
0
LINE
8
BLACK
6
CONTINUOUS
10
165.875
20
-32.775
11
184.925
21
-32.775
0
LINE
8
BLACK
6
CONTINUOUS
10
184.925
20
-32.775
11
203.975
21
-32.775
0
LINE
8
BLACK
6
CONTINUOUS
10
203.975
20
-32.775
11
203.975
21
-51.825
0
LINE
8
BLACK
6
CONTINUOUS
10
203.975
20
-51.825
11
184.925
21
-51.825
0
LINE
8
BLACK
6
CONTINUOUS
10
184.925
20
-51.825
11
184.925
21
-32.775
0
LINE
8
BLACK
6
CONTINUOUS
10
203.975
20
-51.825
11
203.975
21
-32.775
0
LINE
8
BLACK
6
CONTINUOUS
10
223.025
20
-51.825
11
203.975
21
-51.825
0
LINE
8
BLACK
6
CONTINUOUS
10
223.025
20
-32.775
11
223.025
21
-51.825
0
LINE
8
BLACK
6
CONTINUOUS
10
203.975
20
-32.775
11
223.025
21
-32.775
0
LINE
8
BLACK
6
CONTINUOUS
10
223.025
20
-51.825
11
223.025
21
-32.775
0
LINE
8
BLACK
6
CONTINUOUS
10
242.075
20
-51.825
11
223.025
21
-51.825
0
LINE
8
BLACK
6
CONTINUOUS
10
242.075
20
-32.775
11
242.075
21
-51.825
0
LINE
8
BLACK
6
CONTINUOUS
10
223.025
20
-32.775
11
242.075
21
-32.775
0
LINE
8
BLACK
6
CONTINUOUS
10
51.575
20
-51.825
11
70.625
21
-51.825
0
LINE
8
BLACK
6
CONTINUOUS
10
70.625
20
-51.825
11
70.625
21
-70.875
0
LINE
8
BLACK
6
CONTINUOUS
10
70.625
20
-70.875
11
51.575
21
-70.875
0
LINE
8
BLACK
6
CONTINUOUS
10
51.575
20
-70.875
11
51.575
21
-51.825
0
LINE
8
BLACK
6
CONTINUOUS
10
70.625
20
-51.825
11
89.675
21
-51.825
0
LINE
8
BLACK
6
CONTINUOUS
10
89.675
20
-51.825
11
89.675
21
-70.875
0
LINE
8
BLACK
6
CONTINUOUS
10
89.675
20
-70.875
11
70.625
21
-70.875
0
LINE
8
BLACK
6
CONTINUOUS
10
70.625
20
-70.875
11
70.625
21
-51.825
0
LINE
8
BLACK
6
CONTINUOUS
10
89.675
20
-70.875
11
89.675
21
-51.825
0
LINE
8
BLACK
6
CONTINUOUS
10
108.725
20
-70.875
11
89.675
21
-70.875
0
LINE
8
BLACK
6
CONTINUOUS
10
108.725
20
-51.825
11
108.725
21
-70.875
0
LINE
8
BLACK
6
CONTINUOUS
10
89.675
20
-51.825
11
108.725
21
-51.825
0
LINE
8
BLACK
6
CONTINUOUS
10
108.725
20
-51.825
11
127.775
21
-51.825
0
LINE
8
BLACK
6
CONTINUOUS
10
127.775
20
-51.825
11
127.775
21
-70.875
0
LINE
8
BLACK
6
CONTINUOUS
10
127.775
20
-70.875
11
108.725
21
-70.875
0
LINE
8
BLACK
6
CONTINUOUS
10
108.725
20
-70.875
11
108.725
21
-51.825
0
LINE
8
BLACK
6
CONTINUOUS
10
127.775
20
-51.825
11
146.825
21
-51.825
0
LINE
8
BLACK
6
CONTINUOUS
10
146.825
20
-51.825
11
146.825
21
-70.875
0
LINE
8
BLACK
6
CONTINUOUS
10
146.825
20
-70.875
11
127.775
21
-70.875
0
LINE
8
BLACK
6
CONTINUOUS
10
127.775
20
-70.875
11
127.775
21
-51.825
0
LINE
8
BLACK
6
CONTINUOUS
10
146.825
20
-70.875
11
146.825
21
-51.825
0
LINE
8
BLACK
6
CONTINUOUS
10
165.875
20
-70.875
11
146.825
21
-70.875
0
LINE
8
BLACK
6
CONTINUOUS
10
165.875
20
-51.825
11
165.875
21
-70.875
0
LINE
8
BLACK
6
CONTINUOUS
10
146.825
20
-51.825
11
165.875
21
-51.825
0
LINE
8
BLACK
6
CONTINUOUS
10
165.875
20
-51.825
11
184.925
21
-51.825
0
LINE
8
BLACK
6
CONTINUOUS
10
184.925
20
-51.825
11
184.925
21
-70.875
0
LINE
8
BLACK
6
CONTINUOUS
10
184.925
20
-70.875
11
165.875
21
-70.875
0
LINE
8
BLACK
6
CONTINUOUS
10
165.875
20
-70.875
11
165.875
21
-51.825
0
LINE
8
BLACK
6
CONTINUOUS
10
184.925
20
-51.825
11
203.975
21
-51.825
0
LINE
8
BLACK
6
CONTINUOUS
10
203.975
20
-51.825
11
203.975
21
-70.875
0
LINE
8
BLACK
6
CONTINUOUS
10
203.975
20
-70.875
11
184.925
21
-70.875
0
LINE
8
BLACK
6
CONTINUOUS
10
184.925
20
-70.875
11
184.925
21
-51.825
0
LINE
8
BLACK
6
CONTINUOUS
10
203.975
20
-70.875
11
203.975
21
-51.825
0
LINE
8
BLACK
6
CONTINUOUS
10
223.025
20
-70.875
11
203.975
21
-70.875
0
LINE
8
BLACK
6
CONTINUOUS
10
223.025
20
-51.825
11
223.025
21
-70.875
0
LINE
8
BLACK
6
CONTINUOUS
10
203.975
20
-51.825
11
223.025
21
-51.825
0
LINE
8
BLACK
6
CONTINUOUS
10
223.025
20
-51.825
11
242.075
21
-51.825
0
LINE
8
BLACK
6
CONTINUOUS
10
242.075
20
-51.825
11
242.075
21
-70.875
0
LINE
8
BLACK
6
CONTINUOUS
10
242.075
20
-70.875
11
223.025
21
-70.875
0
LINE
8
BLACK
6
CONTINUOUS
10
223.025
20
-70.875
11
223.025
21
-51.825
0
LINE
8
BLACK
6
CONTINUOUS
10
51.575
20
-89.925
11
51.575
21
-70.875
0
LINE
8
BLACK
6
CONTINUOUS
10
70.625
20
-89.925
11
51.575
21
-89.925
0
LINE
8
BLACK
6
CONTINUOUS
10
70.625
20
-70.875
11
70.625
21
-89.925
0
LINE
8
BLACK
6
CONTINUOUS
10
51.575
20
-70.875
11
70.625
21
-70.875
0
LINE
8
BLACK
6
CONTINUOUS
10
70.625
20
-70.875
11
89.675
21
-70.875
0
LINE
8
BLACK
6
CONTINUOUS
10
89.675
20
-70.875
11
89.675
21
-89.925
0
LINE
8
BLACK
6
CONTINUOUS
10
89.675
20
-89.925
11
70.625
21
-89.925
0
LINE
8
BLACK
6
CONTINUOUS
10
70.625
20
-89.925
11
70.625
21
-70.875
0
LINE
8
BLACK
6
CONTINUOUS
10
89.675
20
-70.875
11
108.725
21
-70.875
0
LINE
8
BLACK
6
CONTINUOUS
10
108.725
20
-70.875
11
108.725
21
-89.925
0
LINE
8
BLACK
6
CONTINUOUS
10
108.725
20
-89.925
11
89.675
21
-89.925
0
LINE
8
BLACK
6
CONTINUOUS
10
89.675
20
-89.925
11
89.675
21
-70.875
0
LINE
8
BLACK
6
CONTINUOUS
10
108.725
20
-89.925
11
108.725
21
-70.875
0
LINE
8
BLACK
6
CONTINUOUS
10
127.775
20
-89.925
11
108.725
21
-89.925
0
LINE
8
BLACK
6
CONTINUOUS
10
127.775
20
-70.875
11
127.775
21
-89.925
0
LINE
8
BLACK
6
CONTINUOUS
10
108.725
20
-70.875
11
127.775
21
-70.875
0
LINE
8
BLACK
6
CONTINUOUS
10
127.775
20
-89.925
11
127.775
21
-70.875
0
LINE
8
BLACK
6
CONTINUOUS
10
146.825
20
-89.925
11
127.775
21
-89.925
0
LINE
8
BLACK
6
CONTINUOUS
10
146.825
20
-70.875
11
146.825
21
-89.925
0
LINE
8
BLACK
6
CONTINUOUS
10
127.775
20
-70.875
11
146.825
21
-70.875
0
LINE
8
BLACK
6
CONTINUOUS
10
146.825
20
-70.875
11
165.875
21
-70.875
0
LINE
8
BLACK
6
CONTINUOUS
10
165.875
20
-70.875
11
165.875
21
-89.925
0
LINE
8
BLACK
6
CONTINUOUS
10
165.875
20
-89.925
11
146.825
21
-89.925
0
LINE
8
BLACK
6
CONTINUOUS
10
146.825
20
-89.925
11
146.825
21
-70.875
0
LINE
8
BLACK
6
CONTINUOUS
10
165.875
20
-70.875
11
184.925
21
-70.875
0
LINE
8
BLACK
6
CONTINUOUS
10
184.925
20
-70.875
11
184.925
21
-89.925
0
LINE
8
BLACK
6
CONTINUOUS
10
184.925
20
-89.925
11
165.875
21
-89.925
0
LINE
8
BLACK
6
CONTINUOUS
10
165.875
20
-89.925
11
165.875
21
-70.875
0
LINE
8
BLACK
6
CONTINUOUS
10
184.925
20
-89.925
11
184.925
21
-70.875
0
LINE
8
BLACK
6
CONTINUOUS
10
203.975
20
-89.925
11
184.925
21
-89.925
0
LINE
8
BLACK
6
CONTINUOUS
10
203.975
20
-70.875
11
203.975
21
-89.925
0
LINE
8
BLACK
6
CONTINUOUS
10
184.925
20
-70.875
11
203.975
21
-70.875
0
LINE
8
BLACK
6
CONTINUOUS
10
203.975
20
-89.925
11
203.975
21
-70.875
0
LINE
8
BLACK
6
CONTINUOUS
10
223.025
20
-89.925
11
203.975
21
-89.925
0
LINE
8
BLACK
6
CONTINUOUS
10
223.025
20
-70.875
11
223.025
21
-89.925
0
LINE
8
BLACK
6
CONTINUOUS
10
203.975
20
-70.875
11
223.025
21
-70.875
0
LINE
8
BLACK
6
CONTINUOUS
10
223.025
20
-70.875
11
242.075
21
-70.875
0
LINE
8
BLACK
6
CONTINUOUS
10
242.075
20
-70.875
11
242.075
21
-89.925
0
LINE
8
BLACK
6
CONTINUOUS
10
242.075
20
-89.925
11
223.025
21
-89.925
0
LINE
8
BLACK
6
CONTINUOUS
10
223.025
20
-89.925
11
223.025
21
-70.875
0
LINE
8
BLACK
6
CONTINUOUS
10
51.575
20
-108.975
11
51.575
21
-89.925
0
LINE
8
BLACK
6
CONTINUOUS
10
70.625
20
-108.975
11
51.575
21
-108.975
0
LINE
8
BLACK
6
CONTINUOUS
10
70.625
20
-89.925
11
70.625
21
-108.975
0
LINE
8
BLACK
6
CONTINUOUS
10
51.575
20
-89.925
11
70.625
21
-89.925
0
LINE
8
BLACK
6
CONTINUOUS
10
70.625
20
-108.975
11
70.625
21
-89.925
0
LINE
8
BLACK
6
CONTINUOUS
10
89.675
20
-108.975
11
70.625
21
-108.975
0
LINE
8
BLACK
6
CONTINUOUS
10
89.675
20
-89.925
11
89.675
21
-108.975
0
LINE
8
BLACK
6
CONTINUOUS
10
70.625
20
-89.925
11
89.675
21
-89.925
0
LINE
8
BLACK
6
CONTINUOUS
10
89.675
20
-89.925
11
108.725
21
-89.925
0
LINE
8
BLACK
6
CONTINUOUS
10
108.725
20
-89.925
11
108.725
21
-108.975
0
LINE
8
BLACK
6
CONTINUOUS
10
108.725
20
-108.975
11
89.675
21
-108.975
0
LINE
8
BLACK
6
CONTINUOUS
10
89.675
20
-108.975
11
89.675
21
-89.925
0
LINE
8
BLACK
6
CONTINUOUS
10
108.725
20
-108.975
11
108.725
21
-89.925
0
LINE
8
BLACK
6
CONTINUOUS
10
127.775
20
-108.975
11
108.725
21
-108.975
0
LINE
8
BLACK
6
CONTINUOUS
10
127.775
20
-89.925
11
127.775
21
-108.975
0
LINE
8
BLACK
6
CONTINUOUS
10
108.725
20
-89.925
11
127.775
21
-89.925
0
LINE
8
BLACK
6
CONTINUOUS
10
127.775
20
-89.925
11
146.825
21
-89.925
0
LINE
8
BLACK
6
CONTINUOUS
10
146.825
20
-89.925
11
146.825
21
-108.975
0
LINE
8
BLACK
6
CONTINUOUS
10
146.825
20
-108.975
11
127.775
21
-108.975
0
LINE
8
BLACK
6
CONTINUOUS
10
127.775
20
-108.975
11
127.775
21
-89.925
0
LINE
8
BLACK
6
CONTINUOUS
10
146.825
20
-108.975
11
146.825
21
-89.925
0
LINE
8
BLACK
6
CONTINUOUS
10
165.875
20
-108.975
11
146.825
21
-108.975
0
LINE
8
BLACK
6
CONTINUOUS
10
165.875
20
-89.925
11
165.875
21
-108.975
0
LINE
8
BLACK
6
CONTINUOUS
10
146.825
20
-89.925
11
165.875
21
-89.925
0
LINE
8
BLACK
6
CONTINUOUS
10
165.875
20
-108.975
11
165.875
21
-89.925
0
LINE
8
BLACK
6
CONTINUOUS
10
184.925
20
-108.975
11
165.875
21
-108.975
0
LINE
8
BLACK
6
CONTINUOUS
10
184.925
20
-89.925
11
184.925
21
-108.975
0
LINE
8
BLACK
6
CONTINUOUS
10
165.875
20
-89.925
11
184.925
21
-89.925
0
LINE
8
BLACK
6
CONTINUOUS
10
184.925
20
-108.975
11
184.925
21
-89.925
0
LINE
8
BLACK
6
CONTINUOUS
10
203.975
20
-108.975
11
184.925
21
-108.975
0
LINE
8
BLACK
6
CONTINUOUS
10
203.975
20
-89.925
11
203.975
21
-108.975
0
LINE
8
BLACK
6
CONTINUOUS
10
184.925
20
-89.925
11
203.975
21
-89.925
0
LINE
8
BLACK
6
CONTINUOUS
10
203.975
20
-108.975
11
203.975
21
-89.925
0
LINE
8
BLACK
6
CONTINUOUS
10
223.025
20
-108.975
11
203.975
21
-108.975
0
LINE
8
BLACK
6
CONTINUOUS
10
223.025
20
-89.925
11
223.025
21
-108.975
0
LINE
8
BLACK
6
CONTINUOUS
10
203.975
20
-89.925
11
223.025
21
-89.925
0
LINE
8
BLACK
6
CONTINUOUS
10
223.025
20
-89.925
11
242.075
21
-89.925
0
LINE
8
BLACK
6
CONTINUOUS
10
242.075
20
-89.925
11
242.075
21
-108.975
0
LINE
8
BLACK
6
CONTINUOUS
10
242.075
20
-108.975
11
223.025
21
-108.975
0
LINE
8
BLACK
6
CONTINUOUS
10
223.025
20
-108.975
11
223.025
21
-89.925
0
LINE
8
BLACK
6
CONTINUOUS
10
32.525
20
-70.875
11
51.575
21
-70.875
0
LINE
8
BLACK
6
CONTINUOUS
10
51.575
20
-70.875
11
51.575
21
-89.925
0
LINE
8
BLACK
6
CONTINUOUS
10
51.575
20
-89.925
11
32.525
21
-89.925
0
LINE
8
BLACK
6
CONTINUOUS
10
32.525
20
-89.925
11
32.525
21
-70.875
0
LINE
8
BLACK
6
CONTINUOUS
10
32.525
20
-89.925
11
51.575
21
-89.925
0
LINE
8
BLACK
6
CONTINUOUS
10
51.575
20
-89.925
11
51.575
21
-108.975
0
LINE
8
BLACK
6
CONTINUOUS
10
51.575
20
-108.975
11
32.525
21
-108.975
0
LINE
8
BLACK
6
CONTINUOUS
10
32.525
20
-108.975
11
32.525
21
-89.925
  0
ENDSEC
  0
EOF
