  0
SECTION
  2
HEADER
  9
$ANGBASE
  50
0.0
  9
$ANGDIR
  70
1
  9
$MEASUREMENT
  70
1
  0
ENDSEC
  0
SECTION
  2
TABLES
  0
TABLE
  2
LTYPE
  70
4
  0
LTYPE
  5
40F
  2
CONTINUOUS
  70
0
  3
Solid line
  72
65
  73
0
  40
0.0
  0
LTYPE
  5
410
  2
DASHDOT
 70
0
  3
Dash Dot ____ _ ____ _
 72
65
 73
4
 40
2.0
 49
1.25
 49
-0.25
 49
0.25
 49
-0.25
  0
LTYPE
  5
411
  2
DASHED
 70
0
  3
Dashed __ __ __ __ __
 72
65
 73
2
 40
0.75
 49
0.5
 49
-0.25
  0
LTYPE
  5
43B
  2
DOTTED
 70
0
  3
Dotted .  .  .  .
 72
65
 73
2
 40
0.2
 49
0.0
 49
-0.2
  0
ENDTAB
  0
TABLE
  2
STYLE
  70
4
  0
STYLE
  2
KICAD
  70
0
  40
0
  41
1
  42
1
  50
0
  71
0
  3
isocp.shx
  0
STYLE
  2
KICADB
  70
0
  40
0
  41
1
  42
1
  50
0
  71
0
  3
isocp.shx
  0
STYLE
  2
KICADI
  70
0
  40
0
  41
1
  42
1
  50
15
  71
0
  3
isocp.shx
  0
STYLE
  2
KICADBI
  70
0
  40
0
  41
1
  42
1
  50
15
  71
0
  3
isocp.shx
  0
ENDTAB
  0
TABLE
  2
LAYER
  70
1
  0
LAYER
  2
BLACK
  70
0
  62
7
  6
CONTINUOUS
  0
ENDTAB
  0
ENDSEC
  0
SECTION
  2
ENTITIES
0
LINE
8
BLACK
6
CONTINUOUS
10
59.35
20
-34.55
11
62.85
21
-34.55
0
LINE
8
BLACK
6
CONTINUOUS
10
62.85
20
-39.05
11
59.35
21
-39.05
0
LINE
8
BLACK
6
CONTINUOUS
10
59.35
20
-39.05
11
59.35
21
-34.55
0
LINE
8
BLACK
6
CONTINUOUS
10
62.85
20
-39.05
11
62.85
21
-34.55
0
LINE
8
BLACK
6
CONTINUOUS
10
78.4
20
-34.55
11
81.9
21
-34.55
0
LINE
8
BLACK
6
CONTINUOUS
10
81.9
20
-39.05
11
78.4
21
-39.05
0
LINE
8
BLACK
6
CONTINUOUS
10
78.4
20
-39.05
11
78.4
21
-34.55
0
LINE
8
BLACK
6
CONTINUOUS
10
81.9
20
-39.05
11
81.9
21
-34.55
0
LINE
8
BLACK
6
CONTINUOUS
10
97.45
20
-34.55
11
100.95
21
-34.55
0
LINE
8
BLACK
6
CONTINUOUS
10
100.95
20
-39.05
11
97.45
21
-39.05
0
LINE
8
BLACK
6
CONTINUOUS
10
97.45
20
-39.05
11
97.45
21
-34.55
0
LINE
8
BLACK
6
CONTINUOUS
10
100.95
20
-39.05
11
100.95
21
-34.55
0
LINE
8
BLACK
6
CONTINUOUS
10
116.5
20
-34.55
11
120
21
-34.55
0
LINE
8
BLACK
6
CONTINUOUS
10
120
20
-39.05
11
116.5
21
-39.05
0
LINE
8
BLACK
6
CONTINUOUS
10
116.5
20
-39.05
11
116.5
21
-34.55
0
LINE
8
BLACK
6
CONTINUOUS
10
120
20
-39.05
11
120
21
-34.55
0
LINE
8
BLACK
6
CONTINUOUS
10
139.05
20
-39.05
11
139.05
21
-34.55
0
LINE
8
BLACK
6
CONTINUOUS
10
135.55
20
-39.05
11
135.55
21
-34.55
0
LINE
8
BLACK
6
CONTINUOUS
10
139.05
20
-39.05
11
135.55
21
-39.05
0
LINE
8
BLACK
6
CONTINUOUS
10
135.55
20
-34.55
11
139.05
21
-34.55
0
LINE
8
BLACK
6
CONTINUOUS
10
154.6
20
-34.55
11
158.1
21
-34.55
0
LINE
8
BLACK
6
CONTINUOUS
10
158.1
20
-39.05
11
154.6
21
-39.05
0
LINE
8
BLACK
6
CONTINUOUS
10
154.6
20
-39.05
11
154.6
21
-34.55
0
LINE
8
BLACK
6
CONTINUOUS
10
158.1
20
-39.05
11
158.1
21
-34.55
0
LINE
8
BLACK
6
CONTINUOUS
10
177.15
20
-39.05
11
177.15
21
-34.55
0
LINE
8
BLACK
6
CONTINUOUS
10
173.65
20
-39.05
11
173.65
21
-34.55
0
LINE
8
BLACK
6
CONTINUOUS
10
177.15
20
-39.05
11
173.65
21
-39.05
0
LINE
8
BLACK
6
CONTINUOUS
10
173.65
20
-34.55
11
177.15
21
-34.55
0
LINE
8
BLACK
6
CONTINUOUS
10
196.2
20
-39.05
11
196.2
21
-34.55
0
LINE
8
BLACK
6
CONTINUOUS
10
192.7
20
-39.05
11
192.7
21
-34.55
0
LINE
8
BLACK
6
CONTINUOUS
10
196.2
20
-39.05
11
192.7
21
-39.05
0
LINE
8
BLACK
6
CONTINUOUS
10
192.7
20
-34.55
11
196.2
21
-34.55
0
LINE
8
BLACK
6
CONTINUOUS
10
215.25
20
-39.05
11
215.25
21
-34.55
0
LINE
8
BLACK
6
CONTINUOUS
10
211.75
20
-39.05
11
211.75
21
-34.55
0
LINE
8
BLACK
6
CONTINUOUS
10
215.25
20
-39.05
11
211.75
21
-39.05
0
LINE
8
BLACK
6
CONTINUOUS
10
211.75
20
-34.55
11
215.25
21
-34.55
0
LINE
8
BLACK
6
CONTINUOUS
10
234.3
20
-39.05
11
234.3
21
-34.55
0
LINE
8
BLACK
6
CONTINUOUS
10
230.8
20
-39.05
11
230.8
21
-34.55
0
LINE
8
BLACK
6
CONTINUOUS
10
234.3
20
-39.05
11
230.8
21
-39.05
0
LINE
8
BLACK
6
CONTINUOUS
10
230.8
20
-34.55
11
234.3
21
-34.55
0
LINE
8
BLACK
6
CONTINUOUS
10
62.85
20
-58.1
11
62.85
21
-53.6
0
LINE
8
BLACK
6
CONTINUOUS
10
59.35
20
-58.1
11
59.35
21
-53.6
0
LINE
8
BLACK
6
CONTINUOUS
10
62.85
20
-58.1
11
59.35
21
-58.1
0
LINE
8
BLACK
6
CONTINUOUS
10
59.35
20
-53.6
11
62.85
21
-53.6
0
LINE
8
BLACK
6
CONTINUOUS
10
78.4
20
-53.6
11
81.9
21
-53.6
0
LINE
8
BLACK
6
CONTINUOUS
10
81.9
20
-58.1
11
78.4
21
-58.1
0
LINE
8
BLACK
6
CONTINUOUS
10
78.4
20
-58.1
11
78.4
21
-53.6
0
LINE
8
BLACK
6
CONTINUOUS
10
81.9
20
-58.1
11
81.9
21
-53.6
0
LINE
8
BLACK
6
CONTINUOUS
10
100.95
20
-58.1
11
100.95
21
-53.6
0
LINE
8
BLACK
6
CONTINUOUS
10
97.45
20
-58.1
11
97.45
21
-53.6
0
LINE
8
BLACK
6
CONTINUOUS
10
100.95
20
-58.1
11
97.45
21
-58.1
0
LINE
8
BLACK
6
CONTINUOUS
10
97.45
20
-53.6
11
100.95
21
-53.6
0
LINE
8
BLACK
6
CONTINUOUS
10
116.5
20
-53.6
11
120
21
-53.6
0
LINE
8
BLACK
6
CONTINUOUS
10
120
20
-58.1
11
116.5
21
-58.1
0
LINE
8
BLACK
6
CONTINUOUS
10
116.5
20
-58.1
11
116.5
21
-53.6
0
LINE
8
BLACK
6
CONTINUOUS
10
120
20
-58.1
11
120
21
-53.6
0
LINE
8
BLACK
6
CONTINUOUS
10
139.05
20
-58.1
11
139.05
21
-53.6
0
LINE
8
BLACK
6
CONTINUOUS
10
135.55
20
-58.1
11
135.55
21
-53.6
0
LINE
8
BLACK
6
CONTINUOUS
10
139.05
20
-58.1
11
135.55
21
-58.1
0
LINE
8
BLACK
6
CONTINUOUS
10
135.55
20
-53.6
11
139.05
21
-53.6
0
LINE
8
BLACK
6
CONTINUOUS
10
154.6
20
-53.6
11
158.1
21
-53.6
0
LINE
8
BLACK
6
CONTINUOUS
10
158.1
20
-58.1
11
154.6
21
-58.1
0
LINE
8
BLACK
6
CONTINUOUS
10
154.6
20
-58.1
11
154.6
21
-53.6
0
LINE
8
BLACK
6
CONTINUOUS
10
158.1
20
-58.1
11
158.1
21
-53.6
0
LINE
8
BLACK
6
CONTINUOUS
10
177.15
20
-58.1
11
177.15
21
-53.6
0
LINE
8
BLACK
6
CONTINUOUS
10
173.65
20
-58.1
11
173.65
21
-53.6
0
LINE
8
BLACK
6
CONTINUOUS
10
177.15
20
-58.1
11
173.65
21
-58.1
0
LINE
8
BLACK
6
CONTINUOUS
10
173.65
20
-53.6
11
177.15
21
-53.6
0
LINE
8
BLACK
6
CONTINUOUS
10
196.2
20
-58.1
11
196.2
21
-53.6
0
LINE
8
BLACK
6
CONTINUOUS
10
192.7
20
-58.1
11
192.7
21
-53.6
0
LINE
8
BLACK
6
CONTINUOUS
10
196.2
20
-58.1
11
192.7
21
-58.1
0
LINE
8
BLACK
6
CONTINUOUS
10
192.7
20
-53.6
11
196.2
21
-53.6
0
LINE
8
BLACK
6
CONTINUOUS
10
211.75
20
-53.6
11
215.25
21
-53.6
0
LINE
8
BLACK
6
CONTINUOUS
10
215.25
20
-58.1
11
211.75
21
-58.1
0
LINE
8
BLACK
6
CONTINUOUS
10
211.75
20
-58.1
11
211.75
21
-53.6
0
LINE
8
BLACK
6
CONTINUOUS
10
215.25
20
-58.1
11
215.25
21
-53.6
0
LINE
8
BLACK
6
CONTINUOUS
10
234.3
20
-58.1
11
234.3
21
-53.6
0
LINE
8
BLACK
6
CONTINUOUS
10
230.8
20
-58.1
11
230.8
21
-53.6
0
LINE
8
BLACK
6
CONTINUOUS
10
234.3
20
-58.1
11
230.8
21
-58.1
0
LINE
8
BLACK
6
CONTINUOUS
10
230.8
20
-53.6
11
234.3
21
-53.6
0
LINE
8
BLACK
6
CONTINUOUS
10
59.35
20
-72.65
11
62.85
21
-72.65
0
LINE
8
BLACK
6
CONTINUOUS
10
62.85
20
-77.15
11
59.35
21
-77.15
0
LINE
8
BLACK
6
CONTINUOUS
10
59.35
20
-77.15
11
59.35
21
-72.65
0
LINE
8
BLACK
6
CONTINUOUS
10
62.85
20
-77.15
11
62.85
21
-72.65
0
LINE
8
BLACK
6
CONTINUOUS
10
81.9
20
-77.15
11
81.9
21
-72.65
0
LINE
8
BLACK
6
CONTINUOUS
10
78.4
20
-77.15
11
78.4
21
-72.65
0
LINE
8
BLACK
6
CONTINUOUS
10
81.9
20
-77.15
11
78.4
21
-77.15
0
LINE
8
BLACK
6
CONTINUOUS
10
78.4
20
-72.65
11
81.9
21
-72.65
0
LINE
8
BLACK
6
CONTINUOUS
10
97.45
20
-72.65
11
100.95
21
-72.65
0
LINE
8
BLACK
6
CONTINUOUS
10
100.95
20
-77.15
11
97.45
21
-77.15
0
LINE
8
BLACK
6
CONTINUOUS
10
97.45
20
-77.15
11
97.45
21
-72.65
0
LINE
8
BLACK
6
CONTINUOUS
10
100.95
20
-77.15
11
100.95
21
-72.65
0
LINE
8
BLACK
6
CONTINUOUS
10
120
20
-77.15
11
120
21
-72.65
0
LINE
8
BLACK
6
CONTINUOUS
10
116.5
20
-77.15
11
116.5
21
-72.65
0
LINE
8
BLACK
6
CONTINUOUS
10
120
20
-77.15
11
116.5
21
-77.15
0
LINE
8
BLACK
6
CONTINUOUS
10
116.5
20
-72.65
11
120
21
-72.65
0
LINE
8
BLACK
6
CONTINUOUS
10
135.55
20
-72.65
11
139.05
21
-72.65
0
LINE
8
BLACK
6
CONTINUOUS
10
139.05
20
-77.15
11
135.55
21
-77.15
0
LINE
8
BLACK
6
CONTINUOUS
10
135.55
20
-77.15
11
135.55
21
-72.65
0
LINE
8
BLACK
6
CONTINUOUS
10
139.05
20
-77.15
11
139.05
21
-72.65
0
LINE
8
BLACK
6
CONTINUOUS
10
154.6
20
-72.65
11
158.1
21
-72.65
0
LINE
8
BLACK
6
CONTINUOUS
10
158.1
20
-77.15
11
154.6
21
-77.15
0
LINE
8
BLACK
6
CONTINUOUS
10
154.6
20
-77.15
11
154.6
21
-72.65
0
LINE
8
BLACK
6
CONTINUOUS
10
158.1
20
-77.15
11
158.1
21
-72.65
0
LINE
8
BLACK
6
CONTINUOUS
10
177.15
20
-77.15
11
177.15
21
-72.65
0
LINE
8
BLACK
6
CONTINUOUS
10
173.65
20
-77.15
11
173.65
21
-72.65
0
LINE
8
BLACK
6
CONTINUOUS
10
177.15
20
-77.15
11
173.65
21
-77.15
0
LINE
8
BLACK
6
CONTINUOUS
10
173.65
20
-72.65
11
177.15
21
-72.65
0
LINE
8
BLACK
6
CONTINUOUS
10
196.2
20
-77.15
11
196.2
21
-72.65
0
LINE
8
BLACK
6
CONTINUOUS
10
192.7
20
-77.15
11
192.7
21
-72.65
0
LINE
8
BLACK
6
CONTINUOUS
10
196.2
20
-77.15
11
192.7
21
-77.15
0
LINE
8
BLACK
6
CONTINUOUS
10
192.7
20
-72.65
11
196.2
21
-72.65
0
LINE
8
BLACK
6
CONTINUOUS
10
211.75
20
-72.65
11
215.25
21
-72.65
0
LINE
8
BLACK
6
CONTINUOUS
10
215.25
20
-77.15
11
211.75
21
-77.15
0
LINE
8
BLACK
6
CONTINUOUS
10
211.75
20
-77.15
11
211.75
21
-72.65
0
LINE
8
BLACK
6
CONTINUOUS
10
215.25
20
-77.15
11
215.25
21
-72.65
0
LINE
8
BLACK
6
CONTINUOUS
10
230.8
20
-72.65
11
234.3
21
-72.65
0
LINE
8
BLACK
6
CONTINUOUS
10
234.3
20
-77.15
11
230.8
21
-77.15
0
LINE
8
BLACK
6
CONTINUOUS
10
230.8
20
-77.15
11
230.8
21
-72.65
0
LINE
8
BLACK
6
CONTINUOUS
10
234.3
20
-77.15
11
234.3
21
-72.65
0
LINE
8
BLACK
6
CONTINUOUS
10
62.85
20
-96.2
11
62.85
21
-91.7
0
LINE
8
BLACK
6
CONTINUOUS
10
59.35
20
-96.2
11
59.35
21
-91.7
0
LINE
8
BLACK
6
CONTINUOUS
10
62.85
20
-96.2
11
59.35
21
-96.2
0
LINE
8
BLACK
6
CONTINUOUS
10
59.35
20
-91.7
11
62.85
21
-91.7
0
LINE
8
BLACK
6
CONTINUOUS
10
81.9
20
-96.2
11
81.9
21
-91.7
0
LINE
8
BLACK
6
CONTINUOUS
10
78.4
20
-96.2
11
78.4
21
-91.7
0
LINE
8
BLACK
6
CONTINUOUS
10
81.9
20
-96.2
11
78.4
21
-96.2
0
LINE
8
BLACK
6
CONTINUOUS
10
78.4
20
-91.7
11
81.9
21
-91.7
0
LINE
8
BLACK
6
CONTINUOUS
10
97.45
20
-91.7
11
100.95
21
-91.7
0
LINE
8
BLACK
6
CONTINUOUS
10
100.95
20
-96.2
11
97.45
21
-96.2
0
LINE
8
BLACK
6
CONTINUOUS
10
97.45
20
-96.2
11
97.45
21
-91.7
0
LINE
8
BLACK
6
CONTINUOUS
10
100.95
20
-96.2
11
100.95
21
-91.7
0
LINE
8
BLACK
6
CONTINUOUS
10
116.5
20
-91.7
11
120
21
-91.7
0
LINE
8
BLACK
6
CONTINUOUS
10
120
20
-96.2
11
116.5
21
-96.2
0
LINE
8
BLACK
6
CONTINUOUS
10
116.5
20
-96.2
11
116.5
21
-91.7
0
LINE
8
BLACK
6
CONTINUOUS
10
120
20
-96.2
11
120
21
-91.7
0
LINE
8
BLACK
6
CONTINUOUS
10
139.05
20
-96.2
11
139.05
21
-91.7
0
LINE
8
BLACK
6
CONTINUOUS
10
135.55
20
-96.2
11
135.55
21
-91.7
0
LINE
8
BLACK
6
CONTINUOUS
10
139.05
20
-96.2
11
135.55
21
-96.2
0
LINE
8
BLACK
6
CONTINUOUS
10
135.55
20
-91.7
11
139.05
21
-91.7
0
LINE
8
BLACK
6
CONTINUOUS
10
158.1
20
-96.2
11
158.1
21
-91.7
0
LINE
8
BLACK
6
CONTINUOUS
10
154.6
20
-96.2
11
154.6
21
-91.7
0
LINE
8
BLACK
6
CONTINUOUS
10
158.1
20
-96.2
11
154.6
21
-96.2
0
LINE
8
BLACK
6
CONTINUOUS
10
154.6
20
-91.7
11
158.1
21
-91.7
0
LINE
8
BLACK
6
CONTINUOUS
10
173.65
20
-91.7
11
177.15
21
-91.7
0
LINE
8
BLACK
6
CONTINUOUS
10
177.15
20
-96.2
11
173.65
21
-96.2
0
LINE
8
BLACK
6
CONTINUOUS
10
173.65
20
-96.2
11
173.65
21
-91.7
0
LINE
8
BLACK
6
CONTINUOUS
10
177.15
20
-96.2
11
177.15
21
-91.7
0
LINE
8
BLACK
6
CONTINUOUS
10
192.7
20
-91.7
11
196.2
21
-91.7
0
LINE
8
BLACK
6
CONTINUOUS
10
196.2
20
-96.2
11
192.7
21
-96.2
0
LINE
8
BLACK
6
CONTINUOUS
10
192.7
20
-96.2
11
192.7
21
-91.7
0
LINE
8
BLACK
6
CONTINUOUS
10
196.2
20
-96.2
11
196.2
21
-91.7
0
LINE
8
BLACK
6
CONTINUOUS
10
215.25
20
-96.2
11
215.25
21
-91.7
0
LINE
8
BLACK
6
CONTINUOUS
10
211.75
20
-96.2
11
211.75
21
-91.7
0
LINE
8
BLACK
6
CONTINUOUS
10
215.25
20
-96.2
11
211.75
21
-96.2
0
LINE
8
BLACK
6
CONTINUOUS
10
211.75
20
-91.7
11
215.25
21
-91.7
0
LINE
8
BLACK
6
CONTINUOUS
10
230.8
20
-91.7
11
234.3
21
-91.7
0
LINE
8
BLACK
6
CONTINUOUS
10
234.3
20
-96.2
11
230.8
21
-96.2
0
LINE
8
BLACK
6
CONTINUOUS
10
230.8
20
-96.2
11
230.8
21
-91.7
0
LINE
8
BLACK
6
CONTINUOUS
10
234.3
20
-96.2
11
234.3
21
-91.7
0
LINE
8
BLACK
6
CONTINUOUS
10
43.8
20
-77.15
11
43.8
21
-72.65
0
LINE
8
BLACK
6
CONTINUOUS
10
40.3
20
-77.15
11
40.3
21
-72.65
0
LINE
8
BLACK
6
CONTINUOUS
10
43.8
20
-77.15
11
40.3
21
-77.15
0
LINE
8
BLACK
6
CONTINUOUS
10
40.3
20
-72.65
11
43.8
21
-72.65
0
LINE
8
BLACK
6
CONTINUOUS
10
40.3
20
-91.7
11
43.8
21
-91.7
0
LINE
8
BLACK
6
CONTINUOUS
10
43.8
20
-96.2
11
40.3
21
-96.2
0
LINE
8
BLACK
6
CONTINUOUS
10
40.3
20
-96.2
11
40.3
21
-91.7
0
LINE
8
BLACK
6
CONTINUOUS
10
43.8
20
-96.2
11
43.8
21
-91.7
0
LINE
8
BLACK
6
CONTINUOUS
10
45.06
20
-24.15
11
50.2
21
-24.15
0
LINE
8
BLACK
6
CONTINUOUS
10
37.55
20
-24.15
11
45.05
21
-24.15
0
LINE
8
BLACK
6
CONTINUOUS
10
37.55
20
-22.85
11
37.55
21
-24.151
0
LINE
8
BLACK
6
CONTINUOUS
10
45.05
20
-22.85
11
45.05
21
-24.15
0
LINE
8
BLACK
6
CONTINUOUS
10
37.55
20
-22.85
11
45.05
21
-22.85
0
LINE
8
BLACK
6
CONTINUOUS
10
32.4
20
-24.15
11
37.55
21
-24.15
0
LINE
8
BLACK
6
CONTINUOUS
10
50.2
20
-24.15
11
50.2
21
-57.2
0
LINE
8
BLACK
6
CONTINUOUS
10
50.2
20
-57.2
11
32.4
21
-57.2
0
LINE
8
BLACK
6
CONTINUOUS
10
32.4
20
-57.2
11
32.4
21
-24.15
0
LINE
8
BLACK
6
CONTINUOUS
10
40.4816
20
-63.0799
11
40.6364
21
-63.0799
0
LINE
8
BLACK
6
CONTINUOUS
10
40.6364
20
-63.0799
11
40.7138
21
-63.1186
0
LINE
8
BLACK
6
CONTINUOUS
10
40.7138
20
-63.1186
11
40.7912
21
-63.196
0
LINE
8
BLACK
6
CONTINUOUS
10
40.7912
20
-63.196
11
40.8299
21
-63.3508
0
LINE
8
BLACK
6
CONTINUOUS
10
40.8299
20
-63.3508
11
40.8299
21
-63.6218
0
LINE
8
BLACK
6
CONTINUOUS
10
40.8299
20
-63.6218
11
40.7912
21
-63.7766
0
LINE
8
BLACK
6
CONTINUOUS
10
40.7912
20
-63.7766
11
40.7138
21
-63.854
0
LINE
8
BLACK
6
CONTINUOUS
10
40.7138
20
-63.854
11
40.6364
21
-63.8927
0
LINE
8
BLACK
6
CONTINUOUS
10
40.6364
20
-63.8927
11
40.4816
21
-63.8927
0
LINE
8
BLACK
6
CONTINUOUS
10
40.4816
20
-63.8927
11
40.4041
21
-63.854
0
LINE
8
BLACK
6
CONTINUOUS
10
40.4041
20
-63.854
11
40.3267
21
-63.7766
0
LINE
8
BLACK
6
CONTINUOUS
10
40.3267
20
-63.7766
11
40.288
21
-63.6218
0
LINE
8
BLACK
6
CONTINUOUS
10
40.288
20
-63.6218
11
40.288
21
-63.3508
0
LINE
8
BLACK
6
CONTINUOUS
10
40.288
20
-63.3508
11
40.3267
21
-63.196
0
LINE
8
BLACK
6
CONTINUOUS
10
40.3267
20
-63.196
11
40.4041
21
-63.1186
0
LINE
8
BLACK
6
CONTINUOUS
10
40.4041
20
-63.1186
11
40.4816
21
-63.0799
0
LINE
8
BLACK
6
CONTINUOUS
10
41.5653
20
-63.8927
11
41.1782
21
-63.8927
0
LINE
8
BLACK
6
CONTINUOUS
10
41.1782
20
-63.8927
11
41.1782
21
-63.0799
0
LINE
8
BLACK
6
CONTINUOUS
10
42.262
20
-63.8927
11
41.7975
21
-63.8927
0
LINE
8
BLACK
6
CONTINUOUS
10
42.0297
20
-63.8927
11
42.0297
21
-63.0799
0
LINE
8
BLACK
6
CONTINUOUS
10
42.0297
20
-63.0799
11
41.9523
21
-63.196
0
LINE
8
BLACK
6
CONTINUOUS
10
41.9523
20
-63.196
11
41.8749
21
-63.2734
0
LINE
8
BLACK
6
CONTINUOUS
10
41.8749
20
-63.2734
11
41.7975
21
-63.3121
  0
ENDSEC
  0
EOF
